<svg class="w-100 db trans" preserveAspectRatio="xMinYMin meet"
    xmlns="http://www.w3.org/2000/svg" fill="none" viewBox="0 0 66 80" aria-hidden="true">
    <path fill="#0E3252" d="M187.88 61.798c-2.32 0-4.079-.46-5.303-1.382-1.25-.947-1.887-2.176-1.887-3.61v-.255c0-.257.153-.385.408-.385h1.504c.281 0 .459.18.459.461 0 2.023 1.581 3.047 4.742 3.047 1.454 0 2.55-.282 3.238-.794.663-.538 1.02-1.229 1.02-2.1 0-1.177-.841-1.842-2.524-1.97l-4.283-.308c-3.06-.204-4.589-1.51-4.589-3.89 0-1.332.586-2.51 1.733-3.508 1.148-.998 2.805-1.51 4.921-1.51 2.295 0 3.926.435 4.997 1.356 1.071.922 1.607 2.1 1.607 3.584 0 .154-.077.359-.485.359h-1.53c-.153 0-.459-.077-.484-.538-.077-.768-.434-1.356-1.071-1.868-.637-.513-1.657-.743-3.034-.743-1.275 0-2.295.282-3.059.82-.74.537-1.122 1.177-1.122 1.996 0 1.05.765 1.639 2.345 1.767l4.207.307c1.683.128 2.932.563 3.697 1.33.765.743 1.173 1.69 1.173 2.817 0 1.28-.561 2.432-1.683 3.482-1.096 1.023-2.753 1.535-4.997 1.535Zm-6.782-5.452c-.178 0-.204.102-.204.179v.256c0 1.382.612 2.56 1.81 3.456 1.199.896 2.907 1.357 5.176 1.357 2.193 0 3.799-.487 4.87-1.485 1.071-.998 1.606-2.125 1.606-3.328 0-1.075-.357-1.946-1.096-2.663-.74-.716-1.938-1.126-3.57-1.254l-4.207-.307c-1.682-.128-2.549-.794-2.549-1.971 0-.896.408-1.613 1.198-2.176.79-.563 1.861-.845 3.162-.845 1.402 0 2.473.256 3.161.794.688.511 1.071 1.203 1.147 1.996.026.308.179.333.281.333h1.53c.28 0 .28-.102.28-.154 0-1.433-.51-2.56-1.53-3.43-1.02-.87-2.651-1.306-4.869-1.306-2.066 0-3.697.487-4.794 1.46-1.122.973-1.657 2.073-1.657 3.353 0 2.253 1.479 3.482 4.411 3.687l4.283.307c1.81.128 2.728.87 2.728 2.176 0 .922-.357 1.69-1.096 2.253-.714.563-1.861.845-3.366.845-3.289 0-4.946-1.101-4.946-3.252 0-.179-.076-.256-.255-.256h-1.504v-.025ZM37.148 71.143c15.897 0 28.785-12.94 28.785-28.903 0-15.962-12.888-28.902-28.785-28.902-15.898 0-28.785 12.94-28.785 28.902 0 15.963 12.887 28.903 28.785 28.903Z"></path>
    <path fill="#A71F2E" d="M41.023 75.008c-1.173.102-2.371.18-3.595.18C16.751 75.187 0 58.341 0 37.58 0 16.819 16.75 0 37.428 0c1.199 0 2.397.051 3.595.18C22.03 1.996 7.164 18.047 7.164 37.58c0 5.198 1.046 10.164 2.958 14.67-1.224-3.252-1.76-6.503-1.76-10.01 0-15.949 12.876-28.902 28.786-28.902.663 0 1.3.025 1.938.076-14.992.999-26.848 13.517-26.848 28.826 0 15.309 11.856 27.827 26.848 28.826-.638.05-1.275.076-1.938.076a28.856 28.856 0 0 1-12.697-2.944c-3.442-1.536-6.476-4.275-8.261-6.144 6.12 7.168 14.915 12.007 24.833 12.954Z"></path>
    <path fill="#A71F2E" d="M11.244 69.068c-.026 3.277 1.198 6.784 4.155 9.14C24.96 76.416 34.853 77.49 44.21 80c.23-.615.484-1.23.714-1.844-8.95-.588-17.77-2.585-26.108-5.836-2.6-.973-5.048-2.228-7.572-3.252Z"></path>
    <path fill="#fff" d="M37.148 27.137c-2.448 0-4.437 1.997-4.437 4.454 0 2.458 1.99 4.454 4.437 4.454s4.436-1.996 4.436-4.454a4.432 4.432 0 0 0-4.436-4.454Zm0 6.45a2.006 2.006 0 0 1-2.014-2.022c0-1.126.917-2.022 2.014-2.022a2.023 2.023 0 0 1 0 4.045ZM49.003 46.03c-.306 6.297-5.481 11.34-11.855 11.34-6.349 0-11.525-5.043-11.856-11.34h5.43v2.457h-2.574c1.147 3.404 4.13 5.939 7.776 6.4v-15.95H33.45v-2.431h7.368v2.432h-2.473v15.949c3.62-.487 6.604-3.021 7.75-6.4h-2.498v-2.458h5.405Z"></path>
</svg>