<?xml version="1.0" encoding="UTF-8" standalone="no"?>
<!-- Creator: CorelDRAW -->

<svg
   xml:space="preserve"
   width="1.99999in"
   height="1.99999in"
   version="1.1"
   style="shape-rendering:geometricPrecision; text-rendering:geometricPrecision; image-rendering:optimizeQuality; fill-rule:evenodd; clip-rule:evenodd"
   viewBox="0 0 2000 2000"
   id="svg22"
   sodipodi:docname="crane.svg"
   inkscape:version="1.1.1 (3bf5ae0d25, 2021-09-20)"
   xmlns:inkscape="http://www.inkscape.org/namespaces/inkscape"
   xmlns:sodipodi="http://sodipodi.sourceforge.net/DTD/sodipodi-0.dtd"
   xmlns="http://www.w3.org/2000/svg"
   xmlns:svg="http://www.w3.org/2000/svg"><sodipodi:namedview
   id="namedview24"
   pagecolor="#ffffff"
   bordercolor="#000000"
   borderopacity="0.25"
   inkscape:pageshadow="2"
   inkscape:pageopacity="0.0"
   inkscape:pagecheckerboard="0"
   inkscape:document-units="in"
   showgrid="false"
   inkscape:zoom="0.24016894"
   inkscape:cx="210.26866"
   inkscape:cy="285.2159"
   inkscape:window-width="1920"
   inkscape:window-height="1009"
   inkscape:window-x="-8"
   inkscape:window-y="-8"
   inkscape:window-maximized="1"
   inkscape:current-layer="g765" />
 <defs
   id="defs4">
  <style
   type="text/css"
   id="style2">
   <![CDATA[
    .fil0 {fill:none}
    .fil1 {fill:#333333}
    .fil2 {fill:#58535A}
    .fil4 {fill:#FF700D}
    .fil3 {fill:#FFA721}
   ]]>
  </style>
 </defs>
 <rect
   class="fil0"
   width="2000"
   height="2000"
   id="rect6"
   x="-2165.0486"
   y="-1165.0486" />
 <g
   id="Layer_x0020_1"
   inkscape:label="Layer 1">
  <metadata
   id="CorelCorpID_0Corel-Layer" />
  
  
  
  
  
  
 <circle
   style="fill:#f2f2f2;fill-opacity:0.516484;stroke:#000000;stroke-width:1.12851"
   id="path48"
   cx="-4677.3174"
   cy="603.3913"
   r="1561.9436"
   sodipodi:insensitive="true" /><g
   id="g765"
   transform="translate(-1902.9126,-398.05825)"><path
     class="fil1"
     d="m -3100.6909,1865.037 h -440.019 v 112.2175 h 638.7373 V 1865.037 Z M -2264.6547,534.28284 -3146.1122,51.259346 V 228.12401 c 29.8077,0 82.3261,-6.09878 82.3261,32.93342 v 273.22541 z m -915.5235,-574.505168 c 7.0971,0 12.7748,2.439513 18.4524,6.098782 l 1037.5933,568.406386 h 136.2639 c 12.7748,0 24.1301,4.87903 31.2272,13.41732 l 217.1707,276.88468 c 17.033,21.95561 0,51.22976 -31.2272,51.22976 h -174.5882 c 0,20.73586 1.4194,123.19539 -5.6776,134.1732 -18.4524,29.2741 -79.4873,4.879 -79.4873,57.3285 0,53.6693 95.1008,53.6693 95.1008,0 0,-42.6914 75.2291,-42.6914 75.2291,0 0,29.2742 -14.1942,56.1088 -36.9048,75.6249 l 113.5533,198.8203 c 4.2582,8.5383 4.2582,18.2964 1.4194,26.8346 v 269.5662 c 0,18.2963 -17.033,32.9334 -38.3242,32.9334 h -329.3046 c -19.8718,0 -36.9048,-14.6371 -36.9048,-32.9334 l 1.4194,-292.7415 116.3921,-202.4796 c -66.7126,-56.1088 -39.7436,-152.4695 48.2602,-176.86463 V 875.8146 h -1041.8515 v 923.3555 h 198.7182 c 21.2913,0 38.3243,14.6371 38.3243,32.9334 v 178.0845 c 0,18.2963 -17.033,32.9334 -38.3243,32.9334 h -715.3858 c -21.2912,0 -38.3242,-14.6371 -38.3242,-32.9334 v -178.0845 c 0,-18.2963 17.033,-32.9334 38.3242,-32.9334 h 85.165 V 875.8146 h -283.8833 c -21.2912,0 -38.3242,-14.63707 -38.3242,-32.93342 V 562.33724 c 1.4194,-4.87903 2.8388,-8.5383 5.6777,-12.19757 l 397.4365,-574.505166 c 7.0971,-9.75805 19.8719,-15.856832 32.6466,-15.856832 z m -238.4619,151.249728 -292.3998,423.25544 h 217.1707 V 261.05743 c 0,-37.81245 49.6796,-32.93342 75.2291,-32.93342 z m 197.2988,117.09661 V 25.644464 h -120.6504 V 228.12401 Z m -519.5063,583.04351 h 246.9784 v -212.2376 h -246.9784 z m 322.2075,-278.10444 h 278.2056 V 293.99085 h -278.2056 z m 1540.0666,790.40212 -86.5844,-152.4696 -36.9048,1.2198 -86.5844,151.2498 z m -232.7843,281.7637 h 252.6561 v -217.1166 h -252.6561 z m -951.0088,-840.41212 68.1319,-59.76806 -68.1319,-59.76806 z m 122.0698,-106.1188 69.5514,-59.76806 h -139.1028 z m 161.8134,-46.35074 -107.8756,92.70148 107.8756,92.70148 106.4562,-92.70148 z m -161.8134,139.05222 -69.5514,59.76806 h 139.1028 z m 391.7589,59.76806 -69.5514,-59.76806 -69.5514,59.76806 z m -139.1028,-212.2376 69.5514,59.76806 69.5514,-59.76806 z m 123.4892,106.1188 106.4561,92.70148 107.8757,-92.70148 -107.8757,-92.70148 z m 268.2696,-46.35074 69.5514,-59.76806 h -139.1028 z m 176.0076,-59.76806 -122.0698,106.1188 122.0698,106.1188 h 278.2056 l -166.0717,-212.2376 z m -176.0076,152.46954 -69.5514,59.76806 h 139.1028 z m -860.1662,115.87685 -120.6504,-103.67928 -122.0698,104.89904 120.6504,98.80026 z m -174.5882,-148.81027 -88.0038,-74.40513 v 148.81027 z m -32.6466,-119.53612 85.165,73.18538 85.165,-73.18538 z m 139.1028,118.31637 85.165,71.96562 V 645.28066 Z m -194.46,363.48741 85.1649,-68.3064 -85.1649,-69.5261 z m 279.625,-137.8325 -83.7456,69.5261 83.7456,68.3064 z m -139.1028,113.4373 -123.4892,101.2398 123.4892,106.1188 123.4892,-106.1188 z m 122.0698,404.9591 -122.0698,-106.1188 -123.4892,106.1188 123.4892,98.8003 z m -176.0076,-152.4695 -86.5844,-73.1854 v 147.5905 z m 106.4562,0 86.5844,74.4051 v -147.5905 z m -193.0406,363.4874 85.1649,-68.3064 -85.1649,-67.0866 z m 279.625,-135.393 -83.7456,67.0866 83.7456,67.0866 z m -139.1028,112.2176 -140.5222,110.9978 v 39.0322 h 279.625 v -39.0322 z"
     id="path9"
     style="stroke-width:1.3158;fill:#0e3252;fill-opacity:1" /><polygon
     class="fil2"
     points="910,1800 910,1708 770,1708 460,1708 460,1800 "
     id="polygon11"
     transform="matrix(1.4194163,0,0,1.2197563,-4193.6414,-218.30675)"
     style="fill:#0e3252;fill-opacity:1" /><polygon
     class="fil3"
     points="319,844 493,844 493,670 319,670 "
     id="polygon13"
     transform="matrix(1.4194163,0,0,1.2197563,-4193.6414,-218.30675)"
     style="fill:#a71f2e;fill-opacity:1" /><polygon
     class="fil3"
     points="546,616 742,616 742,420 546,420 "
     id="polygon15"
     transform="matrix(1.4194163,0,0,1.2197563,-4193.6414,-218.30675)"
     style="fill:#a71f2e;fill-opacity:1" /><polygon
     class="fil3"
     points="600,366 685,366 685,200 600,200 "
     id="polygon17"
     transform="matrix(1.4194163,0,0,1.2197563,-4193.6414,-218.30675)"
     style="fill:#a71f2e;fill-opacity:1" /><polygon
     class="fil4"
     points="1645,1317 1467,1317 1467,1495 1645,1495 "
     id="polygon19"
     transform="matrix(1.4194163,0,0,1.2197563,-4193.6414,-218.30675)" /></g><circle
   style="fill:#f2f2f2;fill-opacity:0.516484;stroke:#000000;stroke-width:1.12851"
   id="circle347"
   cx="4073.6855"
   cy="-4773.189"
   r="1561.9436" /><g
   id="g28648"><g
     id="g28600"
     transform="translate(-3352.5471,834.16263)"><circle
       style="fill:#f2f2f2;fill-opacity:0.516484;stroke:#000000;stroke-width:1.12851"
       id="circle161"
       cx="-4577.9707"
       cy="3946.0088"
       r="1561.9436" /></g><g
     id="g28635"
     transform="translate(-3352.5471,834.16232)"><path
       fill="#0e3252"
       d="m -4443.8428,4755.0212 c 413.9852,0 749.6109,-336.9799 749.6109,-752.6839 0,-415.6779 -335.6257,-752.6578 -749.6109,-752.6578 -414.0113,0 -749.6109,336.9799 -749.6109,752.6578 0,415.704 335.5996,752.6839 749.6109,752.6839 z"
       id="path2"
       sodipodi:nodetypes="sssss"
       style="stroke-width:26.0417" /><path
       fill="#a71f2e"
       d="m -4393.4,4857.6776 c -30.547,2.6563 -61.7449,4.6875 -93.62,4.6875 -538.4646,-0.026 -974.6895,-438.7248 -974.6895,-979.377 0,-540.6521 436.1988,-978.6478 974.6895,-978.6478 31.224,0 62.422,1.3281 93.62,4.6875 -494.6104,47.2918 -881.7466,465.2874 -881.7466,973.9603 0,135.3649 27.2396,264.6881 77.0314,382.0321 -31.8751,-84.6877 -45.8334,-169.3493 -45.8334,-260.6776 0,-415.3394 335.3131,-752.6578 749.6369,-752.6578 17.2657,0 33.8543,0.651 50.4689,1.9791 -390.4175,26.0157 -699.1681,352.006 -699.1681,750.6787 0,398.6726 308.7506,724.6629 699.1681,750.6786 -16.6146,1.3021 -33.2032,1.9791 -50.4689,1.9791 a 751.45987,751.45987 0 0 1 -330.6517,-76.6668 c -89.6356,-40.0001 -168.6462,-111.3283 -215.1307,-160.0003 159.3754,186.667 388.4123,312.6829 646.6941,337.3444 z"
       id="path4"
       style="fill:#a71f2e;fill-opacity:1;stroke-width:26.0417" /><path
       fill="#a71f2e"
       d="m -5168.8964,4702.9898 c -0.6771,85.3387 31.198,176.667 108.2033,238.0213 248.9849,-46.6667 506.6157,-18.6979 750.288,46.6668 5.9896,-16.0157 12.6042,-32.0313 18.5938,-48.0209 -233.0734,-15.3126 -462.7613,-67.3179 -679.8972,-151.9795 -67.7085,-25.3386 -131.4586,-58.021 -197.1879,-84.6877 z"
       id="path6"
       style="fill:#a71f2e;fill-opacity:1;stroke-width:26.0417" /><path
       fill="#ffffff"
       d="m -4494.3117,3611.0345 c -63.7501,0 -115.5471,52.0053 -115.5471,115.9898 0,64.0105 51.823,115.9898 115.5471,115.9898 63.7241,0 115.5211,-51.9793 115.5211,-115.9898 a 115.4169,115.4169 0 0 0 -115.5211,-115.9898 z m 0,167.969 a 52.23969,52.23969 0 0 1 -52.448,-52.6563 c 0,-29.323 23.8802,-52.6564 52.448,-52.6564 a 52.6824,52.6824 0 0 1 0,105.3388 z m 308.7246,324.0372 c -7.9688,163.9847 -142.7347,295.3131 -308.7246,295.3131 -165.3389,0 -300.1308,-131.3284 -308.7506,-295.3131 h 141.4065 v 63.9845 h -67.0314 c 29.8699,88.646 107.5523,154.6618 202.5004,166.667 v -415.3654 h -64.4272 v -63.3075 h 191.8754 v 63.3335 h -64.4011 v 415.3394 c 94.271,-12.6823 171.9795,-78.6721 201.8233,-166.667 h -65.0522 v -64.0106 h 140.7555 z"
       id="path8"
       style="fill:#ffffff;fill-opacity:1;stroke-width:26.0417" /></g></g><g
   id="g28662"
   transform="translate(-5735.3741,958.31567)"><g
     id="g28639"
     transform="translate(7369.8317,302.09474)"><circle
       style="fill:#f2f2f2;fill-opacity:0.516484;stroke:#000000;stroke-width:1.12851"
       id="circle28637"
       cx="-4577.9707"
       cy="3946.0088"
       r="1561.9436" /></g><g
     id="g28629"
     transform="translate(4181.6313,-1278.8747)"><path
       style="fill:#0e3252;fill-opacity:1;stroke:none;stroke-width:10;stroke-miterlimit:4;stroke-dasharray:none;stroke-opacity:1"
       d="m -1479.7,4784.1105 19.8789,537.3623 -4.0555,45.7574 -233.9783,174.0025 -96.0882,89.3858 -146.3456,91.7711 -106.7813,449.6157 -92.009,-37.1956 -98.7567,-318.5783 -3.643,-362.0637 120.849,-326.2922 328.1946,-273.5862 182.6207,-95.3627 130.1144,25.1839 v 0"
       id="path25513"
       sodipodi:nodetypes="ccccccccccccccc" /><path
       style="fill:#0e3252;fill-opacity:1;stroke:none;stroke-width:10;stroke-miterlimit:4;stroke-dasharray:none;stroke-opacity:1"
       d="m -1475.5883,5203.5814 c 17.2362,3.8278 24.0633,52.2254 34.485,83.4896 6.3872,19.1621 90.4046,55.7883 65.3394,87.1196 -25.0493,31.3117 -110.6739,38.1821 -132.4943,1.8152 -20.868,-34.7802 52.9113,-131.9411 32.6699,-172.4243 z"
       id="path27904" /><path
       style="fill:#0e3252;fill-opacity:1;stroke:none;stroke-width:10;stroke-miterlimit:4;stroke-dasharray:none;stroke-opacity:1"
       d="m -1985.6011,6239.0344 c -8.4745,25.9979 7.7842,43.8256 22.6876,61.7095 8.4474,10.1372 13.1984,23.181 22.6873,32.6698 30.0521,30.0524 64.6199,46.6486 101.6395,66.2473 8.9513,4.7388 14.7472,13.8292 22.6875,19.9649 23.8644,18.4409 51.9882,34.6154 78.952,48.0972 23.3277,11.6638 52.0598,15.3084 77.1372,21.78 25.1995,6.5031 48.5183,20.0701 73.5071,26.3175 20.9563,5.2391 41.4769,5.8185 62.6174,8.1675 26.7484,2.9719 53.9011,10.2625 80.767,12.7047 42.9759,3.907 84.1841,-7.7524 126.142,-14.5198 31.9909,-5.1599 127.7336,-48.5876 131.587,-87.1197 4.6565,-46.5658 -194.8762,-71.09 -188.7593,-126.142 1.7136,-15.4154 12.9803,-28.0604 15.4274,-43.5597 2.3437,-14.8432 11.3544,-128.3398 -5.4448,-137.9393 -27.0383,-15.4506 -95.3236,19.6128 -120.6971,27.2248 -37.6147,11.2844 -75.8692,14.8875 -114.3445,20.8724 -38.1022,5.9271 -73.7971,21.6941 -110.7143,31.7623 -40.3574,11.0065 -80.5348,9.2433 -121.6047,13.6125 -51.4256,5.4709 -102.9781,10.8219 -154.2743,18.1501 z"
       id="path28152" /><path
       d="m -2138.7268,6135.5389 c -8.6806,0 -17.3611,-3.3487 -23.9574,-10.4185 -170.8356,-174.1386 -268.758,-419.3373 -268.758,-672.3592 0,-126.8823 23.6118,-250.0449 70.1378,-366.1372 7.6395,-18.9768 61.4941,-152.0228 78.8552,-143.8378 17.7089,8.1859 264.405,258.5826 187.4645,233.5531 -42.7094,106.4191 -142.8696,187.4497 -142.8696,304.285 0,236.2784 -36.6425,427.5855 122.735,590.1862 13.888,14.1394 14.5835,37.5806 1.0411,52.4643 -6.944,7.8137 -15.9723,11.5348 -25.0006,11.5348 z"
       id="path21366"
       style="fill:#a71f2e;fill-opacity:1;stroke-width:23.0043"
       sodipodi:nodetypes="ccscccscccc" /><path
       d="m -2264.0818,5007.3597 c -6.5984,0 -12.8491,-1.8607 -18.752,-5.9535 -15.9723,-11.1627 -20.8321,-34.2323 -10.415,-51.3473 160.4185,-267.5243 433.3365,-427.5294 729.8706,-427.5294 10.4171,0 20.4864,5.2094 27.0848,14.1396 l 138.891,186.0453 c 12.1515,16.0001 9.7217,39.4405 -5.5552,52.4643 -14.9312,12.6509 -36.8065,10.4185 -48.9601,-5.9535 l -157.8967,-10.2986 c -182.6207,95.3627 -366.3692,127.8343 -510.8154,368.9489 -6.5963,11.1629 -132.3394,-120.5136 -143.7976,-120.5136 z"
       id="path21368"
       style="fill:#a71f2e;fill-opacity:1;stroke-width:23.0043"
       sodipodi:nodetypes="cccscccccccc" /><path
       d="m -737.33883,5057.9639 c -159.72306,-222.1376 -410.42457,-349.3962 -687.15907,-349.3962 -478.8257,0 -868.0512,417.1228 -868.0512,930.2151 0,169.6733 43.0551,335.2508 123.9577,478.5147 40.2795,72.1843 89.933,138.4176 147.2238,196.0924 162.155,164.8368 373.9593,255.2602 596.8718,255.2602 222.9126,0 303.4674,-122.7888 306.6013,-128.3708 6.2507,-10.0466 7.6395,-22.3253 3.8208,-33.487 -3.8208,-11.1615 -12.5013,-19.7205 -22.9163,-23.0694 l -209.7242,-63.9998 60.0684,-224.7428 c 3.8208,-14.5116 -1.0411,-30.5103 -12.1515,-39.8143 -11.4582,-9.3022 -26.7371,-10.4185 -38.8886,-2.6048 -3.1254,1.8607 -302.0914,190.1391 -639.9397,122.7888 -1.3888,-17.4883 -1.7366,-35.3491 -1.7366,-53.9526 0,-184.1855 65.9757,-358.3264 185.4191,-490.7788 8.78,-17.9114 12.8491,-38.3258 -0.6933,-52.464 -13.8902,-14.1397 -35.7654,-13.7672 -48.958,0.7441 -132.2926,146.6025 -204.8645,339.3466 -204.8645,542.5024 0,17.1161 0.3478,34.2323 1.3888,50.6043 -22.2208,-29.7673 -42.7094,-61.0228 -61.1116,-94.1383 -74.654,-132.0928 -114.236,-284.2893 -114.236,-440.1746 0,-451.724 328.4701,-822.6956 742.7175,-853.5819 -42.7094,110.5103 -104.8642,356.826 76.0429,561.4819 -117.3614,14.5116 -229.159,58.4175 -327.4248,130.6043 -15.9723,11.5351 -19.7931,34.6038 -9.0283,51.7213 10.7627,17.1173 32.2902,21.209 48.2647,9.6744 109.724,-80.7433 238.5349,-123.1628 371.8686,-123.1628 396.53648,0 577.42652,-302.1495 585.07241,-315.1518 7.64375,-13.0023 6.94402,-30.1388 -2.08427,-42.4172 z m -638.20317,1099.1502 -47.5692,178.2321 c -5.2096,19.7207 5.5552,40.1857 23.9574,46.1392 l 183.6804,56.1863 c -37.1521,26.4191 -102.7778,56.9293 -209.0266,56.9293 -201.3914,0 -393.0698,-81.1145 -541.3155,-227.7196 -1.0432,-4.465 -1.7365,-8.93 -2.432,-13.3953 254.87,43.1626 481.2492,-41.674 592.7161,-96.372 z m 67.3601,-816.7422 c -236.8027,-206.8823 -130.9038,-482.9678 -95.8338,-557.0288 237.8459,5.9535 453.13608,113.4871 595.82657,298.4108 -45.83478,64.7451 -205.21017,253.4027 -500.35967,258.5943 z"
       id="path21370"
       style="fill:#0e3252;fill-opacity:1;stroke-width:23.0043"
       sodipodi:nodetypes="cssccsccccccccscccsccscccccscccccccsccccccccc" /><path
       d="m -1216.1646,4969.0195 c 0,49.5803 -69.4444,49.5803 -69.4444,0 0,-49.5804 69.4444,-49.5804 69.4444,0"
       id="path21372"
       style="stroke-width:23.0043" /><path
       d="m -351.22377,5377.212 c 2.08214,-13.0233 3.12534,-25.3023 3.12534,-36.0923 0,-89.6732 -59.72281,-164.8368 -138.891,-182.3233 v -636.2811 c 0,-20.465 -15.62457,-37.209 -34.72222,-37.209 -19.09764,0 -34.72221,16.744 -34.72221,37.209 v 636.2811 c -79.16819,17.1162 -138.891,92.2786 -138.891,182.3233 0,10.7905 1.0432,23.0697 3.12534,36.0923 14.23577,92.65 77.43165,224.3713 170.48787,224.3713 93.05623,0 156.24998,-131.719 170.48788,-224.3713 z m -170.48788,-147.7196 c 57.29081,0 104.16666,50.2328 104.16666,111.6273 v 6.6977 c -62.84602,39.069 -144.79182,39.069 -207.63997,0 v -6.6977 c 0,-61.3945 46.87584,-111.6273 104.16665,-111.6273 z m 0,297.6727 c -28.47153,0 -59.72281,-39.8143 -80.55699,-87.0681 25.69393,8.5583 52.77879,12.6512 80.55699,12.6512 27.77821,0 54.86307,-4.4653 80.55487,-12.6512 -20.83205,47.6276 -52.08333,87.0681 -80.55487,87.0681 z"
       id="path21374"
       style="fill:#0e3252;fill-opacity:1;stroke-width:23.0043" /><path
       d="m -764.76076,6159.7097 c -153.12464,0 -277.77994,-133.581 -277.77994,-297.6724 v -223.2545 c 0,-14.8836 8.3328,-28.6503 21.5275,-34.2323 12.847,-5.9535 27.77822,-2.6048 37.84764,8.1859 l 104.16665,111.6273 c 13.54243,14.5115 13.54243,37.9545 0,52.4642 -13.5403,14.5098 -35.41768,14.5116 -48.95798,0 l -44.79158,-47.9992 V 5862.41 c 0,123.1626 93.40396,223.2543 208.33544,223.2543 114.93148,0 208.33544,-100.0917 208.33544,-223.2543 v -148.8363 c 0,-20.4651 15.62457,-37.2091 34.72221,-37.2091 19.09765,0 34.72222,16.744 34.72222,37.2091 V 5862.41 c 0,164.0913 -124.6531,297.6726 -277.77987,297.6726 z"
       id="path21376"
       style="fill:#a71f2e;fill-opacity:1;stroke-width:23.0043" /></g></g></g>
<style
   type="text/css"
   id="style877">
	.st0{fill-rule:evenodd;clip-rule:evenodd;}
</style></svg>
