<svg xmlns="http://www.w3.org/2000/svg" xmlns:xlink="http://www.w3.org/1999/xlink" version="1.1" x="0px" y="0px" viewBox="-5.0 -10.0 110.0 135.0" style="enable-background:new 0 0 100 100;" xml:space="preserve"><g><path d="M96.5,76c-2.5947266,0-3.8232422-0.8447266-5.2441406-1.8242188C89.7734375,73.15625,88.09375,72,84.8769531,72   c-0.1855469,0-0.348877,0.0163574-0.5244141,0.0239258l10.9794922-16.4692383   c0.2050781-0.3066406,0.2236328-0.7011719,0.0498047-1.0263672S94.8691406,54,94.5,54h-0.25v-4.4052734   c0-0.4140625-0.3359375-0.75-0.75-0.75h-9.8984375c-1.75,0-3.3222656,0.9716797-4.1035156,2.5361328L78.1884766,54H77.5V41h1   c0.5527344,0,1-0.4472656,1-1v-4c0-0.5527344-0.4472656-1-1-1h-7.25v-6v-6.9394531V22   c0-0.2216797-0.0976562-0.4316406-0.2675781-0.5742188c-2.015625-1.6943359-4.0986328-0.8203125-5.7734375-0.1171875   c-1.8046875,0.7597656-2.9755859,1.1689453-4.2265625,0.1171875c-0.2226562-0.1875-0.5361328-0.2275391-0.7988281-0.1054688   C59.9189453,21.4433594,59.75,21.7080078,59.75,22v7c0,0.2216797,0.0976562,0.4316406,0.2675781,0.5742188   c0.8613281,0.7236328,1.734375,0.9794922,2.5830078,0.9794922c1.1376953,0,2.2304688-0.4599609,3.1894531-0.8623047   c1.6755371-0.7036133,2.8034668-1.0932617,3.9599609-0.3051758V35H49.5V21c0-0.0593262-0.0238037-0.1105957-0.0336914-0.1669922   C49.4770508,20.7216797,49.5,20.6140137,49.5,20.5c0-1.9296875-1.5703125-3.5-3.5-3.5s-3.5,1.5703125-3.5,3.5   c0,0.0871582,0.0195312,0.1689453,0.0257568,0.2546387C41.777832,21.3269043,39.1378174,22.25,34.5,22.25   c-2.232666,0-4.3516846-0.2331543-5.9482422-0.6474609l-0.0563965-0.0563965C28.4956055,21.5302734,28.5,21.5158691,28.5,21.5   c0-1.9296875-1.5703125-3.5-3.5-3.5s-3.5,1.5703125-3.5,3.5c0,1.4880371,0.9377441,2.7536621,2.25,3.2590332v8.7319336   c-1.2963867,1.2180176-7.3087158,7.1838379-7.932373,13.3833008c-0.0141602,0.0559082-0.0107422,0.1149902-0.0114746,0.1743164   C15.7824707,47.329834,15.75,47.6108398,15.75,47.8925781C15.75,53.328125,19.6748047,57.75,24.5,57.75   s8.75-4.421875,8.75-9.8574219c0-0.2626953-0.0317383-0.5249023-0.0522461-0.7873535   c0.006958-0.0874023,0.0048828-0.1726074-0.0168457-0.2536621C32.5449219,40.6601562,26.5447998,34.7075195,25.25,33.4909668   v-7.3269043l17.25,17.25V61h-36c-0.2871094,0-0.5595703,0.1230469-0.75,0.3378906   c-0.1894531,0.2158203-0.2783203,0.5019531-0.2421875,0.7861328L7.140625,75.1862793C6.2062988,75.6708984,5.1190186,76,3.5,76   c-0.5527344,0-1,0.4472656-1,1s0.4472656,1,1,1c3.21875,0,4.8994141-1.15625,6.3818359-2.1757812   C11.3046875,74.8457031,12.5341797,74,15.1308594,74s3.8261719,0.8457031,5.2490234,1.8242188   C21.8623047,76.84375,23.5429688,78,26.7617188,78c3.2167969,0,4.8964844-1.15625,6.3789062-2.1757812   C34.5615234,74.8447266,35.7900391,74,38.3847656,74c2.5957031,0,3.8242188,0.8457031,5.2470703,1.8242188   C45.1132812,76.84375,46.7939453,78,50.0107422,78s4.8964844-1.15625,6.3789062-2.1757812   C57.8105469,74.8447266,59.0390625,74,61.6337891,74c2.59375,0,3.8212891,0.8447266,5.2421875,1.8232422   C68.3574219,76.84375,70.0371094,78,73.2529297,78c3.2167969,0,4.8964844-1.15625,6.3779297-2.1757812   C81.0537109,74.8447266,82.28125,74,84.8769531,74c2.5947266,0,3.8232422,0.8447266,5.2441406,1.8242188   C91.6035156,76.84375,93.2832031,78,96.5,78c0.5527344,0,1-0.4472656,1-1S97.0527344,76,96.5,76z M65.2089844,28.3085938   C63.5341797,29.0126953,62.40625,29.4169922,61.25,28.6298828v-5.3183594   c1.6132812,0.6103516,3.2050781-0.0605469,4.5400391-0.6201172C67.4658203,21.9863281,68.59375,21.5810547,69.75,22.3710938   v5.3173828C68.1347656,27.0761719,66.5429688,27.7480469,65.2089844,28.3085938z M92.75,54h-5.4189453v-3.6552734H92.75V54z    M80.8398438,52.0507812c0.5253906-1.0517578,1.5839844-1.7060547,2.7617188-1.7060547h2.2294922V54h-5.965332   L80.8398438,52.0507812z M75.5,50.25H62.25v-5.5H75.5V50.25z M75.5,43.25h-14c-0.4140625,0-0.75,0.3359375-0.75,0.75v7   c0,0.4140625,0.3359375,0.75,0.75,0.75h14V54h-10c-0.2695312,0-0.5283203,0.109375-0.7167969,0.3027344   C60.776123,58.4194336,55.2336426,60.8310547,49.5,60.9851074V51.75h7c0.4140625,0,0.75-0.3359375,0.75-0.75v-7   c0-0.4140625-0.3359375-0.75-0.75-0.75h-7V41h26V43.25z M49.5,44.75h6.25v5.5H49.5V44.75z M77.5,39h-1h-28h-1v-2h30V39z M46,19   c0.8271484,0,1.5,0.6728516,1.5,1.5S46.8271484,22,46,22s-1.5-0.6728516-1.5-1.5S45.1728516,19,46,19z M34.5,23.75   c2.9885254,0,6.1164551-0.4135742,8-1.2885742v13.0893555L30.4334717,23.4841309   C31.6901855,23.6557617,33.0751953,23.75,34.5,23.75z M25,20c0.8271484,0,1.5,0.6728516,1.5,1.5S25.8271484,23,25,23   s-1.5-0.6728516-1.5-1.5S24.1728516,20,25,20z M31.6962891,47.0058594   c-0.2486572,1.0297852-1.5302734,2.0935059-3.5061035,2.7109375C28.2299805,49.1142578,28.25,48.5029297,28.25,47.8925781   c0-0.8547363-0.045166-1.7114258-0.1229248-2.5576172c1.1617432-0.2849121,2.1362305-0.7104492,2.8509521-1.232666   C31.3391113,45.0578613,31.5965576,46.0327148,31.6962891,47.0058594z M24.5,56.25   c-0.5638428,0-1.5200195-1.612793-1.982666-4.6311035C23.1539307,51.7016602,23.8151855,51.75,24.5,51.75   c0.6850586,0,1.3461914-0.0483398,1.982666-0.1308594C26.0200195,54.637207,25.0638428,56.25,24.5,56.25z M24.5,50.25   c-0.7666016,0-1.489502-0.0610352-2.1602783-0.1708984C22.2841797,49.4006348,22.25,48.6755371,22.25,47.8925781   c0-0.762207,0.0489502-1.5268555,0.1165771-2.2885742C23.0480957,45.6938477,23.7593994,45.75,24.5,45.75   c0.7407227,0,1.4519043-0.0561523,2.1334229-0.1459961C26.7010498,46.3657227,26.75,47.1303711,26.75,47.8925781   c0,0.7832031-0.0341797,1.5083008-0.0898438,2.1870117C25.9897461,50.1889648,25.2668457,50.25,24.5,50.25z M18.0218506,44.1030273   c0.7147217,0.5219727,1.6893311,0.9472656,2.8510742,1.2319336C20.795166,46.1811523,20.75,47.0378418,20.75,47.8925781   c0,0.6101074,0.0201416,1.2211914,0.0598145,1.8237305c-1.973877-0.6171875-3.2568359-1.6794434-3.5063477-2.7072754   C17.4030762,46.0351562,17.6604004,45.0593262,18.0218506,44.1030273z M24.5,35.9853516   c0.6303711,1.8491211,1.5219727,4.8671875,1.9689941,8.1298828C25.857666,44.1972656,25.2042236,44.25,24.5,44.25   s-1.357666-0.0527344-1.9689941-0.1345215C22.9780273,40.8527832,23.8696289,37.8344727,24.5,35.9853516z M21.0487061,43.8261719   c-1.1224365-0.296875-1.9625244-0.7131348-2.4152832-1.1464844c1.1114502-2.2724609,2.6962891-4.3447266,4.0084229-5.8498535   C22.0639648,38.6865234,21.4169922,41.1557617,21.0487061,43.8261719z M27.9512939,43.8261719   c-0.3682861-2.6706543-1.0153809-5.1396484-1.5931396-6.996582c1.3120117,1.505127,2.8967285,3.5771484,4.0080566,5.8496094   C29.9138184,43.1125488,29.0738525,43.5290527,27.9512939,43.8261719z M17.4185791,49.6691895   c0.9012451,0.7287598,2.1217041,1.3005371,3.5506592,1.6584473c0.2270508,1.739502,0.6309814,3.3161621,1.2058105,4.4736328   C19.7907715,54.8671875,17.9611816,52.5446777,17.4185791,49.6691895z M26.8249512,55.8012695   c0.574707-1.1574707,0.9786377-2.7338867,1.2056885-4.4729004c1.4293213-0.3579102,2.6494141-0.9294434,3.550415-1.657959   C31.0383301,52.5454102,29.2087402,54.8671875,26.8249512,55.8012695z M26.5407715,24.626709   c0.4775391-0.2365723,0.8896484-0.5761719,1.213623-0.9934082L42.5,38.3789062v2.2070312L26.5407715,24.626709z M44.5,23.6489258   C44.9564209,23.8674316,45.4611816,24,46,24s1.0435791-0.1325684,1.5-0.3510742V35h-1c-0.5527344,0-1,0.4472656-1,1v4   c0,0.5527344,0.4472656,1,1,1h1v20h-3V23.6489258z M78.4970703,74.1767578C77.0751953,75.1552734,75.8476562,76,73.2529297,76   c-2.59375,0-3.8212891-0.8447266-5.2421875-1.8232422C66.5292969,73.15625,64.8496094,72,61.6337891,72   c-3.2167969,0-4.8964844,1.15625-6.3789062,2.1757812C53.8339844,75.1552734,52.6054688,76,50.0107422,76   c-2.5957031,0-3.8232422-0.8447266-5.2451172-1.8232422C43.2822266,73.15625,41.6025391,72,38.3847656,72   c-3.2167969,0-4.8964844,1.15625-6.3789062,2.1757812C30.5849609,75.1552734,29.3564453,76,26.7617188,76   c-2.5966797,0-3.8261719-0.8457031-5.2490234-1.8242188C20.0302734,73.15625,18.3496094,72,15.1308594,72   c-3.0354004,0-4.699707,1.0275879-6.1231689,1.9997559L7.6328125,63H43.5h5h0.4179688   c6.3339844,0,12.5048828-2.5458984,16.9990234-7h26.7148438L81.6379395,72.4904785   C80.336792,72.9216309,79.3776855,73.5705566,78.4970703,74.1767578z"/><path d="M84.5,77c-3.1904297,0-4.8544922,1.1572266-6.3242188,2.1787109C76.7705078,80.15625,75.5566406,81,72.9941406,81   s-3.7753906-0.84375-5.1806641-1.8212891C66.3447266,78.1572266,64.6796875,77,61.4892578,77   c-3.1884766,0-4.8525391,1.1582031-6.3203125,2.1796875C53.7646484,80.15625,52.5527344,81,49.9921875,81   c-2.5615234,0-3.7753906-0.84375-5.1796875-1.8212891C43.34375,78.1572266,41.6796875,77,38.4902344,77   c-3.1875,0-4.8515625,1.1582031-6.3193359,2.1787109C30.7666016,80.15625,29.5546875,81,26.9941406,81   c-2.5595703,0-3.7724609-0.84375-5.1757812-1.8203125C20.3505859,78.1582031,18.6875,77,15.5,77c-0.5527344,0-1,0.4472656-1,1   s0.4472656,1,1,1c2.5595703,0,3.7724609,0.84375,5.1757812,1.8203125C22.1435547,81.8417969,23.8066406,83,26.9941406,83   s4.8515625-1.1582031,6.3193359-2.1787109C34.7177734,79.84375,35.9296875,79,38.4902344,79   c2.5615234,0,3.7753906,0.84375,5.1796875,1.8212891C45.1386719,81.8427734,46.8027344,83,49.9921875,83   c3.1875,0,4.8515625-1.1572266,6.3193359-2.1787109C57.7158203,79.84375,58.9287109,79,61.4892578,79   c2.5634766,0,3.7763672,0.84375,5.1816406,1.8212891C68.1396484,81.8427734,69.8046875,83,72.9941406,83   c3.1904297,0,4.8544922-1.1572266,6.3242188-2.1787109C80.7236328,79.84375,81.9375,79,84.5,79c0.5527344,0,1-0.4472656,1-1   S85.0527344,77,84.5,77z"/><path d="M82.5,63.75c1.5166016,0,2.75-1.2333984,2.75-2.75s-1.2333984-2.75-2.75-2.75s-2.75,1.2333984-2.75,2.75   S80.9833984,63.75,82.5,63.75z M82.5,59.75c0.6894531,0,1.25,0.5605469,1.25,1.25s-0.5605469,1.25-1.25,1.25   s-1.25-0.5605469-1.25-1.25S81.8105469,59.75,82.5,59.75z"/></g><text x="0.0" y="117.5" font-size="5.0" font-weight="bold" font-family="Arbeit Regular, Helvetica, Arial-Unicode, Arial, Sans-serif" fill="#000000">Created by Cloudbursts</text><text x="0.0" y="122.5" font-size="5.0" font-weight="bold" font-family="Arbeit Regular, Helvetica, Arial-Unicode, Arial, Sans-serif" fill="#000000">from Noun Project</text></svg>