<?xml version="1.0" encoding="UTF-8" standalone="no"?>
<!-- Generator: Adobe Illustrator 27.5.0, SVG Export Plug-In . SVG Version: 6.00 Build 0)  -->

<svg
   version="1.1"
   x="0px"
   y="0px"
   viewBox="0 0 31.505669 16"
   xml:space="preserve"
   id="svg757"
   sodipodi:docname="boat.svg"
   width="31.505669"
   height="16"
   inkscape:version="1.3.2 (091e20e, 2023-11-25, custom)"
   xmlns:inkscape="http://www.inkscape.org/namespaces/inkscape"
   xmlns:sodipodi="http://sodipodi.sourceforge.net/DTD/sodipodi-0.dtd"
   xmlns="http://www.w3.org/2000/svg"
   xmlns:svg="http://www.w3.org/2000/svg"><defs
   id="defs757">
	
	

	
	

	
	
	
	
	
	

		
		
		
		
	
			
			
			
			
			
			
			
		
				
				
			
					
					
				
					
					
					
				
						
						
					
				
				
			</defs><sodipodi:namedview
   id="namedview757"
   pagecolor="#ffffff"
   bordercolor="#000000"
   borderopacity="0.25"
   inkscape:showpageshadow="2"
   inkscape:pageopacity="0.0"
   inkscape:pagecheckerboard="true"
   inkscape:deskcolor="#d1d1d1"
   inkscape:zoom="38.977113"
   inkscape:cx="15.752834"
   inkscape:cy="7.9918695"
   inkscape:window-width="1920"
   inkscape:window-height="1009"
   inkscape:window-x="-8"
   inkscape:window-y="-8"
   inkscape:window-maximized="1"
   inkscape:current-layer="svg757" />

<g
   id="g413"
   transform="matrix(0.73921569,0,0,0.71031943,-71.93925,-126.42393)"
   style="stroke:#000000;stroke-width:0.180398;stroke-dasharray:none;stroke-opacity:1">
					<path
   style="fill:#898f9d;stroke:#000000;stroke-width:0.180398;stroke-dasharray:none;stroke-opacity:1"
   d="m 101.119,193.156 -1.167,6.049 c -0.038,0.197 -0.229,0.326 -0.426,0.288 -0.168,-0.032 -0.287,-0.177 -0.295,-0.341 l -0.259,-6.154 c -0.025,-0.598 0.439,-1.104 1.037,-1.129 0.599,-0.025 1.104,0.439 1.129,1.038 0.003,0.082 -0.004,0.17 -0.019,0.249 z"
   id="path408" />
					<path
   style="fill:#898f9d;stroke:#000000;stroke-width:0.180398;stroke-dasharray:none;stroke-opacity:1"
   d="m 104.679,192.072 c 0.3,0.735 -0.034,1.627 -0.744,1.982 l -3.725,1.864 c -0.71,0.355 -1.493,0.028 -1.739,-0.727 l -0.994,-3.044 c -0.247,-0.754 0.187,-1.507 0.964,-1.673 l 3.726,-0.793 c 0.777,-0.166 1.658,0.3 1.958,1.035 z"
   id="path409" />
					<g
   id="g410"
   style="stroke:#000000;stroke-width:0.180398;stroke-dasharray:none;stroke-opacity:1">
						<polygon
   style="fill:#7ad3ff;stroke:#000000;stroke-width:0.180398;stroke-dasharray:none;stroke-opacity:1"
   points="111.686,184.292 125.993,184.516 120.087,181.285 109.622,181.285 "
   id="polygon409" />
						<path
   style="fill:#ebffff;stroke:#000000;stroke-width:0.180398;stroke-dasharray:none;stroke-opacity:1"
   d="m 127.446,184.9 -15.953,-0.25 -2.557,-3.727 h 11.243 z m -15.568,-0.966 12.662,0.199 -4.545,-2.488 h -9.688 z"
   id="path410" />
					</g>
					<path
   style="fill:#ebffff;stroke:#000000;stroke-width:0.180398;stroke-dasharray:none;stroke-opacity:1"
   d="m 114.162,184.112 c -0.354,0.033 -0.749,0.173 -1.12,0.372 -0.391,-0.523 -0.832,-1.03 -1.245,-1.546 -0.482,-0.559 -0.988,-1.102 -1.481,-1.633 -0.532,-0.509 -1.026,-1.023 -1.553,-1.483 -0.545,-0.447 -1.033,-0.902 -1.559,-1.279 -0.113,-0.079 -0.223,-0.158 -0.331,-0.235 -0.182,-0.13 -0.698,-0.236 -1.15,-0.236 h -3.593 c -0.453,0 -0.662,0.113 -0.466,0.252 0.099,0.071 0.218,0.155 0.354,0.252 0.219,0.17 0.507,0.325 0.791,0.591 0.286,0.256 0.608,0.544 0.959,0.86 0.338,0.33 0.675,0.729 1.043,1.119 0.365,0.398 0.698,0.884 1.067,1.342 0.357,0.476 0.684,1.012 1.036,1.525 0.322,0.546 0.651,1.095 0.959,1.657 0.288,0.581 0.608,1.13 0.861,1.718 0.121,0.26 0.24,0.517 0.355,0.774 0.192,0.43 -0.273,1.004 -1.027,1.26 -2.897,0.983 -9.382,3.124 -9.382,3.124 -0.787,0.121 -1.145,0.801 -0.798,1.519 l 1.408,0.744 c 0.869,1.795 3.91,3.971 5.903,3.971 h 13.595 c 5.979,0 13.251,-3.609 16.241,-8.061 1.948,-2.9 3.655,-3.276 4.609,-4.696 0.445,-0.662 0.161,-1.139 -0.632,-1.065 z"
   id="path411" />
					<path
   style="fill:#ff5320;stroke:#000000;stroke-width:0.180398;stroke-dasharray:none;stroke-opacity:1"
   d="m 135.049,190.693 c 0.535,-0.792 1.05,-1.391 1.537,-1.878 -0.685,0.286 -1.4,0.568 -2.134,0.869 -0.674,0.262 -1.385,0.486 -2.1,0.739 -0.717,0.247 -1.444,0.512 -2.209,0.715 -1.516,0.437 -3.07,0.909 -4.692,1.255 -0.804,0.188 -1.616,0.376 -2.429,0.567 -0.824,0.151 -1.65,0.302 -2.477,0.453 -0.827,0.145 -1.647,0.314 -2.473,0.44 -0.83,0.112 -1.655,0.223 -2.475,0.333 -0.818,0.11 -1.628,0.219 -2.43,0.327 -0.807,0.072 -1.604,0.144 -2.388,0.214 -1.57,0.118 -3.073,0.314 -4.519,0.354 -1.439,0.063 -2.801,0.123 -4.057,0.178 -0.929,0.056 -1.803,0.063 -2.611,0.063 1.129,1.673 3.794,3.463 5.601,3.463 h 2.557 c 1.136,-0.185 2.307,-0.432 3.511,-0.637 0.793,-0.147 1.599,-0.296 2.416,-0.447 0.811,-0.186 1.631,-0.375 2.457,-0.565 0.825,-0.19 1.657,-0.382 2.493,-0.574 0.831,-0.207 1.658,-0.458 2.488,-0.685 0.828,-0.233 1.655,-0.465 2.48,-0.697 0.813,-0.271 1.623,-0.542 2.428,-0.81 1.614,-0.504 3.161,-1.136 4.659,-1.724 0.754,-0.278 1.473,-0.617 2.179,-0.936 0.704,-0.326 1.401,-0.62 2.061,-0.949 0.042,-0.025 0.084,-0.046 0.127,-0.068 z"
   id="path412" />
					<path
   style="fill:#767a82;stroke:#000000;stroke-width:0.180398;stroke-dasharray:none;stroke-opacity:1"
   d="m 98.313,198.37 c -0.224,-0.017 -0.232,-0.08 -0.021,-0.154 -0.234,-0.179 -0.462,-0.746 -0.526,-1.224 -0.079,-0.591 0.124,-0.821 0.406,-0.859 0.283,-0.037 0.538,0.132 0.618,0.723 0.058,0.438 0.003,0.983 -0.145,1.252 l 0.542,-0.164 c 0.003,0.073 0.01,0.145 0.02,0.218 0.012,0.081 0.029,0.16 0.05,0.238 l -0.576,-0.016 c 0.212,0.221 0.408,0.732 0.467,1.17 0.078,0.591 -0.124,0.821 -0.406,0.858 -0.283,0.038 -0.539,-0.132 -0.618,-0.722 -0.062,-0.479 0.01,-1.085 0.189,-1.32 z"
   id="path413" />
				</g>

</svg>
