<?xml version="1.0" encoding="UTF-8" standalone="no"?>
<svg
   width="24"
   height="24"
   viewBox="0 0 24 24"
   version="1.1"
   id="svg7"
   sodipodi:docname="reshot-icon-file-sad-64UYZ385RX.svg"
   inkscape:version="1.3.2 (091e20e, 2023-11-25, custom)"
   xmlns:inkscape="http://www.inkscape.org/namespaces/inkscape"
   xmlns:sodipodi="http://sodipodi.sourceforge.net/DTD/sodipodi-0.dtd"
   xmlns="http://www.w3.org/2000/svg"
   xmlns:svg="http://www.w3.org/2000/svg"
   xmlns:rdf="http://www.w3.org/1999/02/22-rdf-syntax-ns#"
   xmlns:cc="http://creativecommons.org/ns#"
   xmlns:dc="http://purl.org/dc/elements/1.1/">
  <sodipodi:namedview
     id="namedview7"
     pagecolor="#ffffff"
     bordercolor="#000000"
     borderopacity="0.25"
     inkscape:showpageshadow="2"
     inkscape:pageopacity="0.0"
     inkscape:pagecheckerboard="true"
     inkscape:deskcolor="#d1d1d1"
     inkscape:zoom="34.208333"
     inkscape:cx="11.985384"
     inkscape:cy="12"
     inkscape:window-width="1920"
     inkscape:window-height="1017"
     inkscape:window-x="-8"
     inkscape:window-y="-8"
     inkscape:window-maximized="1"
     inkscape:current-layer="svg7" />
  <defs
     id="defs1">
    <style
       id="style1">.cls-1{fill:#d0d7df;}.cls-2{fill:#f1f2f2;}.cls-3{fill:#fed049;}.cls-4{fill:#474c54;}</style>
  </defs>
  <title
     id="title1">20-File-Sad</title>
  <g
     id="_20-File-Sad"
     data-name="20-File-Sad"
     transform="scale(0.5)">
    <path
       class="cls-1"
       d="M 47,13 H 39 A 4,4 0 0 1 35,9 V 1 Z"
       id="path1" />
    <path
       class="cls-2"
       d="m 47,13 v 30 a 4,4 0 0 1 -4,4 H 9 C 5,47 5,43 5,43 V 5 A 4,4 0 0 1 9,1 h 26 v 8 a 4,4 0 0 0 4,4 z"
       id="path2" />
    <circle
       class="cls-3"
       cx="14"
       cy="34"
       r="13"
       id="circle2" />
    <path
       class="cls-4"
       d="m 47.707,12.293 -12,-12 A 0.975,0.975 0 0 0 35.384,0.077 0.988,0.988 0 0 0 35,0 H 9 A 5.006,5.006 0 0 0 4,5 v 13 a 1,1 0 0 0 2,0 V 5 A 3,3 0 0 1 9,2 h 25 v 7 a 5.006,5.006 0 0 0 5,5 h 2 a 1,1 0 0 0 0,-2 H 39 A 3,3 0 0 1 36,9 V 3.414 l 10,10 V 43 a 3,3 0 0 1 -3,3 H 27 a 1,1 0 0 0 0,2 h 16 a 5.006,5.006 0 0 0 5,-5 V 13 a 1,1 0 0 0 -0.293,-0.707 z"
       id="path3" />
    <path
       class="cls-4"
       d="M 14,20 A 14,14 0 1 0 28,34 14.015,14.015 0 0 0 14,20 Z m 0,26 A 12,12 0 1 1 26,34 12.013,12.013 0 0 1 14,46 Z"
       id="path4" />
    <path
       class="cls-4"
       d="m 14,33 a 7.009,7.009 0 0 0 -7,7 1,1 0 0 0 2,0 5,5 0 0 1 10,0 1,1 0 0 0 2,0 7.009,7.009 0 0 0 -7,-7 z"
       id="path5" />
    <path
       class="cls-4"
       d="m 11,31 a 1,1 0 0 0 1,-1 v -2 a 1,1 0 0 0 -2,0 v 2 a 1,1 0 0 0 1,1 z"
       id="path6" />
    <path
       class="cls-4"
       d="m 17,31 a 1,1 0 0 0 1,-1 v -2 a 1,1 0 0 0 -2,0 v 2 a 1,1 0 0 0 1,1 z"
       id="path7" />
  </g>
  <metadata
     id="metadata7">
    <rdf:RDF>
      <cc:Work
         rdf:about="">
        <dc:title>20-File-Sad</dc:title>
      </cc:Work>
    </rdf:RDF>
  </metadata>
</svg>
