<?xml version="1.0" encoding="UTF-8" standalone="no"?>
<!-- Generator: Adobe Illustrator 27.5.0, SVG Export Plug-In . SVG Version: 6.00 Build 0)  -->

<svg
   version="1.1"
   x="0px"
   y="0px"
   viewBox="0 0 24 24"
   xml:space="preserve"
   id="svg757"
   sodipodi:docname="insurance-policies.svg"
   width="24"
   height="24"
   inkscape:version="1.3.2 (091e20e, 2023-11-25, custom)"
   xmlns:inkscape="http://www.inkscape.org/namespaces/inkscape"
   xmlns:sodipodi="http://sodipodi.sourceforge.net/DTD/sodipodi-0.dtd"
   xmlns="http://www.w3.org/2000/svg"
   xmlns:svg="http://www.w3.org/2000/svg"><defs
   id="defs757">
	
	

	
	

	
	
	
	
	
	

		
		
		
		
	
			
			
			
			
			
			
			
		
				
				
			
					
					
				
					
					
					
				
						
						
					
				
				
			</defs><sodipodi:namedview
   id="namedview757"
   pagecolor="#ffffff"
   bordercolor="#000000"
   borderopacity="0.25"
   inkscape:showpageshadow="2"
   inkscape:pageopacity="0.0"
   inkscape:pagecheckerboard="true"
   inkscape:deskcolor="#d1d1d1"
   inkscape:zoom="33.875"
   inkscape:cx="11.98524"
   inkscape:cy="12"
   inkscape:window-width="1920"
   inkscape:window-height="1009"
   inkscape:window-x="-8"
   inkscape:window-y="-8"
   inkscape:window-maximized="1"
   inkscape:current-layer="svg757" />

<g
   id="g761"
   transform="matrix(0.44179167,0,0,0.42452184,34.134521,-37.613784)"><g
     id="g760"
     transform="translate(-13.837638,4.9815498)"><g
       id="g757"
       transform="matrix(0.56160333,0,0,0.56160333,-9.0746941,41.011144)"><g
         id="g336"
         transform="translate(-164.11439,7.7490775)">
							<path
   style="fill:#ffce8b"
   d="m 91.329,80.05 c 0,0 3.859,-0.962 11.423,0.132 5.517,0.798 5.718,2.432 12.01,3.688 6.271,1.252 12.596,1.384 16.621,0.732 3.723,-0.603 5.179,-1.032 4.859,-2.641 -0.25,-1.251 -4.432,-0.675 -7.763,-1.192 -4.642,-0.72 -5.683,-2.824 -5.683,-2.824 0,0 5.524,-0.381 8.101,0.181 2.96,0.645 3.882,1.032 6.518,2.43 1.813,0.963 3.837,2.761 5.876,2.284 1.327,-0.31 1.484,-1.606 -2.669,-4.639 -3.325,-2.431 -6.172,-3.796 -9.663,-5.222 -4.242,-1.733 -7.739,-2.344 -12.436,-1.626 -4.267,0.653 -7.361,1.626 -15.179,1.624 -4.59,-0.001 -11.913,-2.352 -13.36,-2.343 -1.449,0.01 -1.23,9.375 1.345,9.416 z"
   id="path332" />
							<g
   id="g334">
								<path
   style="fill:#ffa932"
   d="m 143.291,82.84 c -2.04,0.477 -4.063,-1.321 -5.876,-2.284 -2.636,-1.399 -3.558,-1.785 -6.518,-2.43 -2.577,-0.562 -8.101,-0.181 -8.101,-0.181 0,0 0.628,1.253 3.049,2.157 -0.005,0 -0.009,0 -0.012,0 -3.464,0.108 -5.605,-3.043 -4.592,-3.363 1.013,-0.32 7.363,-0.854 10.992,0.335 3.628,1.189 6.403,2.92 8.696,4.888 1.347,1.156 2.36,0.953 2.969,0.59 -0.146,0.134 -0.356,0.229 -0.607,0.288 z"
   id="path333" />
								<path
   style="fill:#ffa932"
   d="m 102.819,80.193 c -0.613,-2.654 0.25,-5.576 1.25,-7.222 1.074,-0.009 2.062,-0.035 2.969,-0.078 1.363,1.777 2.979,4.947 4.489,5.979 2.189,1.494 4.91,2.294 8.484,3.842 3.575,1.548 12.861,1.227 14.834,0.533 0.63,-0.221 1.076,-0.41 1.389,-0.596 -0.229,1.054 -1.737,1.447 -4.852,1.951 -4.025,0.652 -10.35,0.52 -16.621,-0.732 -6.264,-1.25 -6.494,-2.875 -11.942,-3.677 z"
   id="path334" />
							</g>
							<rect
   x="89.865997"
   y="69.647003"
   style="fill:#fcfcfc"
   width="16.174999"
   height="14.852"
   id="rect334" />
							<polygon
   style="fill:#dddddd"
   points="91.467,69.647 91.467,80.947 91.467,84.499 100.498,84.499 106.041,84.499 106.041,80.947 100.498,80.947 100.498,69.647 "
   id="polygon334" />
							<rect
   x="87.144997"
   y="68.123001"
   style="fill:#175b82"
   width="11.951"
   height="17.899"
   id="rect335" />
							<rect
   x="87.144997"
   y="81.960999"
   style="fill:#0f3e5f"
   width="11.951"
   height="4.0609999"
   id="rect336" />
							<path
   style="fill:#ffffff"
   d="m 104.387,72.978 c 0,0.727 -0.59,1.315 -1.316,1.315 -0.727,0 -1.316,-0.588 -1.316,-1.315 0,-0.727 0.589,-1.316 1.316,-1.316 0.726,0 1.316,0.59 1.316,1.316 z"
   id="path336" />
						</g></g></g></g><g
   id="g759"
   transform="matrix(0.44179167,0,0,0.42452184,36.652606,-55.678677)"><g
     id="g758"
     transform="matrix(0.56159618,0,0,0.56159618,-31.49419,77.877351)"><g
       id="g341"
       transform="translate(-161.34686,39.852399)">
							<path
   style="fill:#ffce8b"
   d="m 142.306,143.758 c 0,0 -3.862,0.962 -11.425,-0.132 -5.516,-0.798 -5.715,-2.432 -12.008,-3.689 -6.273,-1.252 -12.596,-1.384 -16.622,-0.732 -3.722,0.603 -5.177,1.032 -4.857,2.641 0.248,1.251 4.429,0.675 7.763,1.192 4.642,0.72 5.682,2.824 5.682,2.824 0,0 -5.525,0.381 -8.104,-0.181 -2.959,-0.645 -3.882,-1.032 -6.517,-2.43 -1.815,-0.963 -3.837,-2.761 -5.876,-2.284 -1.327,0.31 -1.483,1.606 2.669,4.64 3.326,2.43 6.173,3.796 9.664,5.222 4.242,1.733 7.736,2.344 12.434,1.626 4.268,-0.653 7.361,-1.626 15.178,-1.624 4.591,0.001 11.913,2.352 13.361,2.343 1.45,-0.01 1.232,-9.375 -1.342,-9.416 z"
   id="path337" />
							<g
   id="g339">
								<path
   style="fill:#ffa932"
   d="m 89.558,141.527 c 0.31,0.415 0.753,0.86 1.323,1.321 2.281,1.839 11.445,8.482 18.168,7.962 6.723,-0.52 13.566,-0.16 15.367,-3.201 0.897,-1.514 2.356,-3.346 3.629,-4.577 0.788,0.226 1.694,0.429 2.836,0.594 0.03,0.004 0.059,0.008 0.089,0.012 0.594,2.033 1.481,5.189 0.458,7.239 -0.392,-0.027 -0.777,-0.046 -1.139,-0.046 -7.817,-10e-4 -10.91,0.972 -15.178,1.624 -4.698,0.719 -8.192,0.108 -12.434,-1.626 -3.492,-1.426 -6.338,-2.792 -9.664,-5.222 -2.921,-2.132 -3.705,-3.404 -3.455,-4.08 z"
   id="path338" />
								<path
   style="fill:#ffa932"
   d="m 105.234,145.953 c 2.61,0.116 5.606,-0.09 5.606,-0.09 0,0 -1.04,-2.104 -5.682,-2.824 -3.334,-0.517 -7.516,0.058 -7.763,-1.192 -0.01,-0.049 -0.002,-0.088 -0.01,-0.135 0.725,0.279 1.776,0.495 3.301,0.375 3.562,-0.28 13.606,0.88 13.806,3.121 0.155,1.744 -4.78,1.738 -9.258,0.745 z"
   id="path339" />
							</g>
							<rect
   x="127.593"
   y="139.31"
   style="fill:#fcfcfc"
   width="16.176001"
   height="14.852"
   id="rect339" />
							<polygon
   style="fill:#dddddd"
   points="142.168,154.162 133.137,154.162 127.593,154.162 127.593,150.61 133.137,150.61 133.137,139.31 142.168,139.31 142.168,150.61 "
   id="polygon339" />
							<rect
   x="134.53799"
   y="137.786"
   style="fill:#175b82"
   width="11.951"
   height="17.899"
   id="rect340" />
							<rect
   x="134.53799"
   y="151.62399"
   style="fill:#0f3e5f"
   width="11.951"
   height="4.0599999"
   id="rect341" />
							<path
   style="fill:#ffffff"
   d="m 129.247,142.641 c 0,0.727 0.59,1.315 1.316,1.315 0.727,0 1.314,-0.588 1.314,-1.315 0,-0.727 -0.588,-1.316 -1.314,-1.316 -0.726,0.001 -1.316,0.59 -1.316,1.316 z"
   id="path341" />
						</g></g></g><g
   id="g413"
   transform="matrix(0.56549334,0,0,0.54338796,-55.083374,-90.833185)"
   style="stroke:#000000;stroke-opacity:1;stroke-width:0.1803978;stroke-dasharray:none">
					<path
   style="fill:#898f9d;stroke:#000000;stroke-opacity:1;stroke-width:0.1803978;stroke-dasharray:none"
   d="m 101.119,193.156 -1.167,6.049 c -0.038,0.197 -0.229,0.326 -0.426,0.288 -0.168,-0.032 -0.287,-0.177 -0.295,-0.341 l -0.259,-6.154 c -0.025,-0.598 0.439,-1.104 1.037,-1.129 0.599,-0.025 1.104,0.439 1.129,1.038 0.003,0.082 -0.004,0.17 -0.019,0.249 z"
   id="path408" />
					<path
   style="fill:#898f9d;stroke:#000000;stroke-opacity:1;stroke-width:0.1803978;stroke-dasharray:none"
   d="m 104.679,192.072 c 0.3,0.735 -0.034,1.627 -0.744,1.982 l -3.725,1.864 c -0.71,0.355 -1.493,0.028 -1.739,-0.727 l -0.994,-3.044 c -0.247,-0.754 0.187,-1.507 0.964,-1.673 l 3.726,-0.793 c 0.777,-0.166 1.658,0.3 1.958,1.035 z"
   id="path409" />
					<g
   id="g410"
   style="stroke:#000000;stroke-opacity:1;stroke-width:0.1803978;stroke-dasharray:none">
						<polygon
   style="fill:#7ad3ff;stroke:#000000;stroke-opacity:1;stroke-width:0.1803978;stroke-dasharray:none"
   points="109.622,181.285 111.686,184.292 125.993,184.516 120.087,181.285 "
   id="polygon409" />
						<path
   style="fill:#ebffff;stroke:#000000;stroke-opacity:1;stroke-width:0.1803978;stroke-dasharray:none"
   d="m 127.446,184.9 -15.953,-0.25 -2.557,-3.727 h 11.243 z m -15.568,-0.966 12.662,0.199 -4.545,-2.488 h -9.688 z"
   id="path410" />
					</g>
					<path
   style="fill:#ebffff;stroke:#000000;stroke-opacity:1;stroke-width:0.1803978;stroke-dasharray:none"
   d="m 114.162,184.112 c -0.354,0.033 -0.749,0.173 -1.12,0.372 -0.391,-0.523 -0.832,-1.03 -1.245,-1.546 -0.482,-0.559 -0.988,-1.102 -1.481,-1.633 -0.532,-0.509 -1.026,-1.023 -1.553,-1.483 -0.545,-0.447 -1.033,-0.902 -1.559,-1.279 -0.113,-0.079 -0.223,-0.158 -0.331,-0.235 -0.182,-0.13 -0.698,-0.236 -1.15,-0.236 h -3.593 c -0.453,0 -0.662,0.113 -0.466,0.252 0.099,0.071 0.218,0.155 0.354,0.252 0.219,0.17 0.507,0.325 0.791,0.591 0.286,0.256 0.608,0.544 0.959,0.86 0.338,0.33 0.675,0.729 1.043,1.119 0.365,0.398 0.698,0.884 1.067,1.342 0.357,0.476 0.684,1.012 1.036,1.525 0.322,0.546 0.651,1.095 0.959,1.657 0.288,0.581 0.608,1.13 0.861,1.718 0.121,0.26 0.24,0.517 0.355,0.774 0.192,0.43 -0.273,1.004 -1.027,1.26 -2.897,0.983 -9.382,3.124 -9.382,3.124 -0.787,0.121 -1.145,0.801 -0.798,1.519 l 1.408,0.744 c 0.869,1.795 3.91,3.971 5.903,3.971 h 13.595 c 5.979,0 13.251,-3.609 16.241,-8.061 1.948,-2.9 3.655,-3.276 4.609,-4.696 0.445,-0.662 0.161,-1.139 -0.632,-1.065 z"
   id="path411" />
					<path
   style="fill:#ff5320;stroke:#000000;stroke-opacity:1;stroke-width:0.1803978;stroke-dasharray:none"
   d="m 135.049,190.693 c 0.535,-0.792 1.05,-1.391 1.537,-1.878 -0.685,0.286 -1.4,0.568 -2.134,0.869 -0.674,0.262 -1.385,0.486 -2.1,0.739 -0.717,0.247 -1.444,0.512 -2.209,0.715 -1.516,0.437 -3.07,0.909 -4.692,1.255 -0.804,0.188 -1.616,0.376 -2.429,0.567 -0.824,0.151 -1.65,0.302 -2.477,0.453 -0.827,0.145 -1.647,0.314 -2.473,0.44 -0.83,0.112 -1.655,0.223 -2.475,0.333 -0.818,0.11 -1.628,0.219 -2.43,0.327 -0.807,0.072 -1.604,0.144 -2.388,0.214 -1.57,0.118 -3.073,0.314 -4.519,0.354 -1.439,0.063 -2.801,0.123 -4.057,0.178 -0.929,0.056 -1.803,0.063 -2.611,0.063 1.129,1.673 3.794,3.463 5.601,3.463 h 2.557 c 1.136,-0.185 2.307,-0.432 3.511,-0.637 0.793,-0.147 1.599,-0.296 2.416,-0.447 0.811,-0.186 1.631,-0.375 2.457,-0.565 0.825,-0.19 1.657,-0.382 2.493,-0.574 0.831,-0.207 1.658,-0.458 2.488,-0.685 0.828,-0.233 1.655,-0.465 2.48,-0.697 0.813,-0.271 1.623,-0.542 2.428,-0.81 1.614,-0.504 3.161,-1.136 4.659,-1.724 0.754,-0.278 1.473,-0.617 2.179,-0.936 0.704,-0.326 1.401,-0.62 2.061,-0.949 0.042,-0.025 0.084,-0.046 0.127,-0.068 z"
   id="path412" />
					<path
   style="fill:#767a82;stroke:#000000;stroke-opacity:1;stroke-width:0.1803978;stroke-dasharray:none"
   d="m 98.313,198.37 c -0.224,-0.017 -0.232,-0.08 -0.021,-0.154 -0.234,-0.179 -0.462,-0.746 -0.526,-1.224 -0.079,-0.591 0.124,-0.821 0.406,-0.859 0.283,-0.037 0.538,0.132 0.618,0.723 0.058,0.438 0.003,0.983 -0.145,1.252 l 0.542,-0.164 c 0.003,0.073 0.01,0.145 0.02,0.218 0.012,0.081 0.029,0.16 0.05,0.238 l -0.576,-0.016 c 0.212,0.221 0.408,0.732 0.467,1.17 0.078,0.591 -0.124,0.821 -0.406,0.858 -0.283,0.038 -0.539,-0.132 -0.618,-0.722 -0.062,-0.479 0.01,-1.085 0.189,-1.32 z"
   id="path413" />
				</g>

</svg>
