<?xml version="1.0" encoding="UTF-8" standalone="no"?>
<!-- Generator: Adobe Illustrator 27.5.0, SVG Export Plug-In . SVG Version: 6.00 Build 0)  -->

<svg
   version="1.1"
   x="0px"
   y="0px"
   viewBox="0 0 24 24"
   xml:space="preserve"
   id="svg95"
   sodipodi:docname="leases.svg"
   width="24"
   height="24"
   inkscape:version="1.3.2 (091e20e, 2023-11-25, custom)"
   xmlns:inkscape="http://www.inkscape.org/namespaces/inkscape"
   xmlns:sodipodi="http://sodipodi.sourceforge.net/DTD/sodipodi-0.dtd"
   xmlns="http://www.w3.org/2000/svg"
   xmlns:svg="http://www.w3.org/2000/svg"><defs
   id="defs95">
	
	
	
		
	
	

	

	
</defs><sodipodi:namedview
   id="namedview95"
   pagecolor="#ffffff"
   bordercolor="#000000"
   borderopacity="0.25"
   inkscape:showpageshadow="2"
   inkscape:pageopacity="0.0"
   inkscape:pagecheckerboard="true"
   inkscape:deskcolor="#d1d1d1"
   inkscape:zoom="33.875"
   inkscape:cx="12"
   inkscape:cy="12"
   inkscape:window-width="1920"
   inkscape:window-height="1009"
   inkscape:window-x="-8"
   inkscape:window-y="-8"
   inkscape:window-maximized="1"
   inkscape:current-layer="svg95" />

<g
   id="g96"
   transform="scale(0.08245876,0.06788431)"><g
     id="g95"
     transform="translate(-118.84,-75.519)"><g
       id="g17">
		<path
   style="opacity:0;fill:#229da8"
   d="m 242.003,98.768 c 5.587,0 10.124,4.534 10.122,10.124 0.002,5.595 -4.533,10.129 -10.12,10.13 -5.597,10e-4 -10.129,-4.535 -10.131,-10.129 0,-5.591 4.537,-10.127 10.129,-10.125 z m 109.908,23.28 h -41.108 l 2.473,-6.095 c 1.517,-3.739 -1.234,-7.823 -5.269,-7.823 H 265.333 C 265.279,95.272 254.866,84.881 242,84.881 c -12.863,0 -23.283,10.39 -23.336,23.248 L 176,108.128 c -4.034,0 -6.785,4.084 -5.269,7.823 l 2.472,6.096 h -41.104 c -7.292,0 -13.258,5.972 -13.259,13.269 v 280.489 c -0.001,7.296 5.967,13.254 13.259,13.255 l 96.65,10e-4 c 7.286,0.001 19.225,0.001 26.52,-10e-4 l 96.64,10e-4 c 7.29,0 13.255,-5.959 13.256,-13.255 l 10e-4,-280.49 c -10e-4,-7.296 -5.967,-13.267 -13.255,-13.268 z"
   id="path1" />
		<path
   style="opacity:0.0625;fill:#229da8"
   d="m 242.587,98.185 c 5.587,-0.001 10.123,4.534 10.122,10.124 0.002,5.595 -4.533,10.129 -10.12,10.13 -5.597,0.001 -10.129,-4.535 -10.131,-10.129 -0.001,-5.592 4.536,-10.127 10.129,-10.125 z m 109.907,23.28 h -41.108 l 2.473,-6.095 c 1.517,-3.739 -1.234,-7.823 -5.269,-7.823 H 265.916 C 265.863,94.69 255.451,84.299 242.584,84.299 c -12.863,0 -23.283,10.39 -23.336,23.248 l -42.663,-10e-4 c -4.034,0 -6.785,4.084 -5.269,7.823 l 2.472,6.096 h -41.104 c -7.292,0 -13.258,5.972 -13.259,13.269 v 280.489 c -10e-4,7.296 5.967,13.254 13.259,13.255 h 96.65 c 7.286,10e-4 19.225,10e-4 26.52,-0.001 l 96.64,0.001 c 7.29,0 13.255,-5.959 13.256,-13.255 l 10e-4,-280.49 c -0.003,-7.297 -5.969,-13.267 -13.257,-13.268 z"
   id="path2" />
		<path
   style="opacity:0.125;fill:#229da8"
   d="m 243.17,97.601 c 5.587,0 10.123,4.534 10.122,10.124 0.002,5.595 -4.533,10.129 -10.12,10.13 -5.597,10e-4 -10.129,-4.535 -10.131,-10.129 -0.001,-5.591 4.537,-10.126 10.129,-10.125 z m 109.907,23.28 h -41.108 l 2.473,-6.095 c 1.517,-3.739 -1.234,-7.823 -5.269,-7.823 h -42.674 c -0.053,-12.857 -10.466,-23.248 -23.332,-23.248 -12.863,0 -23.283,10.39 -23.336,23.248 l -42.663,-10e-4 c -4.034,0 -6.785,4.084 -5.269,7.823 l 2.472,6.096 h -41.104 c -7.292,0 -13.258,5.972 -13.259,13.269 v 280.489 c -10e-4,7.296 5.967,13.254 13.259,13.255 l 96.65,10e-4 c 7.286,0.001 19.225,0.001 26.52,-10e-4 l 96.64,10e-4 c 7.29,0 13.255,-5.959 13.256,-13.255 l 10e-4,-280.49 c -0.003,-7.297 -5.969,-13.268 -13.257,-13.269 z"
   id="path3" />
		<path
   style="opacity:0.1875;fill:#229da8"
   d="m 243.753,97.018 c 5.587,0 10.124,4.534 10.122,10.124 0.002,5.595 -4.533,10.129 -10.12,10.13 -5.597,10e-4 -10.129,-4.535 -10.131,-10.129 0,-5.591 4.537,-10.127 10.129,-10.125 z m 109.908,23.28 h -41.108 l 2.473,-6.095 c 1.517,-3.739 -1.234,-7.823 -5.269,-7.823 H 267.083 C 267.03,93.523 256.618,83.132 243.751,83.132 c -12.863,0 -23.283,10.39 -23.336,23.248 l -42.663,-10e-4 c -4.034,0 -6.785,4.084 -5.269,7.823 l 2.472,6.096 h -41.104 c -7.292,0 -13.258,5.972 -13.259,13.269 v 280.489 c -0.001,7.296 5.967,13.254 13.259,13.255 l 96.65,0.001 c 7.286,10e-4 19.225,10e-4 26.52,-0.001 l 96.64,0.001 c 7.29,0 13.255,-5.959 13.256,-13.255 l 0.001,-280.49 c -0.003,-7.297 -5.969,-13.268 -13.257,-13.269 z"
   id="path4" />
		<path
   style="opacity:0.25;fill:#229da8"
   d="m 244.337,96.435 c 5.587,-0.001 10.123,4.534 10.122,10.124 0.002,5.595 -4.533,10.129 -10.12,10.13 -5.597,0.001 -10.129,-4.535 -10.131,-10.129 -0.001,-5.592 4.536,-10.127 10.129,-10.125 z m 109.907,23.28 h -41.108 l 2.473,-6.095 c 1.517,-3.739 -1.234,-7.823 -5.269,-7.823 H 267.666 C 267.613,92.94 257.201,82.549 244.334,82.549 c -12.863,0 -23.283,10.39 -23.336,23.248 l -42.663,-10e-4 c -4.034,0 -6.785,4.084 -5.269,7.823 l 2.472,6.096 h -41.104 c -7.292,0 -13.258,5.972 -13.259,13.269 v 280.489 c -10e-4,7.296 5.967,13.254 13.259,13.255 h 96.65 c 7.286,10e-4 19.225,10e-4 26.52,-0.001 l 96.64,0.001 c 7.29,0 13.255,-5.959 13.256,-13.255 l 10e-4,-280.49 c -0.003,-7.297 -5.969,-13.267 -13.257,-13.268 z"
   id="path5" />
		<path
   style="opacity:0.3125;fill:#229da8"
   d="m 244.92,95.851 c 5.587,0 10.123,4.534 10.122,10.124 0.002,5.595 -4.533,10.129 -10.12,10.13 -5.597,10e-4 -10.129,-4.535 -10.131,-10.129 -0.001,-5.591 4.537,-10.126 10.129,-10.125 z m 109.907,23.28 h -41.108 l 2.473,-6.095 c 1.517,-3.739 -1.234,-7.823 -5.269,-7.823 h -42.674 c -0.053,-12.857 -10.466,-23.248 -23.332,-23.248 -12.863,0 -23.283,10.39 -23.336,23.248 l -42.663,-10e-4 c -4.034,0 -6.785,4.084 -5.269,7.823 l 2.472,6.096 h -41.104 c -7.292,0 -13.258,5.972 -13.259,13.269 v 280.489 c -10e-4,7.296 5.967,13.254 13.259,13.255 l 96.65,10e-4 c 7.286,0.001 19.225,0.001 26.52,-10e-4 l 96.64,10e-4 c 7.29,0 13.255,-5.959 13.256,-13.255 l 10e-4,-280.49 c -0.003,-7.297 -5.969,-13.268 -13.257,-13.269 z"
   id="path6" />
		<path
   style="opacity:0.375;fill:#229da8"
   d="m 245.503,95.268 c 5.587,0 10.124,4.534 10.122,10.124 0.002,5.595 -4.533,10.129 -10.12,10.13 -5.597,10e-4 -10.129,-4.535 -10.131,-10.129 0,-5.591 4.537,-10.127 10.129,-10.125 z m 109.908,23.28 h -41.108 l 2.473,-6.095 c 1.517,-3.739 -1.234,-7.823 -5.269,-7.823 H 268.833 C 268.78,91.773 258.367,81.382 245.501,81.382 c -12.863,0 -23.283,10.39 -23.336,23.248 l -42.663,-10e-4 c -4.034,0 -6.785,4.084 -5.269,7.823 l 2.472,6.096 h -41.104 c -7.292,0 -13.258,5.972 -13.259,13.269 v 280.489 c -0.001,7.296 5.967,13.254 13.259,13.255 l 96.65,0.001 c 7.286,10e-4 19.225,10e-4 26.52,-0.001 l 96.64,0.001 c 7.29,0 13.255,-5.959 13.256,-13.255 l 0.001,-280.49 c -0.003,-7.297 -5.969,-13.268 -13.257,-13.269 z"
   id="path7" />
		<path
   style="opacity:0.4375;fill:#229da8"
   d="m 246.087,94.685 c 5.587,-0.001 10.123,4.534 10.122,10.124 0.002,5.595 -4.533,10.129 -10.12,10.13 -5.597,0.001 -10.129,-4.535 -10.131,-10.129 -0.001,-5.592 4.536,-10.127 10.129,-10.125 z m 109.907,23.28 h -41.108 l 2.473,-6.095 c 1.517,-3.739 -1.234,-7.823 -5.269,-7.823 H 269.416 C 269.363,91.19 258.951,80.799 246.084,80.799 c -12.863,0 -23.283,10.39 -23.336,23.248 l -42.663,-10e-4 c -4.034,0 -6.785,4.084 -5.269,7.823 l 2.472,6.096 h -41.104 c -7.292,0 -13.258,5.972 -13.259,13.269 v 280.489 c -10e-4,7.296 5.967,13.254 13.259,13.255 h 96.65 c 7.286,10e-4 19.225,10e-4 26.52,-0.001 l 96.64,0.001 c 7.29,0 13.255,-5.959 13.256,-13.255 l 10e-4,-280.49 c -0.003,-7.297 -5.969,-13.267 -13.257,-13.268 z"
   id="path8" />
		<path
   style="opacity:0.5;fill:#229da8"
   d="m 246.67,94.101 c 5.587,0 10.123,4.534 10.122,10.124 0.002,5.595 -4.533,10.129 -10.12,10.13 -5.597,10e-4 -10.129,-4.535 -10.131,-10.129 -0.001,-5.591 4.537,-10.126 10.129,-10.125 z m 109.907,23.28 h -41.108 l 2.473,-6.095 c 1.517,-3.739 -1.234,-7.823 -5.269,-7.823 h -42.674 c -0.053,-12.857 -10.466,-23.248 -23.332,-23.248 -12.863,0 -23.283,10.39 -23.336,23.248 l -42.663,-10e-4 c -4.034,0 -6.785,4.084 -5.269,7.823 l 2.472,6.096 h -41.104 c -7.292,0 -13.258,5.972 -13.259,13.269 v 280.489 c -10e-4,7.296 5.967,13.254 13.259,13.255 l 96.65,10e-4 c 7.286,0.001 19.225,0.001 26.52,-10e-4 l 96.64,10e-4 c 7.29,0 13.255,-5.959 13.256,-13.255 l 10e-4,-280.49 c -0.003,-7.297 -5.969,-13.268 -13.257,-13.269 z"
   id="path9" />
		<path
   style="opacity:0.5625;fill:#229da8"
   d="m 247.253,93.518 c 5.587,0 10.124,4.534 10.122,10.124 0.002,5.595 -4.533,10.129 -10.12,10.13 -5.597,10e-4 -10.129,-4.535 -10.131,-10.129 0,-5.591 4.537,-10.127 10.129,-10.125 z m 109.908,23.28 h -41.108 l 2.473,-6.095 c 1.517,-3.739 -1.234,-7.823 -5.269,-7.823 H 270.583 C 270.53,90.023 260.117,79.632 247.251,79.632 c -12.863,0 -23.283,10.39 -23.336,23.248 l -42.663,-10e-4 c -4.034,0 -6.785,4.084 -5.269,7.823 l 2.472,6.096 h -41.104 c -7.292,0 -13.258,5.972 -13.259,13.269 v 280.489 c -0.001,7.296 5.967,13.254 13.259,13.255 l 96.65,0.001 c 7.286,10e-4 19.225,10e-4 26.52,-0.001 l 96.64,0.001 c 7.29,0 13.255,-5.959 13.256,-13.255 l 0.001,-280.49 c -0.003,-7.297 -5.969,-13.268 -13.257,-13.269 z"
   id="path10" />
		<path
   style="opacity:0.625;fill:#229da8"
   d="m 247.837,92.935 c 5.587,-0.001 10.123,4.534 10.122,10.124 0.002,5.595 -4.533,10.129 -10.12,10.13 -5.597,0.001 -10.129,-4.535 -10.131,-10.129 -0.001,-5.592 4.536,-10.127 10.129,-10.125 z m 109.907,23.28 h -41.108 l 2.473,-6.095 c 1.517,-3.739 -1.234,-7.823 -5.269,-7.823 H 271.166 C 271.113,89.44 260.701,79.049 247.834,79.049 c -12.863,0 -23.283,10.39 -23.336,23.248 l -42.663,-10e-4 c -4.034,0 -6.785,4.084 -5.269,7.823 l 2.472,6.096 h -41.104 c -7.292,0 -13.258,5.972 -13.259,13.269 v 280.489 c -10e-4,7.296 5.967,13.254 13.259,13.255 h 96.65 c 7.286,10e-4 19.225,10e-4 26.52,-0.001 l 96.64,0.001 c 7.29,0 13.255,-5.959 13.256,-13.255 l 10e-4,-280.49 c -0.003,-7.297 -5.969,-13.267 -13.257,-13.268 z"
   id="path11" />
		<path
   style="opacity:0.6875;fill:#229da8"
   d="m 248.42,92.351 c 5.587,0 10.123,4.534 10.122,10.124 0.002,5.595 -4.533,10.129 -10.12,10.13 -5.597,10e-4 -10.129,-4.535 -10.131,-10.129 -0.001,-5.591 4.537,-10.126 10.129,-10.125 z m 109.907,23.28 h -41.108 l 2.473,-6.095 c 1.517,-3.739 -1.234,-7.823 -5.269,-7.823 h -42.674 c -0.053,-12.857 -10.466,-23.248 -23.332,-23.248 -12.863,0 -23.283,10.39 -23.336,23.248 l -42.663,-10e-4 c -4.034,0 -6.785,4.084 -5.269,7.823 l 2.472,6.096 h -41.104 c -7.292,0 -13.258,5.972 -13.259,13.269 v 280.489 c -10e-4,7.296 5.967,13.254 13.259,13.255 l 96.65,10e-4 c 7.286,0.001 19.225,0.001 26.52,-10e-4 l 96.64,10e-4 c 7.29,0 13.255,-5.959 13.256,-13.255 l 10e-4,-280.49 c -0.003,-7.297 -5.969,-13.268 -13.257,-13.269 z"
   id="path12" />
		<path
   style="opacity:0.75;fill:#229da8"
   d="m 249.003,91.768 c 5.587,-0.001 10.124,4.534 10.122,10.124 0.002,5.595 -4.533,10.129 -10.12,10.13 -5.597,10e-4 -10.129,-4.535 -10.131,-10.129 0,-5.591 4.537,-10.127 10.129,-10.125 z m 109.908,23.28 h -41.108 l 2.473,-6.095 c 1.517,-3.739 -1.234,-7.823 -5.269,-7.823 H 272.333 C 272.279,88.272 261.866,77.881 249,77.881 c -12.863,0 -23.283,10.39 -23.336,23.248 L 183,101.128 c -4.034,0 -6.785,4.084 -5.269,7.823 l 2.472,6.096 h -41.104 c -7.292,0 -13.258,5.972 -13.259,13.269 v 280.489 c -0.001,7.296 5.967,13.254 13.259,13.255 l 96.65,10e-4 c 7.286,0.001 19.225,0.001 26.52,-10e-4 l 96.64,10e-4 c 7.29,0 13.255,-5.959 13.256,-13.255 l 10e-4,-280.49 c -10e-4,-7.296 -5.967,-13.267 -13.255,-13.268 z"
   id="path13" />
		<path
   style="opacity:0.8125;fill:#229da8"
   d="m 249.587,91.185 c 5.587,-0.001 10.123,4.534 10.122,10.124 0.002,5.595 -4.533,10.129 -10.12,10.13 -5.597,0.001 -10.129,-4.535 -10.131,-10.129 -0.001,-5.592 4.536,-10.127 10.129,-10.125 z m 109.907,23.28 h -41.108 l 2.473,-6.095 c 1.517,-3.739 -1.234,-7.823 -5.269,-7.823 H 272.916 C 272.863,87.69 262.451,77.299 249.584,77.299 c -12.863,0 -23.283,10.39 -23.336,23.248 l -42.663,-10e-4 c -4.034,0 -6.785,4.084 -5.269,7.823 l 2.472,6.096 h -41.104 c -7.292,0 -13.258,5.972 -13.259,13.269 v 280.489 c -10e-4,7.296 5.967,13.254 13.259,13.255 h 96.65 c 7.286,10e-4 19.225,10e-4 26.52,-0.001 l 96.64,0.001 c 7.29,0 13.255,-5.959 13.256,-13.255 l 10e-4,-280.49 c -0.003,-7.297 -5.969,-13.267 -13.257,-13.268 z"
   id="path14" />
		<path
   style="opacity:0.875;fill:#229da8"
   d="m 250.17,90.601 c 5.587,0 10.123,4.534 10.122,10.124 0.002,5.595 -4.533,10.129 -10.12,10.13 -5.597,10e-4 -10.129,-4.535 -10.131,-10.129 -0.001,-5.591 4.537,-10.126 10.129,-10.125 z m 109.907,23.28 h -41.108 l 2.473,-6.095 c 1.517,-3.739 -1.234,-7.823 -5.269,-7.823 h -42.674 c -0.053,-12.857 -10.466,-23.248 -23.332,-23.248 -12.863,0 -23.283,10.39 -23.336,23.248 l -42.663,-10e-4 c -4.034,0 -6.785,4.084 -5.269,7.823 l 2.472,6.096 h -41.104 c -7.292,0 -13.258,5.972 -13.259,13.269 v 280.489 c -10e-4,7.296 5.967,13.254 13.259,13.255 l 96.65,10e-4 c 7.286,0.001 19.225,0.001 26.52,-10e-4 l 96.64,10e-4 c 7.29,0 13.255,-5.959 13.256,-13.255 l 10e-4,-280.49 c -0.003,-7.297 -5.969,-13.268 -13.257,-13.269 z"
   id="path15" />
		<path
   style="opacity:0.9375;fill:#229da8"
   d="m 250.753,90.018 c 5.587,-0.001 10.124,4.534 10.122,10.124 0.002,5.595 -4.533,10.129 -10.12,10.13 -5.597,10e-4 -10.129,-4.535 -10.131,-10.129 0,-5.591 4.537,-10.127 10.129,-10.125 z m 109.908,23.28 h -41.108 l 2.473,-6.095 c 1.517,-3.739 -1.234,-7.823 -5.269,-7.823 H 274.083 C 274.03,86.523 263.617,76.132 250.751,76.132 c -12.863,0 -23.283,10.39 -23.336,23.248 l -42.663,-10e-4 c -4.034,0 -6.785,4.084 -5.269,7.823 l 2.472,6.096 h -41.104 c -7.292,0 -13.258,5.972 -13.259,13.269 v 280.489 c -0.001,7.296 5.967,13.254 13.259,13.255 l 96.65,0.001 c 7.286,10e-4 19.225,10e-4 26.52,-0.001 l 96.64,0.001 c 7.29,0 13.255,-5.959 13.256,-13.255 l 0.001,-280.49 c -0.003,-7.297 -5.969,-13.268 -13.257,-13.269 z"
   id="path16" />
		<path
   style="fill:#229da8"
   d="m 251.337,89.435 c 5.587,-0.001 10.124,4.534 10.122,10.124 0.002,5.595 -4.533,10.129 -10.12,10.13 -5.597,0.001 -10.129,-4.535 -10.131,-10.129 -0.001,-5.592 4.536,-10.127 10.129,-10.125 z m 109.907,23.28 h -41.108 l 2.473,-6.095 c 1.517,-3.739 -1.234,-7.823 -5.269,-7.823 H 274.666 C 274.613,85.94 264.201,75.549 251.334,75.549 c -12.863,0 -23.283,10.39 -23.336,23.248 l -42.663,-10e-4 c -4.034,0 -6.785,4.084 -5.269,7.823 l 2.472,6.096 h -41.104 c -7.292,0 -13.258,5.972 -13.259,13.269 v 280.489 c -0.001,7.296 5.967,13.254 13.259,13.255 h 96.65 c 7.286,10e-4 19.225,10e-4 26.52,-0.001 l 96.64,0.001 c 7.29,0 13.255,-5.959 13.256,-13.255 l 10e-4,-280.49 c -0.003,-7.297 -5.969,-13.267 -13.257,-13.268 z"
   id="path17" />
	</g><g
       id="g34">
		<path
   style="opacity:0;fill:#229da8"
   d="m 400.237,237.921 c -0.674,-13.252 -5.279,-18.453 -9.318,-19.392 -0.103,-3.275 -0.18,-5.506 -0.195,-6.441 -0.029,-1.798 -9.528,-2.251 -9.621,-0.315 0,0 -0.94,14.659 -1.66,34.121 -0.114,3.08 -0.222,6.281 -0.321,9.562 -0.325,10.843 -0.539,22.572 -0.477,33.78 0.117,21.045 1.63,45.008 3.159,61.219 0.596,6.324 1.195,11.47 1.715,14.799 0.109,1.122 0.523,1.982 1.078,1.982 0.555,0 0.868,-1.134 1.008,-1.993 0.504,-3.326 1.09,-8.466 1.692,-14.817 1.532,-16.153 3.171,-40.131 3.856,-61.992 0.362,-11.537 0.464,-22.824 0.433,-33.044 -0.01,-3.309 -0.035,-6.503 -0.069,-9.56 -0.043,-3.814 -0.102,-7.407 -0.168,-10.732 2.319,-0.157 6.182,0.48 6.881,7.361 0.757,7.455 -0.522,31.633 -0.952,47.47 -4.33,2.426 2.948,16.789 2.909,9.589 -0.039,-7.2 0.761,-47.618 0.05,-61.597 z"
   id="path18" />
		<path
   style="opacity:0.0625;fill:#229da8"
   d="m 400.821,237.337 c -0.674,-13.252 -5.279,-18.453 -9.318,-19.392 -0.103,-3.275 -0.18,-5.506 -0.195,-6.441 -0.029,-1.798 -9.528,-2.251 -9.621,-0.315 0,0 -0.94,14.659 -1.66,34.121 -0.114,3.08 -0.222,6.281 -0.321,9.562 -0.325,10.843 -0.539,22.573 -0.477,33.78 0.117,21.045 1.63,45.008 3.159,61.219 0.596,6.324 1.195,11.47 1.715,14.799 0.109,1.122 0.523,1.982 1.078,1.982 0.555,0 0.873,-1.133 1.008,-1.992 0.522,-3.323 1.09,-8.465 1.692,-14.817 1.532,-16.153 3.171,-40.131 3.856,-61.992 0.362,-11.538 0.464,-22.824 0.432,-33.044 -0.01,-3.309 -0.035,-6.503 -0.069,-9.56 -0.043,-3.814 -0.102,-7.407 -0.168,-10.732 2.319,-0.157 6.182,0.48 6.881,7.361 0.757,7.455 -0.522,31.633 -0.952,47.47 -4.33,2.426 2.948,16.789 2.91,9.589 -0.04,-7.201 0.761,-47.618 0.05,-61.598 z"
   id="path19" />
		<path
   style="opacity:0.125;fill:#229da8"
   d="m 401.404,236.754 c -0.674,-13.252 -5.279,-18.453 -9.318,-19.392 -0.103,-3.275 -0.18,-5.506 -0.195,-6.441 -0.029,-1.798 -9.528,-2.251 -9.621,-0.315 0,0 -0.94,14.659 -1.66,34.121 -0.114,3.08 -0.222,6.281 -0.321,9.562 -0.325,10.843 -0.539,22.572 -0.477,33.78 0.117,21.045 1.63,45.008 3.159,61.219 0.596,6.324 1.195,11.47 1.715,14.799 0.109,1.122 0.523,1.982 1.078,1.982 0.555,0 0.873,-1.133 1.008,-1.993 0.522,-3.323 1.09,-8.465 1.692,-14.817 1.532,-16.153 3.171,-40.131 3.856,-61.992 0.362,-11.538 0.464,-22.824 0.432,-33.044 -0.01,-3.309 -0.035,-6.503 -0.069,-9.56 -0.043,-3.814 -0.102,-7.407 -0.168,-10.732 2.318,-0.157 6.182,0.48 6.881,7.361 0.757,7.454 -0.522,31.633 -0.952,47.47 -4.33,2.426 2.948,16.789 2.91,9.589 -0.04,-7.2 0.761,-47.617 0.05,-61.597 z"
   id="path20" />
		<path
   style="opacity:0.1875;fill:#229da8"
   d="m 401.987,236.171 c -0.674,-13.252 -5.279,-18.453 -9.318,-19.392 -0.103,-3.275 -0.18,-5.506 -0.195,-6.441 -0.029,-1.798 -9.528,-2.251 -9.621,-0.315 0,0 -0.94,14.659 -1.66,34.121 -0.114,3.08 -0.222,6.281 -0.321,9.562 -0.325,10.843 -0.539,22.572 -0.477,33.78 0.117,21.045 1.63,45.008 3.159,61.219 0.596,6.324 1.195,11.47 1.715,14.799 0.109,1.122 0.523,1.982 1.078,1.982 0.555,0 0.873,-1.133 1.008,-1.993 0.522,-3.323 1.09,-8.466 1.692,-14.817 1.532,-16.153 3.171,-40.131 3.856,-61.992 0.362,-11.537 0.464,-22.824 0.433,-33.044 -0.01,-3.309 -0.035,-6.503 -0.069,-9.56 -0.043,-3.814 -0.102,-7.407 -0.168,-10.732 2.319,-0.157 6.182,0.48 6.881,7.361 0.757,7.455 -0.522,31.633 -0.952,47.47 -4.33,2.426 2.948,16.789 2.909,9.589 -0.039,-7.2 0.761,-47.618 0.05,-61.597 z"
   id="path21" />
		<path
   style="opacity:0.25;fill:#229da8"
   d="m 402.571,235.587 c -0.674,-13.252 -5.279,-18.453 -9.318,-19.392 -0.103,-3.275 -0.18,-5.506 -0.195,-6.441 -0.029,-1.798 -9.528,-2.251 -9.621,-0.315 0,0 -0.94,14.659 -1.66,34.121 -0.114,3.08 -0.222,6.281 -0.321,9.562 -0.325,10.843 -0.539,22.573 -0.477,33.78 0.117,21.045 1.63,45.008 3.159,61.219 0.596,6.324 1.195,11.47 1.715,14.799 0.109,1.122 0.523,1.982 1.078,1.982 0.555,0 0.873,-1.133 1.008,-1.992 0.522,-3.323 1.09,-8.465 1.692,-14.817 1.532,-16.153 3.171,-40.131 3.856,-61.992 0.362,-11.538 0.464,-22.824 0.432,-33.044 -0.01,-3.309 -0.035,-6.503 -0.069,-9.56 -0.043,-3.814 -0.102,-7.407 -0.168,-10.732 2.319,-0.157 6.182,0.48 6.881,7.361 0.757,7.455 -0.522,31.633 -0.952,47.47 -4.33,2.426 2.948,16.789 2.91,9.589 -0.04,-7.201 0.761,-47.618 0.05,-61.598 z"
   id="path22" />
		<path
   style="opacity:0.3125;fill:#229da8"
   d="m 403.154,235.004 c -0.674,-13.252 -5.279,-18.453 -9.318,-19.392 -0.103,-3.275 -0.18,-5.506 -0.195,-6.441 -0.029,-1.798 -9.528,-2.251 -9.621,-0.315 0,0 -0.94,14.659 -1.66,34.121 -0.114,3.08 -0.222,6.281 -0.321,9.562 -0.325,10.843 -0.539,22.572 -0.477,33.78 0.117,21.045 1.63,45.008 3.159,61.219 0.596,6.324 1.195,11.47 1.715,14.799 0.109,1.122 0.523,1.982 1.078,1.982 0.555,0 0.873,-1.133 1.008,-1.993 0.522,-3.323 1.09,-8.465 1.692,-14.817 1.532,-16.153 3.171,-40.131 3.856,-61.992 0.362,-11.538 0.464,-22.824 0.432,-33.044 -0.01,-3.309 -0.035,-6.503 -0.069,-9.56 -0.043,-3.814 -0.102,-7.407 -0.168,-10.732 2.318,-0.157 6.182,0.48 6.881,7.361 0.757,7.454 -0.522,31.633 -0.952,47.47 -4.33,2.426 2.948,16.789 2.91,9.589 -0.04,-7.2 0.761,-47.617 0.05,-61.597 z"
   id="path23" />
		<path
   style="opacity:0.375;fill:#229da8"
   d="m 403.737,234.421 c -0.674,-13.252 -5.279,-18.453 -9.318,-19.392 -0.103,-3.275 -0.18,-5.506 -0.195,-6.441 -0.029,-1.798 -9.528,-2.251 -9.621,-0.315 0,0 -0.94,14.659 -1.66,34.121 -0.114,3.08 -0.222,6.281 -0.321,9.562 -0.325,10.843 -0.539,22.572 -0.477,33.78 0.117,21.045 1.63,45.008 3.159,61.219 0.596,6.324 1.195,11.47 1.715,14.799 0.109,1.122 0.523,1.982 1.078,1.982 0.555,0 0.873,-1.133 1.008,-1.993 0.522,-3.323 1.09,-8.466 1.692,-14.817 1.532,-16.153 3.171,-40.131 3.856,-61.992 0.361,-11.537 0.464,-22.824 0.432,-33.044 -0.01,-3.309 -0.035,-6.503 -0.069,-9.56 -0.043,-3.814 -0.102,-7.407 -0.168,-10.732 2.319,-0.157 6.182,0.48 6.881,7.361 0.757,7.455 -0.522,31.633 -0.952,47.47 -4.33,2.426 2.948,16.789 2.909,9.589 -0.038,-7.2 0.762,-47.618 0.051,-61.597 z"
   id="path24" />
		<path
   style="opacity:0.4375;fill:#229da8"
   d="m 404.321,233.837 c -0.674,-13.252 -5.279,-18.453 -9.318,-19.392 -0.103,-3.275 -0.18,-5.506 -0.195,-6.441 -0.029,-1.798 -9.528,-2.251 -9.621,-0.315 0,0 -0.94,14.659 -1.66,34.121 -0.114,3.08 -0.222,6.281 -0.321,9.562 -0.325,10.843 -0.539,22.573 -0.477,33.78 0.117,21.045 1.63,45.008 3.159,61.219 0.596,6.324 1.195,11.47 1.715,14.799 0.109,1.122 0.523,1.982 1.078,1.982 0.555,0 0.873,-1.133 1.008,-1.992 0.522,-3.323 1.09,-8.465 1.692,-14.817 1.532,-16.153 3.171,-40.131 3.856,-61.992 0.362,-11.538 0.464,-22.824 0.432,-33.044 -0.01,-3.309 -0.035,-6.503 -0.069,-9.56 -0.043,-3.814 -0.102,-7.407 -0.168,-10.732 2.319,-0.157 6.182,0.48 6.881,7.361 0.757,7.455 -0.522,31.633 -0.952,47.47 -4.33,2.426 2.948,16.789 2.91,9.589 -0.04,-7.201 0.761,-47.618 0.05,-61.598 z"
   id="path25" />
		<path
   style="opacity:0.5;fill:#229da8"
   d="m 404.904,233.254 c -0.674,-13.252 -5.279,-18.453 -9.318,-19.392 -0.103,-3.275 -0.18,-5.506 -0.195,-6.441 -0.029,-1.798 -9.528,-2.251 -9.621,-0.315 0,0 -0.94,14.659 -1.66,34.121 -0.114,3.08 -0.222,6.281 -0.321,9.562 -0.325,10.843 -0.539,22.572 -0.477,33.78 0.117,21.045 1.63,45.008 3.159,61.219 0.596,6.324 1.195,11.47 1.715,14.799 0.109,1.122 0.523,1.982 1.078,1.982 0.555,0 0.873,-1.133 1.008,-1.993 0.522,-3.323 1.09,-8.465 1.692,-14.817 1.532,-16.153 3.171,-40.131 3.856,-61.992 0.362,-11.538 0.464,-22.824 0.432,-33.044 -0.01,-3.309 -0.035,-6.503 -0.069,-9.56 -0.043,-3.814 -0.102,-7.407 -0.168,-10.732 2.318,-0.157 6.182,0.48 6.881,7.361 0.757,7.454 -0.522,31.633 -0.952,47.47 -4.33,2.426 2.948,16.789 2.91,9.589 -0.04,-7.2 0.761,-47.617 0.05,-61.597 z"
   id="path26" />
		<path
   style="opacity:0.5625;fill:#229da8"
   d="m 405.487,232.671 c -0.674,-13.252 -5.279,-18.453 -9.318,-19.392 -0.103,-3.275 -0.18,-5.506 -0.195,-6.441 -0.029,-1.798 -9.528,-2.251 -9.621,-0.315 0,0 -0.94,14.659 -1.66,34.121 -0.114,3.08 -0.222,6.281 -0.321,9.562 -0.325,10.843 -0.539,22.572 -0.477,33.78 0.117,21.045 1.63,45.008 3.159,61.219 0.596,6.324 1.195,11.47 1.715,14.799 0.109,1.122 0.523,1.982 1.078,1.982 0.555,0 0.873,-1.133 1.008,-1.993 0.522,-3.323 1.09,-8.466 1.692,-14.817 1.532,-16.153 3.171,-40.131 3.856,-61.992 0.361,-11.537 0.464,-22.824 0.432,-33.044 -0.01,-3.309 -0.035,-6.503 -0.069,-9.56 -0.043,-3.814 -0.102,-7.407 -0.168,-10.732 2.319,-0.157 6.182,0.48 6.881,7.361 0.757,7.455 -0.522,31.633 -0.952,47.47 -4.33,2.426 2.948,16.789 2.909,9.589 -0.038,-7.2 0.762,-47.618 0.051,-61.597 z"
   id="path27" />
		<path
   style="opacity:0.625;fill:#229da8"
   d="m 406.071,232.087 c -0.674,-13.252 -5.279,-18.453 -9.318,-19.392 -0.103,-3.275 -0.18,-5.506 -0.195,-6.441 -0.029,-1.798 -9.528,-2.251 -9.621,-0.315 0,0 -0.94,14.659 -1.66,34.121 -0.114,3.08 -0.222,6.281 -0.321,9.562 -0.325,10.843 -0.539,22.573 -0.477,33.78 0.117,21.045 1.63,45.008 3.159,61.219 0.596,6.324 1.195,11.47 1.715,14.799 0.109,1.122 0.523,1.982 1.078,1.982 0.555,0 0.873,-1.133 1.008,-1.992 0.522,-3.323 1.09,-8.465 1.692,-14.817 1.532,-16.153 3.171,-40.131 3.856,-61.992 0.362,-11.538 0.464,-22.824 0.432,-33.044 -0.01,-3.309 -0.035,-6.503 -0.069,-9.56 -0.043,-3.814 -0.102,-7.407 -0.168,-10.732 2.319,-0.157 6.182,0.48 6.881,7.361 0.757,7.455 -0.522,31.633 -0.952,47.47 -4.33,2.426 2.948,16.789 2.91,9.589 -0.04,-7.201 0.761,-47.618 0.05,-61.598 z"
   id="path28" />
		<path
   style="opacity:0.6875;fill:#229da8"
   d="m 406.654,231.504 c -0.674,-13.252 -5.279,-18.453 -9.318,-19.392 -0.103,-3.275 -0.18,-5.506 -0.195,-6.441 -0.029,-1.798 -9.528,-2.251 -9.621,-0.315 0,0 -0.94,14.659 -1.66,34.121 -0.114,3.08 -0.222,6.281 -0.321,9.562 -0.325,10.843 -0.539,22.572 -0.477,33.78 0.117,21.045 1.63,45.008 3.159,61.219 0.596,6.324 1.195,11.47 1.715,14.799 0.109,1.122 0.523,1.982 1.078,1.982 0.555,0 0.873,-1.133 1.008,-1.993 0.522,-3.323 1.09,-8.465 1.692,-14.817 1.532,-16.153 3.171,-40.131 3.856,-61.992 0.362,-11.538 0.464,-22.824 0.432,-33.044 -0.01,-3.309 -0.035,-6.503 -0.069,-9.56 -0.043,-3.814 -0.102,-7.407 -0.168,-10.732 2.318,-0.157 6.182,0.48 6.881,7.361 0.757,7.455 -0.522,31.633 -0.952,47.47 -4.33,2.426 2.948,16.789 2.91,9.589 -0.04,-7.2 0.761,-47.617 0.05,-61.597 z"
   id="path29" />
		<path
   style="opacity:0.75;fill:#229da8"
   d="m 407.237,230.921 c -0.674,-13.252 -5.279,-18.453 -9.318,-19.392 -0.103,-3.275 -0.18,-5.506 -0.195,-6.441 -0.029,-1.798 -9.528,-2.251 -9.621,-0.315 0,0 -0.94,14.659 -1.66,34.121 -0.114,3.08 -0.222,6.281 -0.321,9.562 -0.325,10.843 -0.539,22.572 -0.477,33.78 0.117,21.045 1.63,45.008 3.159,61.219 0.596,6.324 1.195,11.47 1.715,14.799 0.109,1.122 0.523,1.982 1.078,1.982 0.555,0 0.873,-1.133 1.008,-1.992 0.522,-3.323 1.09,-8.466 1.692,-14.817 1.532,-16.153 3.171,-40.131 3.856,-61.992 0.361,-11.537 0.464,-22.824 0.432,-33.044 -0.01,-3.309 -0.035,-6.503 -0.069,-9.56 -0.043,-3.814 -0.102,-7.407 -0.168,-10.732 2.319,-0.157 6.182,0.48 6.881,7.361 0.757,7.455 -0.522,31.633 -0.952,47.47 -4.33,2.426 2.948,16.789 2.909,9.589 -0.038,-7.201 0.762,-47.619 0.051,-61.598 z"
   id="path30" />
		<path
   style="opacity:0.8125;fill:#229da8"
   d="m 407.821,230.337 c -0.674,-13.252 -5.279,-18.453 -9.318,-19.392 -0.103,-3.275 -0.18,-5.506 -0.195,-6.441 -0.029,-1.798 -9.528,-2.251 -9.621,-0.315 0,0 -0.94,14.659 -1.66,34.121 -0.114,3.08 -0.222,6.281 -0.321,9.562 -0.325,10.843 -0.539,22.573 -0.477,33.78 0.117,21.045 1.63,45.008 3.159,61.219 0.596,6.324 1.195,11.47 1.715,14.799 0.109,1.122 0.523,1.982 1.078,1.982 0.555,0 0.873,-1.133 1.008,-1.992 0.522,-3.323 1.09,-8.465 1.692,-14.817 1.532,-16.153 3.171,-40.131 3.856,-61.992 0.362,-11.538 0.464,-22.824 0.432,-33.044 -0.01,-3.309 -0.035,-6.503 -0.069,-9.56 -0.043,-3.814 -0.102,-7.407 -0.168,-10.732 2.319,-0.157 6.182,0.48 6.881,7.361 0.757,7.455 -0.522,31.633 -0.952,47.47 -4.33,2.426 2.948,16.789 2.91,9.589 -0.04,-7.201 0.761,-47.618 0.05,-61.598 z"
   id="path31" />
		<path
   style="opacity:0.875;fill:#229da8"
   d="m 408.404,229.754 c -0.674,-13.252 -5.279,-18.453 -9.318,-19.392 -0.103,-3.275 -0.18,-5.506 -0.195,-6.441 -0.029,-1.798 -9.528,-2.251 -9.621,-0.315 0,0 -0.94,14.659 -1.66,34.121 -0.114,3.08 -0.222,6.281 -0.321,9.562 -0.325,10.843 -0.539,22.572 -0.477,33.78 0.117,21.045 1.63,45.008 3.159,61.219 0.596,6.324 1.195,11.47 1.715,14.799 0.109,1.122 0.523,1.982 1.078,1.982 0.555,0 0.873,-1.133 1.008,-1.993 0.522,-3.323 1.09,-8.465 1.692,-14.817 1.532,-16.153 3.171,-40.131 3.856,-61.992 0.362,-11.538 0.464,-22.824 0.432,-33.044 -0.01,-3.309 -0.035,-6.503 -0.069,-9.56 -0.043,-3.814 -0.102,-7.407 -0.168,-10.732 2.318,-0.157 6.182,0.48 6.881,7.361 0.757,7.455 -0.522,31.633 -0.952,47.47 -4.33,2.426 2.948,16.789 2.91,9.589 -0.04,-7.2 0.761,-47.617 0.05,-61.597 z"
   id="path32" />
		<path
   style="opacity:0.9375;fill:#229da8"
   d="m 408.987,229.171 c -0.674,-13.252 -5.279,-18.453 -9.318,-19.392 -0.103,-3.275 -0.18,-5.506 -0.195,-6.441 -0.029,-1.798 -9.528,-2.251 -9.621,-0.315 0,0 -0.94,14.659 -1.66,34.121 -0.114,3.08 -0.222,6.281 -0.321,9.562 -0.325,10.843 -0.539,22.572 -0.477,33.78 0.117,21.045 1.63,45.008 3.159,61.219 0.596,6.324 1.195,11.47 1.715,14.799 0.109,1.122 0.523,1.982 1.078,1.982 0.555,0 0.873,-1.133 1.008,-1.992 0.522,-3.323 1.09,-8.466 1.692,-14.817 1.532,-16.153 3.171,-40.131 3.856,-61.992 0.361,-11.537 0.464,-22.824 0.432,-33.044 -0.01,-3.309 -0.035,-6.503 -0.069,-9.56 -0.043,-3.814 -0.102,-7.407 -0.168,-10.732 2.319,-0.157 6.182,0.48 6.881,7.361 0.757,7.455 -0.522,31.633 -0.952,47.47 -4.33,2.426 2.948,16.789 2.909,9.589 -0.038,-7.201 0.762,-47.619 0.051,-61.598 z"
   id="path33" />
		<path
   style="fill:#229da8"
   d="m 409.571,228.587 c -0.674,-13.252 -5.279,-18.453 -9.318,-19.392 -0.103,-3.275 -0.18,-5.506 -0.195,-6.441 -0.029,-1.798 -9.528,-2.251 -9.621,-0.315 0,0 -0.94,14.659 -1.66,34.121 -0.114,3.08 -0.222,6.281 -0.321,9.562 -0.325,10.843 -0.539,22.573 -0.477,33.78 0.117,21.045 1.63,45.008 3.159,61.219 0.596,6.324 1.195,11.47 1.715,14.799 0.109,1.122 0.523,1.982 1.078,1.982 0.555,0 0.868,-1.134 1.008,-1.992 0.505,-3.326 1.09,-8.465 1.692,-14.817 1.532,-16.153 3.171,-40.131 3.856,-61.992 0.362,-11.538 0.464,-22.824 0.432,-33.044 -0.01,-3.309 -0.035,-6.503 -0.069,-9.56 -0.043,-3.814 -0.102,-7.407 -0.168,-10.732 2.319,-0.157 6.182,0.48 6.881,7.361 0.757,7.455 -0.522,31.633 -0.952,47.47 -4.33,2.426 2.948,16.789 2.91,9.589 -0.04,-7.201 0.761,-47.618 0.05,-61.598 z"
   id="path34" />
	</g><g
       id="g75">
		<g
   id="g49">
			<g
   id="g48">
				<g
   id="g47">
					<g
   id="g37">
						<g
   id="g36">
							<g
   id="g35">
								<path
   style="fill:#185655"
   d="m 264.631,112.686 c -7.294,0 -19.233,0 -26.518,-0.001 l -96.652,0.001 c -7.292,0 -13.258,5.972 -13.259,13.269 v 280.489 c -0.001,7.296 5.967,13.254 13.259,13.255 l 96.65,10e-4 c 7.286,0.001 19.225,0.001 26.52,-10e-4 l 96.64,10e-4 c 7.29,0 13.255,-5.959 13.256,-13.255 l 0.001,-280.49 c -0.001,-7.296 -5.967,-13.266 -13.255,-13.268 z"
   id="path35" />
							</g>
						</g>
					</g>
					<g
   id="g46">
						<g
   id="g45">
							<g
   id="g44">
								<g
   id="g43">
									<g
   id="g42">
										<g
   id="g41">
											<g
   id="g40">
												<g
   id="g39">
													<g
   id="g38">
														<path
   style="fill:#ffffff"
   d="m 343.709,131.612 -184.695,0.008 c -6.116,-0.001 -11.139,5.009 -11.141,11.137 l 0.001,246.416 c 0,6.127 5.024,11.136 11.14,11.139 h 184.687 c 6.117,-0.002 11.136,-5.01 11.134,-11.14 l -10e-4,-202.028 0.015,-44.399 c 0,-6.122 -5.015,-11.133 -11.14,-11.133 z"
   id="path37" />
													</g>
												</g>
											</g>
										</g>
									</g>
								</g>
							</g>
						</g>
					</g>
				</g>
			</g>
		</g>
		<g
   id="g52">
			<path
   style="fill:#ffd500"
   d="M 274.694,98.767 C 274.641,85.91 264.228,75.519 251.362,75.519 c -12.863,0 -23.283,10.39 -23.336,23.248 l -42.663,-10e-4 c -4.034,0 -6.785,4.084 -5.269,7.823 l 10.873,26.811 c 2.953,7.281 10.025,12.044 17.882,12.044 l 85.031,0.001 c 7.856,0 14.928,-4.763 17.881,-12.043 l 10.877,-26.812 c 1.517,-3.739 -1.234,-7.823 -5.269,-7.823 z m -23.327,10.893 c -5.597,0.001 -10.129,-4.535 -10.131,-10.129 0,-5.591 4.537,-10.126 10.13,-10.125 5.587,0 10.123,4.534 10.122,10.124 10e-4,5.595 -4.534,10.129 -10.121,10.13 z"
   id="path49" />
			<g
   id="g51">
				<g
   id="g50">
					<path
   style="fill:#e0a126"
   d="m 293.874,145.445 -85.021,-0.001 c -7.859,0 -14.933,-4.766 -17.884,-12.05 l -0.722,-1.782 h 122.235 l -0.724,1.785 c -2.952,7.283 -10.026,12.048 -17.884,12.048 z"
   id="path50" />
				</g>
			</g>
		</g>
		<g
   id="g54">
			<g
   id="g53">
				<polygon
   style="fill:#d8d8d8"
   points="329.146,239.56 173.596,239.56 173.583,236.498 329.144,236.498 "
   id="polygon52" />
			</g>
		</g>
		<g
   id="g56">
			<g
   id="g55">
				<path
   style="fill:#44c68b"
   d="m 182.683,232.962 -9.1,-8.711 3.4,-3.551 5.549,5.311 9.102,-9.492 3.551,3.401 z"
   id="path54" />
			</g>
		</g>
		<g
   id="g58">
			<g
   id="g57">
				<polygon
   style="fill:#d8d8d8"
   points="329.146,280.988 173.596,280.988 173.583,277.926 329.144,277.926 "
   id="polygon56" />
			</g>
		</g>
		<g
   id="g60">
			<g
   id="g59">
				<path
   style="fill:#44c68b"
   d="m 182.683,274.39 -9.1,-8.711 3.4,-3.551 5.549,5.311 9.102,-9.492 3.551,3.401 z"
   id="path58" />
			</g>
		</g>
		<g
   id="g62">
			<g
   id="g61">
				<polygon
   style="fill:#d8d8d8"
   points="329.146,322.416 173.596,322.415 173.583,319.353 329.144,319.354 "
   id="polygon60" />
			</g>
		</g>
		<g
   id="g64">
			<g
   id="g63">
				<path
   style="fill:#44c68b"
   d="m 182.683,315.817 -9.1,-8.711 3.4,-3.551 5.549,5.311 9.102,-9.492 3.551,3.401 z"
   id="path62" />
			</g>
		</g>
		<g
   id="g66">
			<g
   id="g65">
				<polygon
   style="fill:#d8d8d8"
   points="329.146,363.843 173.596,363.843 173.583,360.781 329.144,360.781 "
   id="polygon64" />
			</g>
		</g>
		<g
   id="g68">
			<g
   id="g67">
				<path
   style="fill:#44c68b"
   d="m 182.683,357.245 -9.1,-8.711 3.4,-3.551 5.549,5.311 9.102,-9.492 3.551,3.401 z"
   id="path66" />
			</g>
		</g>
		<text
   transform="translate(170.5928,187.3652)"
   style="font-size:22.1449px;font-family:Raleway-Black;fill:#bebfbf"
   id="text68">REGISTRATION</text>
		<text
   transform="translate(202.9746,227.9751)"
   id="text69"><tspan
     x="0"
     y="0"
     style="font-size:11.6954px;font-family:Raleway-Bold;fill:#949595"
     id="tspan68">LOREM</tspan><tspan
     x="40.594002"
     y="0"
     style="font-size:11.6954px;font-family:Raleway-Medium;fill:#bebfbf"
     id="tspan69"> IPSUM</tspan></text>
		<text
   transform="translate(202.9746,269.7734)"
   id="text71"><tspan
     x="0"
     y="0"
     style="font-size:11.6954px;font-family:Raleway-Bold;fill:#949595"
     id="tspan70">LOREM</tspan><tspan
     x="40.594002"
     y="0"
     style="font-size:11.6954px;font-family:Raleway-Medium;fill:#bebfbf"
     id="tspan71"> IPSUM</tspan></text>
		<text
   transform="translate(202.9746,310.6338)"
   id="text73"><tspan
     x="0"
     y="0"
     style="font-size:11.6954px;font-family:Raleway-Bold;fill:#949595"
     id="tspan72">LOREM</tspan><tspan
     x="40.594002"
     y="0"
     style="font-size:11.6954px;font-family:Raleway-Medium;fill:#bebfbf"
     id="tspan73"> IPSUM</tspan></text>
		<text
   transform="translate(202.9746,354.3125)"
   id="text75"><tspan
     x="0"
     y="0"
     style="font-size:11.6954px;font-family:Raleway-Bold;fill:#949595"
     id="tspan74">LOREM</tspan><tspan
     x="40.594002"
     y="0"
     style="font-size:11.6954px;font-family:Raleway-Medium;fill:#bebfbf"
     id="tspan75"> IPSUM</tspan></text>
	</g><g
       id="g85">
		<path
   style="fill:#ffd500"
   d="m 399.62,209.042 c 4.181,0.509 9.268,5.537 9.979,19.517 0.711,13.98 -0.089,54.397 -0.051,61.598 0.039,7.201 -7.24,-7.162 -2.91,-9.589 0.43,-15.838 1.708,-40.016 0.952,-47.47 -0.757,-7.455 -5.233,-7.583 -7.43,-7.31 -0.694,-2.83 -0.54,-16.746 -0.54,-16.746 z"
   id="path75" />
		<path
   style="fill:#002928"
   d="m 400.085,202.726 c -0.029,-1.798 -9.528,-2.251 -9.621,-0.315 0,0 -0.94,14.659 -1.66,34.121 l 12.073,-0.063 c -0.202,-17.953 -0.748,-31.084 -0.792,-33.743 z"
   id="path76" />
		<path
   style="fill:#002928"
   d="m 393.958,357.875 c 0.555,0 0.868,-1.134 1.008,-1.993 l -2.086,0.011 c 0.109,1.122 0.523,1.982 1.078,1.982 z"
   id="path77" />
		<path
   style="fill:#002928"
   d="m 400.947,246.029 -12.463,0.065 c -0.325,10.843 -0.539,22.572 -0.477,33.78 0.117,21.045 1.63,45.008 3.159,61.219 l 5.493,-0.029 c 1.532,-16.153 3.171,-40.131 3.856,-61.992 0.361,-11.536 0.464,-22.822 0.432,-33.043 z"
   id="path78" />
		<path
   style="fill:#ffd500"
   d="m 400.878,236.469 -12.073,0.063 c -0.114,3.08 -0.222,6.281 -0.321,9.562 l 12.463,-0.065 c -0.01,-3.308 -0.035,-6.503 -0.069,-9.56 z"
   id="path79" />
		<path
   style="fill:#ffd500"
   d="m 392.88,355.893 2.086,-0.011 c 0.505,-3.326 1.09,-8.465 1.692,-14.817 l -5.493,0.029 c 0.597,6.324 1.196,11.47 1.715,14.799 z"
   id="path80" />
		<g
   id="g84">
			<path
   style="fill:#002928"
   d="m 394,201.169 c -1.888,0.065 -3.497,0.452 -3.535,1.242 0,0 -0.94,14.659 -1.66,34.121 l 5.196,-0.027 v -35.336 z"
   id="path81" />
			<path
   style="fill:#002928"
   d="m 394,246.066 -5.516,0.029 c -0.325,10.843 -0.539,22.572 -0.477,33.78 0.117,21.045 1.63,45.008 3.159,61.219 l 2.835,-0.015 v -95.013 z"
   id="path82" />
			<path
   style="fill:#ffd500"
   d="m 394,236.505 -5.196,0.027 c -0.114,3.08 -0.222,6.281 -0.321,9.562 l 5.516,-0.029 v -9.56 z"
   id="path83" />
			<path
   style="fill:#ffd500"
   d="m 391.165,341.094 c 0.596,6.324 1.195,11.47 1.715,14.799 l 1.12,-0.006 v -14.808 z"
   id="path84" />
		</g>
	</g></g></g>

</svg>
