<?xml version="1.0" encoding="UTF-8" standalone="no"?>
<!-- Uploaded to: SVG Repo, www.svgrepo.com, Generator: SVG Repo Mixer Tools -->

<svg
   width="23.999998"
   height="24"
   viewBox="0 0 3.8399996 3.84"
   aria-hidden="true"
   role="img"
   class="iconify iconify--noto"
   preserveAspectRatio="xMidYMid"
   version="1.1"
   id="svg8"
   sodipodi:docname="money-bag.svg"
   inkscape:version="1.3.2 (091e20e, 2023-11-25, custom)"
   xmlns:inkscape="http://www.inkscape.org/namespaces/inkscape"
   xmlns:sodipodi="http://sodipodi.sourceforge.net/DTD/sodipodi-0.dtd"
   xmlns="http://www.w3.org/2000/svg"
   xmlns:svg="http://www.w3.org/2000/svg">
  <defs
     id="defs8" />
  <sodipodi:namedview
     id="namedview8"
     pagecolor="#ffffff"
     bordercolor="#000000"
     borderopacity="0.25"
     inkscape:showpageshadow="2"
     inkscape:pageopacity="0.0"
     inkscape:pagecheckerboard="true"
     inkscape:deskcolor="#d1d1d1"
     inkscape:zoom="49.208333"
     inkscape:cx="11.989839"
     inkscape:cy="12"
     inkscape:window-width="2560"
     inkscape:window-height="1377"
     inkscape:window-x="-8"
     inkscape:window-y="-8"
     inkscape:window-maximized="1"
     inkscape:current-layer="svg8" />
  <g
     fill="none"
     id="g8"
     transform="matrix(0.0357938,0,0,0.0320001,-0.37079519,-0.1279147)">
    <path
       d="m 93.46,39.45 c 6.71,-1.49 15.45,-8.15 16.78,-11.43 0.78,-1.92 -3.11,-4.92 -4.15,-6.13 -2.38,-2.76 -1.42,-4.12 -0.5,-7.41 1.05,-3.74 -1.44,-7.87 -4.97,-9.49 C 97.09,3.37 92.87,3.88 89.32,5.46 85.77,7.04 82.74,9.58 79.77,12.08 77.6,10.71 74.14,4.66 68.54,8.59 c -3.87,2.71 -4.22,8.61 -3.72,13.32 1.17,10.87 3.85,16.51 8.9,18.03 6.38,1.92 13.44,0.91 19.74,-0.49 z"
       fill="#ffca28"
       id="path1" />
    <path
       d="M 104.36,8.18 C 103.51,22.83 89.22,32.55 82.44,36.83 l 4.4,3.78 c 0,0 2.79,0.06 6.61,-1.16 6.55,-2.08 16.12,-7.96 16.78,-11.43 0.97,-5.05 -4.21,-3.95 -5.38,-7.94 -0.61,-2.11 2.97,-6.1 -0.49,-11.9 z m -24.58,3.91 c 0,0 -2.55,-2.61 -4.44,-3.8 -0.94,1.77 -1.61,3.69 -1.94,5.67 -0.59,3.48 0,8.42 1.39,12.1 0.22,0.57 1.04,0.48 1.13,-0.12 1.2,-7.91 3.86,-13.85 3.86,-13.85 z"
       fill="#e2a610"
       id="path2" />
    <path
       d="m 61.96,38.16 c 0,0 -31.19,3.37 -45.26,30.45 -14.07,27.08 -2.11,43.5 10.55,49.48 12.66,5.98 44.56,8.09 65.31,3.17 20.75,-4.92 25.94,-15.12 24.97,-24.97 -1.41,-14.38 -14.77,-23.22 -14.77,-23.22 0,0 0.53,-17.76 -13.25,-29.29 C 77.28,33.54 61.96,38.16 61.96,38.16 Z"
       fill="#ffca28"
       id="path3" />
    <path
       d="m 74.76,83.73 c -6.69,-8.44 -14.59,-9.57 -17.12,-12.6 -1.38,-1.65 -2.19,-3.32 -1.88,-5.39 0.33,-2.2 2.88,-3.72 4.86,-4.09 2.31,-0.44 7.82,-0.21 12.45,4.2 1.1,1.04 0.7,2.66 0.67,4.11 -0.08,3.11 4.37,6.13 7.97,3.53 3.61,-2.61 0.84,-8.42 -1.49,-11.24 -1.76,-2.13 -8.14,-6.82 -16.07,-7.56 -2.23,-0.21 -11.2,-1.54 -16.38,8.31 -1.49,2.83 -2.04,9.67 5.76,15.45 1.63,1.21 10.09,5.51 12.44,8.3 4.07,4.83 1.28,9.08 -1.9,9.64 -8.67,1.52 -13.58,-3.17 -14.49,-5.74 -0.65,-1.83 0.03,-3.81 -0.81,-5.53 -0.86,-1.77 -2.62,-2.47 -4.48,-1.88 -6.1,1.94 -4.16,8.61 -1.46,12.28 2.89,3.93 6.44,6.3 10.43,7.6 14.89,4.85 22.05,-2.81 23.3,-8.42 0.92,-4.11 0.82,-7.67 -1.8,-10.97 z"
       fill="#6b4b46"
       id="path4" />
    <path
       d="M 71.16,48.99 C 58.49,76.05 56.31,110.22 56.31,110.22"
       stroke="#6b4b46"
       stroke-width="5"
       stroke-miterlimit="10"
       id="path5" />
    <path
       d="m 81.67,31.96 c 8.44,2.75 10.31,10.38 9.7,12.46 -0.73,2.44 -10.08,-7.06 -23.98,-6.49 -4.86,0.2 -3.45,-2.78 -1.2,-4.5 2.97,-2.27 7.96,-3.91 15.48,-1.47 z"
       fill="#6d4c41"
       id="path6" />
    <path
       d="m 81.67,31.96 c 8.44,2.75 10.31,10.38 9.7,12.46 -0.73,2.44 -10.08,-7.06 -23.98,-6.49 -4.86,0.2 -3.45,-2.78 -1.2,-4.5 2.97,-2.27 7.96,-3.91 15.48,-1.47 z"
       fill="#6b4b46"
       id="path7" />
    <path
       d="m 96.49,58.86 c 1.06,-0.73 4.62,0.53 5.62,7.5 0.49,3.41 0.64,6.71 0.64,6.71 0,0 -4.2,-3.77 -5.59,-6.42 -1.75,-3.35 -2.43,-6.59 -0.67,-7.79 z"
       fill="#e2a610"
       id="path8" />
  </g>
</svg>
