<?xml version="1.0" encoding="UTF-8" standalone="no"?>
<!-- Generator: Adobe Illustrator 27.5.0, SVG Export Plug-In . SVG Version: 6.00 Build 0)  -->

<svg
   version="1.1"
   id="Layer_1"
   x="0px"
   y="0px"
   viewBox="0 0 24 24"
   xml:space="preserve"
   sodipodi:docname="959507_OF1HA01.svg"
   width="24"
   height="24"
   xmlns:inkscape="http://www.inkscape.org/namespaces/inkscape"
   xmlns:sodipodi="http://sodipodi.sourceforge.net/DTD/sodipodi-0.dtd"
   xmlns="http://www.w3.org/2000/svg"
   xmlns:svg="http://www.w3.org/2000/svg"><defs
   id="defs1199">
	
		<linearGradient
   id="SVGID_00000143581992622167919990000009462146672198475158_"
   gradientUnits="userSpaceOnUse"
   x1="525.27393"
   y1="1511.0361"
   x2="525.27393"
   y2="1456.1608"
   gradientTransform="matrix(1.0741,0,0,1.0741,-88.1171,-1040.6278)">
		<stop
   offset="0"
   style="stop-color:#FFFFFF;stop-opacity:0"
   id="stop694" />
		<stop
   offset="0.2534"
   style="stop-color:#FCFCFD;stop-opacity:0.2534"
   id="stop695" />
		<stop
   offset="0.4447"
   style="stop-color:#F2F4F7;stop-opacity:0.4447"
   id="stop696" />
		<stop
   offset="0.6156"
   style="stop-color:#E2E7EC;stop-opacity:0.6156"
   id="stop697" />
		<stop
   offset="0.7746"
   style="stop-color:#CBD4DD;stop-opacity:0.7746"
   id="stop698" />
		<stop
   offset="0.924"
   style="stop-color:#AEBBC9;stop-opacity:0.924"
   id="stop699" />
		<stop
   offset="1"
   style="stop-color:#9CACBD"
   id="stop700" />
	</linearGradient>
	
	
		<linearGradient
   id="SVGID_00000011009915677867778390000012073713148156679831_"
   gradientUnits="userSpaceOnUse"
   x1="2552.2866"
   y1="190.0714"
   x2="2552.2866"
   y2="161.9209"
   gradientTransform="translate(-2064.1016,370.0019)">
		<stop
   offset="0"
   style="stop-color:#FFFFFF;stop-opacity:0"
   id="stop701" />
		<stop
   offset="0.1974"
   style="stop-color:#FCFCFC;stop-opacity:0.1974"
   id="stop702" />
		<stop
   offset="0.3464"
   style="stop-color:#F2F3F4;stop-opacity:0.3464"
   id="stop703" />
		<stop
   offset="0.4795"
   style="stop-color:#E2E4E6;stop-opacity:0.4795"
   id="stop704" />
		<stop
   offset="0.6034"
   style="stop-color:#CBCFD2;stop-opacity:0.6034"
   id="stop705" />
		<stop
   offset="0.7209"
   style="stop-color:#AEB3B9;stop-opacity:0.7209"
   id="stop706" />
		<stop
   offset="0.8336"
   style="stop-color:#89919A;stop-opacity:0.8336"
   id="stop707" />
		<stop
   offset="0.9404"
   style="stop-color:#5F6A75;stop-opacity:0.9404"
   id="stop708" />
		<stop
   offset="1"
   style="stop-color:#44515E"
   id="stop709" />
	</linearGradient>
	
	
		<linearGradient
   id="SVGID_00000021834086035312282340000013081380877975236228_"
   gradientUnits="userSpaceOnUse"
   x1="688.57458"
   y1="-26.048401"
   x2="728.8299"
   y2="-66.303703"
   gradientTransform="matrix(1.0741,0,0,1.0741,-284.0033,573.7677)">
		<stop
   offset="0"
   style="stop-color:#D0D2D3"
   id="stop710" />
		<stop
   offset="0.4719"
   style="stop-color:#FFFFFF"
   id="stop711" />
		<stop
   offset="0.6573"
   style="stop-color:#F2F3F3"
   id="stop712" />
		<stop
   offset="0.9989"
   style="stop-color:#D0D2D3"
   id="stop713" />
		<stop
   offset="1"
   style="stop-color:#D0D2D3"
   id="stop714" />
	</linearGradient>
	
	
</defs><sodipodi:namedview
   id="namedview1199"
   pagecolor="#ffffff"
   bordercolor="#000000"
   borderopacity="0.25"
   inkscape:showpageshadow="2"
   inkscape:pageopacity="0.0"
   inkscape:pagecheckerboard="true"
   inkscape:deskcolor="#d1d1d1" />











<g
   id="g1199"
   transform="matrix(0.2649767,0,0,0.21987687,-115.07355,-93.093888)"><g
     id="g834">
		<g
   id="g824">
			<g
   id="g728">
				<path
   style="fill:#808080"
   d="m 437.081,423.391 c -1.539,0 -2.803,1.261 -2.803,2.802 v 98.746 c 0,1.539 1.264,2.8 2.803,2.8 h 78.93 c 1.539,0 2.799,-1.261 2.799,-2.8 v -67.674 c 0,-1.539 -0.891,-3.69 -1.977,-4.779 l -27.117,-27.113 c -1.091,-1.091 -3.242,-1.982 -4.778,-1.982 z"
   id="path715" />
				
					<linearGradient
   id="SVGID_00000018955780207448809560000005297971484085539466_"
   gradientUnits="userSpaceOnUse"
   x1="707.48938"
   y1="-139.50549"
   x2="707.48938"
   y2="-44.9632"
   gradientTransform="matrix(1.0741,0,0,1.0741,-284.0033,573.7677)">
					<stop
   offset="0"
   style="stop-color:#FFFFFF"
   id="stop715" />
					<stop
   offset="0.4837"
   style="stop-color:#FDFDFD"
   id="stop716" />
					<stop
   offset="0.7117"
   style="stop-color:#F5F6F6"
   id="stop717" />
					<stop
   offset="0.8856"
   style="stop-color:#E9E9EA"
   id="stop718" />
					<stop
   offset="1"
   style="stop-color:#DBDCDD"
   id="stop719" />
				</linearGradient>
				<path
   style="fill:url(#SVGID_00000018955780207448809560000005297971484085539466_)"
   d="m 438.083,423.925 c -1.541,0 -2.805,1.26 -2.805,2.799 v 95.949 c 0,1.539 1.264,2.8 2.805,2.8 h 75.662 c 1.539,0 2.799,-1.261 2.799,-2.8 V 456.4 c 0,-1.539 -0.891,-3.689 -1.979,-4.781 l -25.717,-25.715 c -1.091,-1.086 -3.239,-1.978 -4.778,-1.978 h -45.987 z"
   id="path719" />
				
					<linearGradient
   id="SVGID_00000057870253791892421820000014348430378545268917_"
   gradientUnits="userSpaceOnUse"
   x1="422.49521"
   y1="650.01489"
   x2="430.7934"
   y2="641.7168"
   gradientTransform="matrix(-1.0741,0,0,-1.0741,952.2455,1141.7357)">
					<stop
   offset="0"
   style="stop-color:#FFFFFF"
   id="stop720" />
					<stop
   offset="0.1668"
   style="stop-color:#F3F2F3"
   id="stop721" />
					<stop
   offset="0.4754"
   style="stop-color:#D2D0D3"
   id="stop722" />
					<stop
   offset="0.8886"
   style="stop-color:#9D99A0"
   id="stop723" />
					<stop
   offset="1"
   style="stop-color:#8E8991"
   id="stop724" />
				</linearGradient>
				<path
   style="fill:url(#SVGID_00000057870253791892421820000014348430378545268917_)"
   d="m 488.367,434.023 v 13.993 c 0,2.951 2.393,5.342 5.336,5.342 h 14.544 z"
   id="path724" />
				
					<radialGradient
   id="SVGID_00000182493296570748506840000014813864915292765840_"
   cx="728.29608"
   cy="-124.607"
   r="15.1671"
   gradientTransform="matrix(1.0741,0,0,1.0741,-284.0033,575.7677)"
   gradientUnits="userSpaceOnUse">
					<stop
   offset="0"
   style="stop-color:#FFFFFF"
   id="stop725" />
					<stop
   offset="0.225"
   style="stop-color:#E4E4E5"
   id="stop726" />
					<stop
   offset="0.7063"
   style="stop-color:#9F9EA4"
   id="stop727" />
					<stop
   offset="1"
   style="stop-color:#72717A"
   id="stop728" />
				</radialGradient>
				<path
   style="fill:url(#SVGID_00000182493296570748506840000014813864915292765840_)"
   d="m 487.27,451.29 -1.286,-23.027 v 0 0 l -1.979,26.296 c 0,1.539 1.258,2.8 2.797,2.8 h 25.475 v 0 0 l -22.206,-3.266 c -1.543,0 -2.801,-1.264 -2.801,-2.803 z"
   id="path728" />
			</g>
			<g
   id="g775">
				<rect
   x="443.70801"
   y="437.565"
   style="fill:#b6b1b8"
   width="5.1539998"
   height="2.092"
   id="rect728" />
				<rect
   x="449.98099"
   y="437.565"
   style="fill:#b6b1b8"
   width="2.5780001"
   height="2.092"
   id="rect729" />
				<rect
   x="453.40302"
   y="437.565"
   style="fill:#b6b1b8"
   width="6.4380002"
   height="2.092"
   id="rect730" />
				<rect
   x="443.70801"
   y="443.319"
   style="fill:#b6b1b8"
   width="2.576"
   height="2.0940001"
   id="rect731" />
				<rect
   x="447.29199"
   y="443.319"
   style="fill:#b6b1b8"
   width="6.711"
   height="2.0940001"
   id="rect732" />
				<rect
   x="455.80801"
   y="443.319"
   style="fill:#b6b1b8"
   width="4.033"
   height="2.0940001"
   id="rect733" />
				<rect
   x="443.70801"
   y="449.07401"
   style="fill:#b6b1b8"
   width="7.5619998"
   height="2.0940001"
   id="rect734" />
				<rect
   x="449.98099"
   y="449.07401"
   style="fill:#b6b1b8"
   width="2.5780001"
   height="2.0940001"
   id="rect735" />
				<rect
   x="453.40302"
   y="449.07401"
   style="fill:#b6b1b8"
   width="8.4560003"
   height="2.0940001"
   id="rect736" />
				<rect
   x="443.70801"
   y="454.82901"
   style="fill:#b6b1b8"
   width="5.1539998"
   height="2.0940001"
   id="rect737" />
				<rect
   x="450.41101"
   y="454.82901"
   style="fill:#b6b1b8"
   width="4.7729998"
   height="2.0940001"
   id="rect738" />
				<rect
   x="456.62201"
   y="454.82901"
   style="fill:#b6b1b8"
   width="3.2190001"
   height="2.0940001"
   id="rect739" />
				<rect
   x="461.85901"
   y="437.565"
   style="fill:#b6b1b8"
   width="5.1529999"
   height="2.092"
   id="rect740" />
				<rect
   x="468.133"
   y="437.565"
   style="fill:#b6b1b8"
   width="2.575"
   height="2.092"
   id="rect741" />
				<rect
   x="471.552"
   y="437.565"
   style="fill:#b6b1b8"
   width="6.4400001"
   height="2.092"
   id="rect742" />
				<rect
   x="458.39099"
   y="443.319"
   style="fill:#b6b1b8"
   width="5.4770002"
   height="2.0940001"
   id="rect743" />
				<rect
   x="465.44199"
   y="443.319"
   style="fill:#b6b1b8"
   width="6.711"
   height="2.0940001"
   id="rect744" />
				<rect
   x="473.95801"
   y="443.319"
   style="fill:#b6b1b8"
   width="4.0339999"
   height="2.0940001"
   id="rect745" />
				<rect
   x="461.85901"
   y="449.07401"
   style="fill:#b6b1b8"
   width="7.5630002"
   height="2.0940001"
   id="rect746" />
				<rect
   x="468.133"
   y="449.07401"
   style="fill:#b6b1b8"
   width="2.575"
   height="2.0940001"
   id="rect747" />
				<rect
   x="471.552"
   y="449.07401"
   style="fill:#b6b1b8"
   width="6.4400001"
   height="2.0940001"
   id="rect748" />
				<rect
   x="461.85901"
   y="454.82901"
   style="fill:#b6b1b8"
   width="5.1529999"
   height="2.0940001"
   id="rect749" />
				<rect
   x="468.56299"
   y="454.82901"
   style="fill:#b6b1b8"
   width="4.7729998"
   height="2.0940001"
   id="rect750" />
				<rect
   x="474.77301"
   y="454.82901"
   style="fill:#b6b1b8"
   width="3.2190001"
   height="2.0940001"
   id="rect751" />
				<rect
   x="443.70801"
   y="459.53799"
   style="fill:#b6b1b8"
   width="5.1539998"
   height="2.0940001"
   id="rect752" />
				<rect
   x="449.98099"
   y="459.53799"
   style="fill:#b6b1b8"
   width="2.5780001"
   height="2.0940001"
   id="rect753" />
				<rect
   x="453.40302"
   y="459.53799"
   style="fill:#b6b1b8"
   width="6.4380002"
   height="2.0940001"
   id="rect754" />
				<rect
   x="443.70801"
   y="465.293"
   style="fill:#b6b1b8"
   width="2.576"
   height="2.0940001"
   id="rect755" />
				<rect
   x="447.29199"
   y="465.293"
   style="fill:#b6b1b8"
   width="6.711"
   height="2.0940001"
   id="rect756" />
				<rect
   x="455.80801"
   y="465.293"
   style="fill:#b6b1b8"
   width="4.033"
   height="2.0940001"
   id="rect757" />
				<rect
   x="443.70801"
   y="471.048"
   style="fill:#b6b1b8"
   width="7.5619998"
   height="2.0940001"
   id="rect758" />
				<rect
   x="449.98099"
   y="471.048"
   style="fill:#b6b1b8"
   width="2.5780001"
   height="2.0940001"
   id="rect759" />
				<rect
   x="453.40302"
   y="471.048"
   style="fill:#b6b1b8"
   width="8.4560003"
   height="2.0940001"
   id="rect760" />
				<rect
   x="443.70801"
   y="476.80399"
   style="fill:#b6b1b8"
   width="5.1539998"
   height="2.0940001"
   id="rect761" />
				<rect
   x="450.41101"
   y="476.80399"
   style="fill:#b6b1b8"
   width="4.7729998"
   height="2.0940001"
   id="rect762" />
				<rect
   x="456.62201"
   y="476.80399"
   style="fill:#b6b1b8"
   width="3.2190001"
   height="2.0940001"
   id="rect763" />
				<rect
   x="461.85901"
   y="459.53799"
   style="fill:#b6b1b8"
   width="5.1529999"
   height="2.0940001"
   id="rect764" />
				<rect
   x="468.133"
   y="459.53799"
   style="fill:#b6b1b8"
   width="2.575"
   height="2.0940001"
   id="rect765" />
				<rect
   x="471.552"
   y="459.53799"
   style="fill:#b6b1b8"
   width="6.4400001"
   height="2.0940001"
   id="rect766" />
				<rect
   x="458.39099"
   y="465.293"
   style="fill:#b6b1b8"
   width="5.4770002"
   height="2.0940001"
   id="rect767" />
				<rect
   x="465.44199"
   y="465.293"
   style="fill:#b6b1b8"
   width="6.711"
   height="2.0940001"
   id="rect768" />
				<rect
   x="473.95801"
   y="465.293"
   style="fill:#b6b1b8"
   width="4.0339999"
   height="2.0940001"
   id="rect769" />
				<rect
   x="461.85901"
   y="471.048"
   style="fill:#b6b1b8"
   width="7.5630002"
   height="2.0940001"
   id="rect770" />
				<rect
   x="468.133"
   y="471.048"
   style="fill:#b6b1b8"
   width="2.575"
   height="2.0940001"
   id="rect771" />
				<rect
   x="471.552"
   y="471.048"
   style="fill:#b6b1b8"
   width="6.4400001"
   height="2.0940001"
   id="rect772" />
				<rect
   x="461.85901"
   y="476.80399"
   style="fill:#b6b1b8"
   width="5.1529999"
   height="2.0940001"
   id="rect773" />
				<rect
   x="468.56299"
   y="476.80399"
   style="fill:#b6b1b8"
   width="4.7729998"
   height="2.0940001"
   id="rect774" />
				<rect
   x="474.77301"
   y="476.80399"
   style="fill:#b6b1b8"
   width="3.2190001"
   height="2.0940001"
   id="rect775" />
			</g>
			<g
   id="g823">
				<rect
   x="443.70801"
   y="440.23001"
   style="fill:#b6b1b8"
   width="5.1539998"
   height="2.0940001"
   id="rect776" />
				<rect
   x="449.98099"
   y="440.23001"
   style="fill:#b6b1b8"
   width="2.5780001"
   height="2.0940001"
   id="rect777" />
				<rect
   x="453.40302"
   y="440.23001"
   style="fill:#b6b1b8"
   width="6.4380002"
   height="2.0940001"
   id="rect778" />
				<rect
   x="443.70801"
   y="445.98499"
   style="fill:#b6b1b8"
   width="2.576"
   height="2.0940001"
   id="rect779" />
				<rect
   x="447.29199"
   y="445.98499"
   style="fill:#b6b1b8"
   width="6.711"
   height="2.0940001"
   id="rect780" />
				<rect
   x="455.80801"
   y="445.98499"
   style="fill:#b6b1b8"
   width="4.033"
   height="2.0940001"
   id="rect781" />
				<rect
   x="443.70801"
   y="451.741"
   style="fill:#b6b1b8"
   width="7.5619998"
   height="2.0940001"
   id="rect782" />
				<rect
   x="449.98099"
   y="451.741"
   style="fill:#b6b1b8"
   width="2.5780001"
   height="2.0940001"
   id="rect783" />
				<rect
   x="453.40302"
   y="451.741"
   style="fill:#b6b1b8"
   width="8.4560003"
   height="2.0940001"
   id="rect784" />
				<rect
   x="443.70801"
   y="457.496"
   style="fill:#b6b1b8"
   width="5.1539998"
   height="2.0940001"
   id="rect785" />
				<rect
   x="450.41101"
   y="457.496"
   style="fill:#b6b1b8"
   width="4.7729998"
   height="2.0940001"
   id="rect786" />
				<rect
   x="456.62201"
   y="457.496"
   style="fill:#b6b1b8"
   width="3.2190001"
   height="2.0940001"
   id="rect787" />
				<rect
   x="461.85901"
   y="440.23001"
   style="fill:#b6b1b8"
   width="5.1529999"
   height="2.0940001"
   id="rect788" />
				<rect
   x="468.133"
   y="440.23001"
   style="fill:#b6b1b8"
   width="2.575"
   height="2.0940001"
   id="rect789" />
				<rect
   x="471.552"
   y="440.23001"
   style="fill:#b6b1b8"
   width="6.4400001"
   height="2.0940001"
   id="rect790" />
				<rect
   x="458.39099"
   y="445.98499"
   style="fill:#b6b1b8"
   width="5.4770002"
   height="2.0940001"
   id="rect791" />
				<rect
   x="465.44199"
   y="445.98499"
   style="fill:#b6b1b8"
   width="6.711"
   height="2.0940001"
   id="rect792" />
				<rect
   x="473.95801"
   y="445.98499"
   style="fill:#b6b1b8"
   width="4.0339999"
   height="2.0940001"
   id="rect793" />
				<rect
   x="461.85901"
   y="451.741"
   style="fill:#b6b1b8"
   width="7.5630002"
   height="2.0940001"
   id="rect794" />
				<rect
   x="468.133"
   y="451.741"
   style="fill:#b6b1b8"
   width="2.575"
   height="2.0940001"
   id="rect795" />
				<rect
   x="471.552"
   y="451.741"
   style="fill:#b6b1b8"
   width="6.4400001"
   height="2.0940001"
   id="rect796" />
				<rect
   x="461.85901"
   y="457.496"
   style="fill:#b6b1b8"
   width="5.1529999"
   height="2.0940001"
   id="rect797" />
				<rect
   x="468.56299"
   y="457.496"
   style="fill:#b6b1b8"
   width="4.7729998"
   height="2.0940001"
   id="rect798" />
				<rect
   x="474.77301"
   y="457.496"
   style="fill:#b6b1b8"
   width="3.2190001"
   height="2.0940001"
   id="rect799" />
				<rect
   x="443.70801"
   y="462.20401"
   style="fill:#b6b1b8"
   width="5.1539998"
   height="2.0940001"
   id="rect800" />
				<rect
   x="449.98099"
   y="462.20401"
   style="fill:#b6b1b8"
   width="2.5780001"
   height="2.0940001"
   id="rect801" />
				<rect
   x="453.40302"
   y="462.20401"
   style="fill:#b6b1b8"
   width="6.4380002"
   height="2.0940001"
   id="rect802" />
				<rect
   x="443.70801"
   y="467.95999"
   style="fill:#b6b1b8"
   width="2.576"
   height="2.0940001"
   id="rect803" />
				<rect
   x="447.29199"
   y="467.95999"
   style="fill:#b6b1b8"
   width="6.711"
   height="2.0940001"
   id="rect804" />
				<rect
   x="455.80801"
   y="467.95999"
   style="fill:#b6b1b8"
   width="4.033"
   height="2.0940001"
   id="rect805" />
				<rect
   x="443.70801"
   y="473.715"
   style="fill:#b6b1b8"
   width="7.5619998"
   height="2.0940001"
   id="rect806" />
				<rect
   x="449.98099"
   y="473.715"
   style="fill:#b6b1b8"
   width="2.5780001"
   height="2.0940001"
   id="rect807" />
				<rect
   x="453.40302"
   y="473.715"
   style="fill:#b6b1b8"
   width="8.4560003"
   height="2.0940001"
   id="rect808" />
				<rect
   x="443.70801"
   y="479.47"
   style="fill:#b6b1b8"
   width="5.1539998"
   height="2.0940001"
   id="rect809" />
				<rect
   x="450.41101"
   y="479.47"
   style="fill:#b6b1b8"
   width="4.7729998"
   height="2.0940001"
   id="rect810" />
				<rect
   x="456.62201"
   y="479.47"
   style="fill:#b6b1b8"
   width="3.2190001"
   height="2.0940001"
   id="rect811" />
				<rect
   x="461.85901"
   y="462.20401"
   style="fill:#b6b1b8"
   width="5.1529999"
   height="2.0940001"
   id="rect812" />
				<rect
   x="468.133"
   y="462.20401"
   style="fill:#b6b1b8"
   width="2.575"
   height="2.0940001"
   id="rect813" />
				<rect
   x="471.552"
   y="462.20401"
   style="fill:#b6b1b8"
   width="6.4400001"
   height="2.0940001"
   id="rect814" />
				<rect
   x="458.39099"
   y="467.95999"
   style="fill:#b6b1b8"
   width="5.4770002"
   height="2.0940001"
   id="rect815" />
				<rect
   x="465.44199"
   y="467.95999"
   style="fill:#b6b1b8"
   width="6.711"
   height="2.0940001"
   id="rect816" />
				<rect
   x="473.95801"
   y="467.95999"
   style="fill:#b6b1b8"
   width="4.0339999"
   height="2.0940001"
   id="rect817" />
				<rect
   x="461.85901"
   y="473.715"
   style="fill:#b6b1b8"
   width="7.5630002"
   height="2.0940001"
   id="rect818" />
				<rect
   x="468.133"
   y="473.715"
   style="fill:#b6b1b8"
   width="2.575"
   height="2.0940001"
   id="rect819" />
				<rect
   x="471.552"
   y="473.715"
   style="fill:#b6b1b8"
   width="6.4400001"
   height="2.0940001"
   id="rect820" />
				<rect
   x="461.85901"
   y="479.47"
   style="fill:#b6b1b8"
   width="5.1529999"
   height="2.0940001"
   id="rect821" />
				<rect
   x="468.56299"
   y="479.47"
   style="fill:#b6b1b8"
   width="4.7729998"
   height="2.0940001"
   id="rect822" />
				<rect
   x="474.77301"
   y="479.47"
   style="fill:#b6b1b8"
   width="3.2190001"
   height="2.0940001"
   id="rect823" />
			</g>
		</g>
		<path
   style="fill:#891a1c"
   d="m 524.852,514.876 c 0,-9.758 -7.909,-17.666 -17.667,-17.666 h -35.333 c -9.755,0 -17.667,7.908 -17.667,17.666 v 0 c 0,9.758 7.912,17.667 17.667,17.667 h 35.333 c 9.757,0 17.667,-7.909 17.667,-17.667 z"
   id="path824" />
		
			<linearGradient
   id="SVGID_00000083781319070306695110000016107434375612500876_"
   gradientUnits="userSpaceOnUse"
   x1="1746.8319"
   y1="113.6211"
   x2="1810.8303"
   y2="114.9544"
   gradientTransform="translate(-1294.6445,399.1997)">
			<stop
   offset="0"
   style="stop-color:#BF4022"
   id="stop824" />
			<stop
   offset="1"
   style="stop-color:#A94026"
   id="stop825" />
		</linearGradient>
		<path
   style="fill:url(#SVGID_00000083781319070306695110000016107434375612500876_)"
   d="m 522.185,513.543 c 0,-9.758 -7.908,-17.667 -17.666,-17.667 h -35.334 c -9.755,0 -17.666,7.909 -17.666,17.667 v 0 c 0,9.758 7.911,17.667 17.666,17.667 h 35.334 c 9.757,0 17.666,-7.909 17.666,-17.667 z"
   id="path825" />
		<path
   style="fill:#f5c4ad"
   d="m 469.185,500.431 h 35.334 c 8.25,0 15.028,6.367 15.711,14.445 0.036,-0.442 0.067,-0.885 0.067,-1.333 0,-8.7 -7.078,-15.778 -15.778,-15.778 h -35.334 c -8.697,0 -15.775,7.078 -15.775,15.778 0,0.448 0.028,0.891 0.067,1.333 0.679,-8.078 7.461,-14.445 15.708,-14.445 z"
   id="path826" />
		<g
   id="g833">
			<g
   id="g829">
				<path
   style="fill:#891a1c"
   d="m 466.328,511.973 h 5.109 c 1.026,0 1.742,0.102 2.146,0.31 0.261,0.139 0.475,0.354 0.633,0.651 0.162,0.3 0.242,0.622 0.242,0.972 0,0.359 -0.08,0.689 -0.242,0.986 -0.158,0.3 -0.372,0.514 -0.633,0.651 -0.414,0.208 -1.127,0.313 -2.146,0.313 h -5.109 z m 5.5,6.292 c 1.417,0 2.521,-0.136 3.308,-0.401 0.789,-0.269 1.427,-0.722 1.903,-1.359 0.555,-0.745 0.833,-1.609 0.833,-2.599 0,-0.686 -0.148,-1.334 -0.44,-1.948 -0.289,-0.597 -0.693,-1.075 -1.214,-1.438 -0.497,-0.352 -1.078,-0.599 -1.729,-0.739 -0.656,-0.147 -1.541,-0.217 -2.653,-0.217 h -9.563 v 0.344 c 0.266,0.073 0.453,0.164 0.56,0.279 0.104,0.114 0.159,0.283 0.159,0.508 v 12.422 c 0,0.219 -0.055,0.383 -0.159,0.494 -0.106,0.117 -0.294,0.211 -0.56,0.281 v 0.344 h 4.769 v -0.344 c -0.261,-0.065 -0.445,-0.153 -0.553,-0.275 -0.107,-0.117 -0.161,-0.284 -0.161,-0.5 v -4.852 z"
   id="path827" />
				<path
   style="fill:#891a1c"
   d="m 483.917,511.973 h 4.2 c 1.016,0 1.833,0.099 2.445,0.297 0.617,0.195 1.141,0.528 1.573,0.995 0.781,0.838 1.174,2.052 1.174,3.63 0,2.183 -0.727,3.651 -2.174,4.403 -0.672,0.354 -1.678,0.531 -3.018,0.531 h -4.2 z m -3.495,11.637 c -0.105,0.117 -0.292,0.211 -0.56,0.281 v 0.344 h 8.539 c 1.416,0 2.578,-0.117 3.492,-0.359 0.911,-0.239 1.708,-0.641 2.391,-1.197 1.622,-1.328 2.432,-3.253 2.432,-5.784 0,-1.44 -0.273,-2.698 -0.817,-3.773 -0.69,-1.367 -1.75,-2.352 -3.188,-2.945 -1.003,-0.409 -2.438,-0.612 -4.309,-0.612 h -8.539 v 0.344 c 0.268,0.073 0.455,0.164 0.56,0.279 0.104,0.114 0.159,0.283 0.159,0.508 v 12.411 c -10e-4,0.222 -0.056,0.392 -0.16,0.503 z"
   id="path828" />
				<path
   style="fill:#891a1c"
   d="m 503.19,517.821 v 5.284 c 0,0.224 0.055,0.393 0.164,0.513 0.104,0.12 0.289,0.209 0.555,0.273 v 0.344 h -4.771 v -0.344 c 0.266,-0.07 0.453,-0.164 0.56,-0.281 0.102,-0.111 0.156,-0.281 0.156,-0.505 v -12.411 c 0,-0.225 -0.055,-0.393 -0.156,-0.508 -0.107,-0.115 -0.295,-0.206 -0.56,-0.279 v -0.344 h 13.558 c 0.224,0 0.395,-0.049 0.516,-0.148 0.117,-0.096 0.216,-0.278 0.292,-0.541 h 0.359 v 3.786 h -0.359 c -0.076,-0.263 -0.175,-0.442 -0.292,-0.539 -0.12,-0.102 -0.292,-0.148 -0.516,-0.148 h -9.505 v 3.513 h 6.208 c 0.232,0 0.409,-0.049 0.528,-0.153 0.12,-0.104 0.217,-0.278 0.292,-0.534 h 0.359 v 3.711 h -0.359 c -0.075,-0.255 -0.172,-0.435 -0.292,-0.536 -0.119,-0.102 -0.297,-0.151 -0.528,-0.151 h -6.209 z"
   id="path829" />
			</g>
			<g
   id="g832">
				<path
   style="fill:#ffffff"
   d="m 465.003,510.704 h 5.111 c 1.026,0 1.74,0.102 2.146,0.31 0.258,0.138 0.471,0.354 0.633,0.65 0.161,0.3 0.242,0.623 0.242,0.972 0,0.359 -0.081,0.69 -0.242,0.987 -0.162,0.299 -0.375,0.513 -0.633,0.65 -0.414,0.209 -1.128,0.313 -2.146,0.313 h -5.111 z m 5.502,6.292 c 1.417,0 2.518,-0.136 3.305,-0.401 0.792,-0.268 1.428,-0.721 1.906,-1.359 0.553,-0.744 0.834,-1.609 0.834,-2.599 0,-0.685 -0.148,-1.333 -0.44,-1.948 -0.289,-0.596 -0.692,-1.075 -1.214,-1.44 -0.497,-0.35 -1.078,-0.597 -1.731,-0.737 -0.656,-0.145 -1.542,-0.216 -2.653,-0.216 h -9.563 v 0.344 c 0.268,0.072 0.455,0.164 0.563,0.278 0.102,0.114 0.156,0.284 0.156,0.508 v 12.422 c 0,0.219 -0.055,0.383 -0.156,0.495 -0.107,0.117 -0.295,0.211 -0.563,0.281 v 0.344 h 4.771 v -0.344 c -0.261,-0.065 -0.445,-0.156 -0.555,-0.276 -0.107,-0.117 -0.161,-0.284 -0.161,-0.5 v -4.852 z"
   id="path830" />
				<path
   style="fill:#ffffff"
   d="m 482.591,510.704 h 4.201 c 1.018,0 1.833,0.1 2.447,0.297 0.617,0.195 1.139,0.529 1.573,0.995 0.781,0.839 1.172,2.052 1.172,3.63 0,2.183 -0.727,3.651 -2.172,4.404 -0.675,0.354 -1.68,0.528 -3.021,0.528 h -4.201 v -9.854 z m -3.492,11.639 c -0.106,0.117 -0.291,0.211 -0.56,0.281 v 0.344 h 8.536 c 1.417,0 2.578,-0.12 3.492,-0.359 0.912,-0.24 1.709,-0.641 2.391,-1.198 1.625,-1.328 2.436,-3.253 2.436,-5.784 0,-1.439 -0.273,-2.697 -0.818,-3.773 -0.69,-1.367 -1.752,-2.352 -3.188,-2.945 -1.002,-0.408 -2.44,-0.611 -4.313,-0.611 h -8.536 v 0.344 c 0.268,0.072 0.453,0.164 0.56,0.278 0.102,0.114 0.156,0.284 0.156,0.508 v 12.411 c 0,0.223 -0.055,0.392 -0.156,0.504 z"
   id="path831" />
				<path
   style="fill:#ffffff"
   d="m 501.867,516.554 v 5.283 c 0,0.225 0.052,0.394 0.161,0.514 0.107,0.119 0.292,0.208 0.555,0.273 v 0.344 h -4.771 v -0.344 c 0.266,-0.07 0.456,-0.164 0.56,-0.281 0.104,-0.112 0.159,-0.281 0.159,-0.506 v -12.411 c 0,-0.224 -0.055,-0.394 -0.159,-0.508 -0.104,-0.114 -0.294,-0.206 -0.56,-0.278 v -0.344 h 13.56 c 0.225,0 0.396,-0.05 0.516,-0.148 0.115,-0.097 0.217,-0.279 0.292,-0.542 h 0.356 v 3.786 h -0.356 c -0.075,-0.263 -0.177,-0.442 -0.292,-0.541 -0.119,-0.1 -0.291,-0.146 -0.516,-0.146 h -9.505 v 3.514 h 6.208 c 0.232,0 0.409,-0.05 0.526,-0.154 0.12,-0.103 0.219,-0.278 0.292,-0.533 h 0.359 v 3.711 h -0.359 c -0.073,-0.256 -0.172,-0.435 -0.292,-0.537 -0.117,-0.102 -0.294,-0.15 -0.526,-0.15 h -6.208 z"
   id="path832" />
			</g>
		</g>
	</g></g>





</svg>
