<?xml version="1.0" encoding="UTF-8" standalone="no"?>
<!-- Generator: Adobe Illustrator 27.5.0, SVG Export Plug-In . SVG Version: 6.00 Build 0)  -->

<svg
   version="1.1"
   x="0px"
   y="0px"
   viewBox="0 0 24 24"
   xml:space="preserve"
   id="svg757"
   sodipodi:docname="prices.svg"
   width="24"
   height="24"
   inkscape:version="1.3.2 (091e20e, 2023-11-25, custom)"
   xmlns:inkscape="http://www.inkscape.org/namespaces/inkscape"
   xmlns:sodipodi="http://sodipodi.sourceforge.net/DTD/sodipodi-0.dtd"
   xmlns:xlink="http://www.w3.org/1999/xlink"
   xmlns="http://www.w3.org/2000/svg"
   xmlns:svg="http://www.w3.org/2000/svg"><defs
   id="defs757">
	
	

	
	

	
	
	
	
	
	

		
		
		
		
	
			
			
			
			
			
			
			
		
				
				
			
					
					
				
					
					
					
				
						
						
					
				
				
			<clipPath
   id="SVGID_00000085231090515559592790000007795320277037197965_">
					<use
   xlink:href="#SVGID_00000132075431928340948570000005886428059019410580_"
   style="overflow:visible"
   id="use9" />
				</clipPath><path
   id="SVGID_00000132075431928340948570000005886428059019410580_"
   d="m 388.419,136.843 c 0,40.592 -32.905,73.496 -73.496,73.496 -40.591,0 -73.498,-32.905 -73.498,-73.496 0,-40.591 32.906,-73.497 73.498,-73.497 40.591,0 73.496,32.906 73.496,73.497 z" />
		
		
	</defs><sodipodi:namedview
   id="namedview757"
   pagecolor="#ffffff"
   bordercolor="#000000"
   borderopacity="0.25"
   inkscape:showpageshadow="2"
   inkscape:pageopacity="0.0"
   inkscape:pagecheckerboard="true"
   inkscape:deskcolor="#d1d1d1"
   inkscape:zoom="34.208333"
   inkscape:cx="11.985384"
   inkscape:cy="12"
   inkscape:window-width="1920"
   inkscape:window-height="1017"
   inkscape:window-x="-8"
   inkscape:window-y="-8"
   inkscape:window-maximized="1"
   inkscape:current-layer="svg757" />

<g
   id="g14"
   transform="matrix(0.10763797,0,0,0.10763797,-18.097535,-6.8184346)">
			<path
   style="fill:#8ed2c5"
   d="m 388.419,136.843 c 0,40.592 -32.905,73.496 -73.496,73.496 -40.591,0 -73.498,-32.905 -73.498,-73.496 0,-40.591 32.906,-73.497 73.498,-73.497 40.591,0 73.496,32.906 73.496,73.497 z"
   id="path9" />
			<g
   id="g10">
				<defs
   id="defs9">
					<path
   id="path1"
   d="m 388.419,136.843 c 0,40.592 -32.905,73.496 -73.496,73.496 -40.591,0 -73.498,-32.905 -73.498,-73.496 0,-40.591 32.906,-73.497 73.498,-73.497 40.591,0 73.496,32.906 73.496,73.497 z" />
				</defs>
				<clipPath
   id="clipPath1">
					<use
   xlink:href="#SVGID_00000132075431928340948570000005886428059019410580_"
   style="overflow:visible"
   id="use1" />
				</clipPath>
				<path
   style="opacity:0.1"
   d="m 552.091,373.92 -0.409,-0.409 v 0 l -0.41,-0.409 v 0 l -0.409,-0.409 v 0 l -0.41,-0.409 v 0 l -0.409,-0.409 v 0 l -0.41,-0.409 v 0 l -0.409,-0.409 v 0 l -0.41,-0.409 v 0 l -0.409,-0.409 v 0 l -0.41,-0.409 v 0 l -0.409,-0.409 v 0 l -0.409,-0.409 v 0 l -0.41,-0.409 v 0 l -0.409,-0.409 v 0 l -0.41,-0.409 v 0 l -0.409,-0.409 v 0 l -0.41,-0.409 v 0 l -0.409,-0.409 v 0 l -0.41,-0.409 v 0 l -0.409,-0.409 v 0 l -0.41,-0.409 v 0 l -0.409,-0.409 v 0 l -0.409,-0.409 v 0 l -0.41,-0.409 v 0 l -0.409,-0.409 v 0 l -0.41,-0.409 v 0 l -0.409,-0.409 v 0 l -0.41,-0.409 v 0 l -0.409,-0.409 v 0 l -0.41,-0.409 v 0 l -0.409,-0.409 v 0 l -0.41,-0.409 v 0 l -0.409,-0.409 v 0 l -0.41,-0.409 v 0 l -0.409,-0.409 v 0 l -0.41,-0.409 v 0 l -0.409,-0.409 v 0 l -0.409,-0.409 v 0 l -0.41,-0.409 v 0 l -0.409,-0.409 v 0 l -0.41,-0.409 v 0 l -0.409,-0.409 v 0 l -0.41,-0.409 v 0 l -0.409,-0.409 v 0 l -0.41,-0.409 v 0 l -0.362,-0.362 h 1.494 v -11.181 h -0.409 v -0.409 h -0.409 v -0.409 h -0.41 v -0.409 h -0.409 v -0.409 h -0.41 v -0.409 h -0.409 v -0.409 h -0.41 v -0.409 h -0.409 V 340.7 h -0.41 v -0.409 h -0.409 v -0.409 h -0.41 v -0.409 h -0.409 v -0.409 h -0.409 v -0.208 h 5.324 v -11.181 h -0.409 v -0.409 h -0.409 v -0.409 h -0.41 v -0.409 h -0.409 v -0.409 h -0.41 v -0.409 h -0.409 v -0.409 h -0.41 v -0.409 h -0.409 v -0.409 h -0.41 v -0.409 h -0.409 v -0.409 h -0.41 v -0.409 h -0.409 v -0.409 h -0.409 v -0.409 h -0.41 v -0.409 h -0.409 v -0.409 h -0.41 v -0.409 h -0.409 v -0.409 h -0.41 v -0.409 h -0.409 v -0.409 h -0.41 v -0.409 h -0.409 v -0.409 h -0.41 v -0.409 h -0.409 v -0.409 h -0.409 v -0.409 h -0.41 v -0.409 h -0.409 v -0.409 h -0.41 v -0.409 h -0.409 v -0.409 h -0.41 v -0.409 h -0.409 v -0.409 h -0.41 v -0.409 h -0.409 v -0.409 h -0.41 v -0.409 h -0.409 v -0.409 h -0.41 v -0.409 h -0.409 v -0.409 h -0.41 v -0.409 h -0.409 v -0.409 h -0.409 v -0.409 h -0.41 v -0.409 h -0.409 v -0.409 h -0.41 v -0.409 h -0.409 v -0.409 h -0.41 v -0.409 h -0.409 v -0.409 h -0.41 v -0.409 h -0.409 v -0.067 c 2.532,-0.995 5.294,-1.535 8.26,-1.535 6.25,0 12.028,2.389 16.74,6.432 0.032,0.038 0.067,0.073 0.1,0.111 l 0.015,-0.015 c 0.02,0.017 0.04,0.032 0.059,0.049 0.111,0.126 0.227,0.247 0.336,0.375 l 0.023,-0.023 c 0.128,0.145 0.261,0.285 0.386,0.432 l 0.023,-0.023 c 0.128,0.145 0.261,0.284 0.387,0.432 l 0.023,-0.023 c 0.128,0.145 0.261,0.285 0.387,0.432 l 0.023,-0.023 c 0.128,0.145 0.261,0.284 0.387,0.432 l 0.022,-0.023 c 0.128,0.145 0.261,0.285 0.387,0.432 l 0.023,-0.023 c 0.128,0.145 0.261,0.284 0.387,0.432 l 0.022,-0.023 c 0.128,0.145 0.261,0.285 0.387,0.432 l 8.588,-8.576 c -1.012,-1.267 -2.086,-2.46 -3.208,-3.589 -0.135,-0.139 -0.274,-0.272 -0.409,-0.409 -0.135,-0.139 -0.273,-0.272 -0.409,-0.409 -0.136,-0.139 -0.274,-0.272 -0.41,-0.409 -0.135,-0.139 -0.273,-0.272 -0.409,-0.409 -0.136,-0.139 -0.274,-0.272 -0.41,-0.409 -0.135,-0.139 -0.273,-0.272 -0.409,-0.409 -0.135,-0.139 -0.274,-0.272 -0.41,-0.409 -0.135,-0.139 -0.273,-0.272 -0.409,-0.409 -0.135,-0.139 -0.274,-0.272 -0.41,-0.409 -0.135,-0.139 -0.273,-0.272 -0.409,-0.409 -0.135,-0.139 -0.273,-0.272 -0.41,-0.409 -0.135,-0.139 -0.273,-0.272 -0.409,-0.409 -0.135,-0.139 -0.273,-0.272 -0.409,-0.409 -0.136,-0.139 -0.275,-0.271 -0.41,-0.409 -0.135,-0.139 -0.273,-0.271 -0.409,-0.409 -0.136,-0.139 -0.274,-0.271 -0.41,-0.409 -0.135,-0.139 -0.273,-0.272 -0.409,-0.409 -0.135,-0.139 -0.274,-0.272 -0.41,-0.409 -0.135,-0.139 -0.273,-0.272 -0.409,-0.409 -0.135,-0.139 -0.274,-0.272 -0.41,-0.409 -0.135,-0.139 -0.273,-0.272 -0.409,-0.409 -0.135,-0.139 -0.273,-0.272 -0.41,-0.409 -0.135,-0.139 -0.273,-0.271 -0.409,-0.409 -0.135,-0.139 -0.273,-0.271 -0.41,-0.409 -0.135,-0.139 -0.273,-0.271 -0.409,-0.409 -0.135,-0.139 -0.273,-0.272 -0.41,-0.409 -0.135,-0.139 -0.273,-0.272 -0.409,-0.409 -0.135,-0.139 -0.273,-0.272 -0.409,-0.409 -0.135,-0.139 -0.274,-0.272 -0.41,-0.409 -0.135,-0.139 -0.273,-0.272 -0.409,-0.409 -0.135,-0.139 -0.274,-0.272 -0.41,-0.409 -0.135,-0.139 -0.273,-0.271 -0.409,-0.409 -0.135,-0.139 -0.274,-0.271 -0.41,-0.409 -0.135,-0.139 -0.273,-0.272 -0.409,-0.409 -0.135,-0.139 -0.274,-0.271 -0.41,-0.409 -0.135,-0.139 -0.274,-0.271 -0.409,-0.409 -0.135,-0.139 -0.273,-0.272 -0.41,-0.409 -0.135,-0.139 -0.273,-0.272 -0.409,-0.409 -0.135,-0.139 -0.273,-0.272 -0.409,-0.409 -0.136,-0.139 -0.274,-0.272 -0.41,-0.409 -0.135,-0.139 -0.273,-0.272 -0.409,-0.409 -0.136,-0.139 -0.274,-0.271 -0.41,-0.409 -0.135,-0.139 -0.273,-0.272 -0.409,-0.409 -0.135,-0.139 -0.274,-0.271 -0.41,-0.409 -0.135,-0.139 -0.273,-0.271 -0.409,-0.409 -0.135,-0.139 -0.275,-0.272 -0.41,-0.409 -0.135,-0.139 -0.273,-0.272 -0.409,-0.409 -0.135,-0.139 -0.273,-0.272 -0.41,-0.409 -0.135,-0.139 -0.273,-0.272 -0.409,-0.409 -0.135,-0.139 -0.273,-0.272 -0.41,-0.409 -0.135,-0.139 -0.273,-0.271 -0.409,-0.409 -0.135,-0.139 -0.273,-0.272 -0.409,-0.409 -0.136,-0.139 -0.274,-0.272 -0.41,-0.409 -0.135,-0.139 -0.273,-0.271 -0.409,-0.409 -0.135,-0.139 -0.274,-0.272 -0.41,-0.409 -0.135,-0.139 -0.273,-0.272 -0.409,-0.409 -0.135,-0.139 -0.274,-0.272 -0.41,-0.409 -0.135,-0.139 -0.273,-0.272 -0.409,-0.409 -0.135,-0.139 -0.274,-0.272 -0.41,-0.409 -0.135,-0.139 -0.273,-0.272 -0.409,-0.409 -0.135,-0.139 -0.273,-0.272 -0.41,-0.409 -0.135,-0.139 -0.273,-0.271 -0.409,-0.409 -0.135,-0.139 -0.273,-0.271 -0.41,-0.409 -0.135,-0.139 -0.273,-0.272 -0.409,-0.409 -0.135,-0.139 -0.273,-0.272 -0.409,-0.409 -0.136,-0.139 -0.274,-0.272 -0.41,-0.409 -0.135,-0.139 -0.273,-0.272 -0.409,-0.409 -0.136,-0.139 -0.274,-0.272 -0.41,-0.409 -0.135,-0.139 -0.273,-0.272 -0.409,-0.409 -0.135,-0.139 -0.274,-0.272 -0.41,-0.409 -0.135,-0.139 -0.273,-0.272 -0.409,-0.409 -0.135,-0.139 -0.275,-0.272 -0.41,-0.409 -0.135,-0.139 -0.273,-0.272 -0.409,-0.409 -0.135,-0.139 -0.273,-0.272 -0.41,-0.409 -0.135,-0.139 -0.273,-0.271 -0.409,-0.409 -0.135,-0.139 -0.273,-0.272 -0.409,-0.409 -0.136,-0.139 -0.274,-0.272 -0.41,-0.409 -0.135,-0.139 -0.273,-0.272 -0.409,-0.409 -0.136,-0.139 -0.274,-0.272 -0.41,-0.409 -0.135,-0.139 -0.273,-0.272 -0.409,-0.409 -0.135,-0.139 -0.274,-0.272 -0.41,-0.409 -0.135,-0.139 -0.273,-0.271 -0.409,-0.409 -0.135,-0.139 -0.274,-0.271 -0.41,-0.409 -0.135,-0.139 -0.273,-0.271 -0.409,-0.409 -0.135,-0.139 -0.273,-0.272 -0.41,-0.409 -0.135,-0.139 -0.273,-0.272 -0.409,-0.409 -0.135,-0.139 -0.273,-0.272 -0.41,-0.409 -0.135,-0.139 -0.273,-0.272 -0.409,-0.409 -0.135,-0.139 -0.273,-0.272 -0.41,-0.409 -0.135,-0.139 -0.273,-0.272 -0.409,-0.409 -0.135,-0.139 -0.273,-0.271 -0.409,-0.409 -0.135,-0.139 -0.274,-0.271 -0.41,-0.409 -0.135,-0.139 -0.273,-0.271 -0.409,-0.409 -0.135,-0.139 -0.274,-0.271 -0.41,-0.409 -0.135,-0.139 -0.273,-0.272 -0.409,-0.409 -0.135,-0.139 -0.274,-0.272 -0.41,-0.409 -0.135,-0.139 -0.273,-0.272 -0.409,-0.409 -0.234,-0.241 -0.476,-0.471 -0.714,-0.706 -0.035,-0.036 -0.069,-0.076 -0.105,-0.112 -0.135,-0.139 -0.273,-0.272 -0.41,-0.409 -0.135,-0.139 -0.273,-0.271 -0.409,-0.409 -0.135,-0.139 -0.273,-0.272 -0.409,-0.409 -0.136,-0.139 -0.274,-0.271 -0.41,-0.409 -0.135,-0.139 -0.273,-0.272 -0.409,-0.409 -0.136,-0.139 -0.274,-0.272 -0.41,-0.409 -0.135,-0.139 -0.273,-0.272 -0.409,-0.409 -0.135,-0.139 -0.274,-0.272 -0.41,-0.409 -0.135,-0.139 -0.273,-0.272 -0.409,-0.409 -0.135,-0.139 -0.274,-0.272 -0.41,-0.409 -0.135,-0.139 -0.273,-0.271 -0.409,-0.409 -0.135,-0.139 -0.273,-0.272 -0.41,-0.409 -0.135,-0.139 -0.273,-0.271 -0.409,-0.409 -0.135,-0.139 -0.273,-0.271 -0.409,-0.409 -0.136,-0.139 -0.275,-0.271 -0.41,-0.409 -0.135,-0.139 -0.273,-0.272 -0.409,-0.409 -0.136,-0.139 -0.274,-0.272 -0.41,-0.409 -0.135,-0.139 -0.273,-0.272 -0.409,-0.409 -0.135,-0.139 -0.274,-0.272 -0.41,-0.409 -0.135,-0.139 -0.273,-0.272 -0.409,-0.409 -0.135,-0.139 -0.275,-0.271 -0.41,-0.409 -0.135,-0.139 -0.273,-0.271 -0.409,-0.409 -0.135,-0.139 -0.274,-0.271 -0.41,-0.409 -0.135,-0.139 -0.273,-0.271 -0.409,-0.409 -0.135,-0.139 -0.273,-0.272 -0.41,-0.409 -0.135,-0.139 -0.273,-0.272 -0.409,-0.409 -0.135,-0.139 -0.273,-0.272 -0.41,-0.409 -0.135,-0.139 -0.273,-0.272 -0.409,-0.409 -0.135,-0.139 -0.273,-0.272 -0.409,-0.409 -0.136,-0.139 -0.274,-0.271 -0.41,-0.409 -0.135,-0.139 -0.274,-0.271 -0.409,-0.409 -0.135,-0.139 -0.274,-0.271 -0.41,-0.409 -0.135,-0.139 -0.273,-0.271 -0.409,-0.409 -0.135,-0.139 -0.275,-0.271 -0.41,-0.409 -0.135,-0.139 -0.273,-0.272 -0.409,-0.409 -0.135,-0.139 -0.274,-0.272 -0.41,-0.409 -0.135,-0.139 -0.273,-0.272 -0.409,-0.409 -0.135,-0.139 -0.274,-0.272 -0.41,-0.409 -0.135,-0.139 -0.273,-0.272 -0.409,-0.409 -0.135,-0.139 -0.273,-0.272 -0.409,-0.409 -0.136,-0.139 -0.274,-0.271 -0.41,-0.409 -0.135,-0.139 -0.273,-0.271 -0.409,-0.409 -0.136,-0.139 -0.274,-0.271 -0.41,-0.409 -0.135,-0.139 -0.274,-0.272 -0.409,-0.409 -0.135,-0.139 -0.274,-0.272 -0.41,-0.409 -0.135,-0.139 -0.273,-0.272 -0.409,-0.409 -0.135,-0.139 -0.275,-0.272 -0.41,-0.409 -0.135,-0.139 -0.273,-0.272 -0.409,-0.409 -0.135,-0.139 -0.273,-0.272 -0.41,-0.409 -0.135,-0.139 -0.273,-0.271 -0.409,-0.409 -0.135,-0.139 -0.273,-0.271 -0.41,-0.409 -0.135,-0.139 -0.273,-0.271 -0.409,-0.409 -0.135,-0.139 -0.273,-0.271 -0.409,-0.409 -0.136,-0.139 -0.274,-0.271 -0.41,-0.409 -0.135,-0.139 -0.273,-0.272 -0.409,-0.409 -0.135,-0.139 -0.274,-0.272 -0.41,-0.409 -0.135,-0.139 -0.273,-0.272 -0.409,-0.409 -0.135,-0.139 -0.274,-0.272 -0.41,-0.409 -0.135,-0.139 -0.273,-0.272 -0.409,-0.409 -0.135,-0.139 -0.274,-0.271 -0.41,-0.409 -0.135,-0.139 -0.273,-0.271 -0.409,-0.409 -0.135,-0.139 -0.273,-0.271 -0.41,-0.409 -0.135,-0.139 -0.273,-0.271 -0.409,-0.409 -0.135,-0.139 -0.273,-0.272 -0.41,-0.409 -0.135,-0.139 -0.273,-0.272 -0.409,-0.409 -0.135,-0.139 -0.273,-0.272 -0.409,-0.409 -0.136,-0.139 -0.274,-0.272 -0.41,-0.409 -0.135,-0.139 -0.273,-0.272 -0.409,-0.409 -0.136,-0.139 -0.274,-0.271 -0.41,-0.409 -0.135,-0.139 -0.273,-0.271 -0.409,-0.409 -0.135,-0.139 -0.274,-0.271 -0.41,-0.409 -0.135,-0.139 -0.273,-0.271 -0.409,-0.409 -0.135,-0.139 -0.274,-0.271 -0.41,-0.409 -0.135,-0.139 -0.273,-0.272 -0.409,-0.409 -0.135,-0.139 -0.273,-0.272 -0.41,-0.409 -0.135,-0.139 -0.273,-0.272 -0.409,-0.409 -0.135,-0.139 -0.273,-0.272 -0.41,-0.409 -0.135,-0.139 -0.273,-0.272 -0.409,-0.409 -0.135,-0.139 -0.273,-0.271 -0.409,-0.409 -0.136,-0.139 -0.274,-0.271 -0.41,-0.409 -0.135,-0.139 -0.273,-0.271 -0.409,-0.409 -0.135,-0.139 -0.274,-0.271 -0.41,-0.409 -0.135,-0.139 -0.273,-0.272 -0.409,-0.409 -0.135,-0.139 -0.274,-0.272 -0.41,-0.409 -0.135,-0.139 -0.273,-0.272 -0.409,-0.409 -0.135,-0.139 -0.274,-0.272 -0.41,-0.409 -0.135,-0.139 -0.273,-0.272 -0.409,-0.409 -0.135,-0.139 -0.273,-0.272 -0.41,-0.409 -0.135,-0.139 -0.273,-0.271 -0.409,-0.409 -0.135,-0.139 -0.273,-0.271 -0.41,-0.409 -0.135,-0.139 -0.273,-0.271 -0.409,-0.409 -0.135,-0.139 -0.273,-0.271 -0.409,-0.409 -0.136,-0.139 -0.274,-0.271 -0.41,-0.409 -0.135,-0.139 -0.273,-0.272 -0.409,-0.409 -0.135,-0.139 -0.275,-0.272 -0.41,-0.409 -0.135,-0.139 -0.273,-0.272 -0.409,-0.409 -0.135,-0.139 -0.274,-0.272 -0.41,-0.409 -0.135,-0.139 -0.273,-0.272 -0.409,-0.409 -0.135,-0.139 -0.274,-0.271 -0.41,-0.409 -0.135,-0.139 -0.273,-0.271 -0.409,-0.409 -0.135,-0.139 -0.273,-0.271 -0.41,-0.409 -0.135,-0.139 -0.273,-0.271 -0.409,-0.409 -0.135,-0.139 -0.273,-0.272 -0.409,-0.409 -0.136,-0.139 -0.274,-0.272 -0.41,-0.409 -0.135,-0.139 -0.274,-0.272 -0.409,-0.409 -0.136,-0.139 -0.274,-0.272 -0.41,-0.409 -0.135,-0.139 -0.273,-0.272 -0.409,-0.409 -0.135,-0.139 -0.275,-0.271 -0.41,-0.409 -0.233,-0.241 -0.476,-0.471 -0.713,-0.706 -0.036,-0.037 -0.07,-0.076 -0.106,-0.112 -0.135,-0.139 -0.273,-0.271 -0.409,-0.409 -0.135,-0.139 -0.273,-0.272 -0.41,-0.409 -0.135,-0.139 -0.273,-0.272 -0.409,-0.409 -0.135,-0.139 -0.273,-0.272 -0.41,-0.409 -0.135,-0.139 -0.273,-0.272 -0.409,-0.409 -0.135,-0.139 -0.273,-0.272 -0.409,-0.409 -0.136,-0.139 -0.274,-0.272 -0.41,-0.409 -0.135,-0.139 -0.273,-0.271 -0.409,-0.409 -0.135,-0.139 -0.274,-0.272 -0.41,-0.409 -0.135,-0.139 -0.273,-0.271 -0.409,-0.409 -0.135,-0.139 -0.275,-0.271 -0.41,-0.409 -0.135,-0.139 -0.273,-0.272 -0.409,-0.409 -0.135,-0.139 -0.274,-0.272 -0.41,-0.409 -0.135,-0.139 -0.273,-0.272 -0.409,-0.409 -0.135,-0.139 -0.273,-0.272 -0.41,-0.409 -0.135,-0.139 -0.273,-0.272 -0.409,-0.409 -0.135,-0.139 -0.274,-0.272 -0.41,-0.409 -0.135,-0.139 -0.273,-0.271 -0.409,-0.409 -0.135,-0.139 -0.273,-0.271 -0.409,-0.409 -0.136,-0.139 -0.274,-0.271 -0.41,-0.409 -0.135,-0.139 -0.273,-0.271 -0.409,-0.409 -0.136,-0.139 -0.274,-0.272 -0.41,-0.409 -0.135,-0.139 -0.273,-0.272 -0.409,-0.409 -0.135,-0.139 -0.274,-0.272 -0.41,-0.409 -0.135,-0.139 -0.273,-0.272 -0.409,-0.409 -0.135,-0.139 -0.274,-0.272 -0.41,-0.409 -0.135,-0.139 -0.273,-0.272 -0.409,-0.409 -0.135,-0.139 -0.273,-0.271 -0.41,-0.409 -0.135,-0.139 -0.273,-0.271 -0.409,-0.409 -0.135,-0.139 -0.273,-0.271 -0.409,-0.409 -0.136,-0.139 -0.274,-0.271 -0.41,-0.409 -0.135,-0.139 -0.273,-0.272 -0.409,-0.409 -0.136,-0.139 -0.274,-0.272 -0.41,-0.409 -0.135,-0.139 -0.273,-0.272 -0.409,-0.409 -0.135,-0.139 -0.274,-0.272 -0.41,-0.409 -0.135,-0.139 -0.273,-0.272 -0.409,-0.409 -0.135,-0.139 -0.274,-0.271 -0.41,-0.409 -0.135,-0.139 -0.273,-0.271 -0.409,-0.409 -0.135,-0.139 -0.274,-0.271 -0.41,-0.409 -0.135,-0.139 -0.273,-0.271 -0.409,-0.409 -0.135,-0.139 -0.273,-0.271 -0.41,-0.409 -0.135,-0.139 -0.273,-0.272 -0.409,-0.409 -0.135,-0.139 -0.273,-0.272 -0.41,-0.409 -0.135,-0.139 -0.273,-0.272 -0.409,-0.409 -0.135,-0.139 -0.273,-0.272 -0.409,-0.409 -0.136,-0.139 -0.274,-0.272 -0.41,-0.409 -0.135,-0.139 -0.273,-0.271 -0.409,-0.409 -0.135,-0.139 -0.274,-0.271 -0.41,-0.409 -0.135,-0.139 -0.273,-0.271 -0.409,-0.409 -0.135,-0.139 -0.274,-0.271 -0.41,-0.409 -0.135,-0.139 -0.273,-0.272 -0.409,-0.409 -0.135,-0.139 -0.274,-0.272 -0.41,-0.409 -0.135,-0.139 -0.273,-0.272 -0.409,-0.409 -0.135,-0.139 -0.273,-0.272 -0.41,-0.409 -0.135,-0.139 -0.273,-0.272 -0.409,-0.409 -0.135,-0.139 -0.273,-0.272 -0.409,-0.409 -0.136,-0.139 -0.274,-0.271 -0.41,-0.409 -0.135,-0.139 -0.273,-0.271 -0.409,-0.409 -0.136,-0.139 -0.275,-0.271 -0.41,-0.409 -0.135,-0.139 -0.273,-0.271 -0.409,-0.409 -0.135,-0.139 -0.274,-0.272 -0.41,-0.409 -0.135,-0.139 -0.273,-0.272 -0.409,-0.409 -0.135,-0.139 -0.274,-0.272 -0.41,-0.409 -0.135,-0.139 -0.273,-0.272 -0.409,-0.409 -0.135,-0.139 -0.273,-0.272 -0.41,-0.409 -0.135,-0.139 -0.273,-0.272 -0.409,-0.409 -0.135,-0.139 -0.273,-0.271 -0.41,-0.409 -0.135,-0.139 -0.273,-0.271 -0.409,-0.409 -0.135,-0.139 -0.273,-0.271 -0.409,-0.409 -0.136,-0.139 -0.274,-0.271 -0.41,-0.409 -0.135,-0.139 -0.273,-0.272 -0.409,-0.409 -0.135,-0.139 -0.275,-0.272 -0.41,-0.409 -0.135,-0.139 -0.273,-0.272 -0.409,-0.409 -0.135,-0.139 -0.274,-0.272 -0.41,-0.409 -0.135,-0.139 -0.273,-0.272 -0.409,-0.409 -0.135,-0.139 -0.274,-0.273 -0.41,-0.409 -0.135,-0.139 -0.273,-0.271 -0.409,-0.409 -0.135,-0.139 -0.273,-0.272 -0.41,-0.409 -0.135,-0.139 -0.273,-0.271 -0.409,-0.409 -0.135,-0.139 -0.273,-0.272 -0.41,-0.409 -0.135,-0.139 -0.273,-0.272 -0.409,-0.409 -0.135,-0.139 -0.274,-0.272 -0.409,-0.409 -0.136,-0.139 -0.274,-0.272 -0.41,-0.409 -0.135,-0.139 -0.273,-0.272 -0.409,-0.409 -0.135,-0.139 -0.275,-0.272 -0.41,-0.409 -0.135,-0.139 -0.273,-0.272 -0.409,-0.409 -0.135,-0.139 -0.274,-0.271 -0.41,-0.409 -0.135,-0.139 -0.273,-0.272 -0.409,-0.409 -0.135,-0.139 -0.274,-0.271 -0.41,-0.409 -0.134,-0.139 -0.272,-0.272 -0.408,-0.409 -0.135,-0.14 -0.274,-0.273 -0.411,-0.41 -0.135,-0.14 -0.273,-0.273 -0.409,-0.409 -0.135,-0.139 -0.273,-0.272 -0.409,-0.409 -0.135,-0.139 -0.274,-0.273 -0.41,-0.41 -0.135,-0.139 -0.273,-0.272 -0.409,-0.41 -0.136,-0.139 -0.274,-0.271 -0.41,-0.409 -0.135,-0.139 -0.273,-0.272 -0.409,-0.41 -0.135,-0.139 -0.274,-0.271 -0.41,-0.409 -0.135,-0.139 -0.273,-0.271 -0.409,-0.408 -0.135,-0.14 -0.274,-0.273 -0.41,-0.41 -0.135,-0.14 -0.274,-0.273 -0.409,-0.409 -0.135,-0.139 -0.273,-0.272 -0.41,-0.409 -0.135,-0.14 -0.273,-0.273 -0.41,-0.41 -0.134,-0.14 -0.272,-0.272 -0.41,-0.41 -0.134,-0.139 -0.272,-0.272 -0.408,-0.409 -0.135,-0.139 -0.273,-0.272 -0.41,-0.41 -0.234,-0.242 -0.477,-0.472 -0.715,-0.707 -0.035,-0.036 -0.068,-0.075 -0.104,-0.111 -0.136,-0.139 -0.274,-0.272 -0.411,-0.409 -0.134,-0.14 -0.273,-0.272 -0.408,-0.409 -0.135,-0.14 -0.274,-0.273 -0.411,-0.41 -0.135,-0.139 -0.273,-0.272 -0.409,-0.409 -0.134,-0.139 -0.273,-0.272 -0.409,-0.409 -0.135,-0.14 -0.273,-0.272 -0.41,-0.41 -0.135,-0.139 -0.274,-0.272 -0.41,-0.409 -0.134,-0.139 -0.272,-0.271 -0.407,-0.408 -0.135,-0.139 -0.273,-0.271 -0.41,-0.409 -0.135,-0.139 -0.273,-0.272 -0.41,-0.41 -0.134,-0.139 -0.272,-0.272 -0.408,-0.409 -0.136,-0.14 -0.274,-0.272 -0.411,-0.41 -0.134,-0.139 -0.272,-0.272 -0.408,-0.409 -0.135,-0.14 -0.274,-0.273 -0.41,-0.41 -0.135,-0.14 -0.273,-0.273 -0.41,-0.41 -0.134,-0.139 -0.273,-0.272 -0.409,-0.409 -0.135,-0.139 -0.273,-0.273 -0.409,-0.41 -0.135,-0.139 -0.275,-0.272 -0.411,-0.41 -0.135,-0.139 -0.273,-0.271 -0.409,-0.409 -0.134,-0.139 -0.273,-0.272 -0.41,-0.409 -0.134,-0.139 -0.273,-0.272 -0.409,-0.41 -0.135,-0.139 -0.273,-0.271 -0.41,-0.408 -0.134,-0.14 -0.273,-0.273 -0.409,-0.41 -0.135,-0.14 -0.273,-0.272 -0.409,-0.409 -0.135,-0.14 -0.273,-0.273 -0.41,-0.409 -0.133,-0.139 -0.271,-0.27 -0.405,-0.406 -0.135,-0.139 -0.274,-0.271 -0.41,-0.409 -0.134,-0.139 -0.272,-0.271 -0.408,-0.409 -0.135,-0.139 -0.273,-0.271 -0.41,-0.409 -0.134,-0.139 -0.272,-0.271 -0.408,-0.409 -0.135,-0.139 -0.273,-0.272 -0.41,-0.409 -0.134,-0.139 -0.272,-0.272 -0.408,-0.409 -0.135,-0.139 -0.273,-0.272 -0.409,-0.409 -0.135,-0.139 -0.273,-0.272 -0.409,-0.409 -0.135,-0.139 -0.273,-0.272 -0.409,-0.409 -0.134,-0.139 -0.273,-0.272 -0.409,-0.409 -0.135,-0.139 -0.273,-0.271 -0.409,-0.409 -0.134,-0.139 -0.273,-0.271 -0.409,-0.409 -0.135,-0.139 -0.273,-0.272 -0.409,-0.409 -0.134,-0.139 -0.272,-0.271 -0.409,-0.409 -0.135,-0.139 -0.273,-0.272 -0.409,-0.409 -0.134,-0.139 -0.272,-0.272 -0.408,-0.409 -0.136,-0.139 -0.274,-0.272 -0.41,-0.409 -0.134,-0.139 -0.273,-0.272 -0.408,-0.409 -0.135,-0.139 -0.274,-0.272 -0.41,-0.409 -0.134,-0.139 -0.272,-0.272 -0.408,-0.409 -0.135,-0.139 -0.274,-0.271 -0.41,-0.409 -0.134,-0.139 -0.273,-0.271 -0.409,-0.409 -0.135,-0.139 -0.274,-0.271 -0.41,-0.409 -0.134,-0.139 -0.273,-0.271 -0.409,-0.409 -0.135,-0.139 -0.274,-0.272 -0.41,-0.409 -0.134,-0.139 -0.273,-0.272 -0.409,-0.409 -0.135,-0.139 -0.274,-0.272 -0.41,-0.409 -0.134,-0.139 -0.272,-0.272 -0.409,-0.409 -0.135,-0.139 -0.273,-0.272 -0.41,-0.409 -0.134,-0.139 -0.273,-0.271 -0.409,-0.409 -0.135,-0.139 -0.273,-0.271 -0.409,-0.409 -0.134,-0.139 -0.273,-0.271 -0.409,-0.409 -0.135,-0.139 -0.274,-0.271 -0.41,-0.409 -0.134,-0.139 -0.273,-0.272 -0.409,-0.409 -0.135,-0.139 -0.274,-0.272 -0.41,-0.409 -0.134,-0.139 -0.273,-0.272 -0.409,-0.409 -0.135,-0.139 -0.274,-0.272 -0.41,-0.409 -0.134,-0.139 -0.272,-0.272 -0.409,-0.409 -0.135,-0.139 -0.273,-0.272 -0.41,-0.409 -0.134,-0.139 -0.272,-0.271 -0.408,-0.409 -0.135,-0.139 -0.274,-0.271 -0.41,-0.409 -0.134,-0.139 -0.273,-0.271 -0.409,-0.409 -0.135,-0.139 -0.274,-0.271 -0.41,-0.409 -0.134,-0.139 -0.273,-0.272 -0.409,-0.409 -0.234,-0.242 -0.475,-0.471 -0.713,-0.707 -0.035,-0.036 -0.069,-0.075 -0.105,-0.112 -0.135,-0.139 -0.273,-0.272 -0.41,-0.409 -0.134,-0.139 -0.272,-0.272 -0.409,-0.409 -0.135,-0.139 -0.273,-0.272 -0.41,-0.409 -0.134,-0.139 -0.272,-0.271 -0.408,-0.409 -0.135,-0.139 -0.274,-0.271 -0.41,-0.409 -0.134,-0.139 -0.273,-0.271 -0.409,-0.409 -0.135,-0.139 -0.274,-0.271 -0.41,-0.409 -0.134,-0.139 -0.273,-0.272 -0.409,-0.409 -0.135,-0.139 -0.274,-0.272 -0.41,-0.409 -0.134,-0.139 -0.273,-0.272 -0.409,-0.409 -0.135,-0.139 -0.273,-0.272 -0.41,-0.409 -0.134,-0.139 -0.272,-0.272 -0.409,-0.409 -0.135,-0.139 -0.273,-0.271 -0.41,-0.409 -0.134,-0.139 -0.273,-0.271 -0.408,-0.409 -0.135,-0.139 -0.274,-0.271 -0.41,-0.409 -0.134,-0.139 -0.273,-0.271 -0.409,-0.409 -0.135,-0.139 -0.274,-0.271 -0.41,-0.409 -0.134,-0.139 -0.273,-0.272 -0.409,-0.409 -0.135,-0.139 -0.274,-0.272 -0.41,-0.409 -0.134,-0.139 -0.273,-0.272 -0.409,-0.409 -0.135,-0.139 -0.273,-0.272 -0.41,-0.409 -0.134,-0.139 -0.272,-0.272 -0.409,-0.409 -0.135,-0.139 -0.273,-0.271 -0.409,-0.409 -0.134,-0.139 -0.273,-0.271 -0.409,-0.409 -0.135,-0.139 -0.274,-0.271 -0.41,-0.409 -0.134,-0.139 -0.273,-0.271 -0.409,-0.409 -0.135,-0.139 -0.274,-0.272 -0.41,-0.409 -0.134,-0.139 -0.273,-0.272 -0.409,-0.409 -0.135,-0.139 -0.274,-0.272 -0.41,-0.409 -0.134,-0.139 -0.273,-0.272 -0.409,-0.409 -0.135,-0.139 -0.273,-0.272 -0.41,-0.409 -0.134,-0.139 -0.272,-0.272 -0.409,-0.409 -0.135,-0.139 -0.273,-0.271 -0.41,-0.409 -0.134,-0.139 -0.272,-0.271 -0.408,-0.409 -0.135,-0.139 -0.274,-0.271 -0.41,-0.409 -0.134,-0.139 -0.273,-0.271 -0.409,-0.409 -0.135,-0.139 -0.274,-0.272 -0.41,-0.409 -0.134,-0.139 -0.273,-0.272 -0.409,-0.409 -0.135,-0.139 -0.274,-0.272 -0.41,-0.409 -0.134,-0.139 -0.272,-0.272 -0.409,-0.409 -0.135,-0.139 -0.274,-0.272 -0.41,-0.409 -0.134,-0.139 -0.272,-0.272 -0.409,-0.409 -0.135,-0.139 -0.273,-0.271 -0.409,-0.409 -0.134,-0.139 -0.273,-0.271 -0.409,-0.409 -0.135,-0.139 -0.274,-0.271 -0.41,-0.409 -0.134,-0.139 -0.273,-0.271 -0.409,-0.409 -0.135,-0.139 -0.274,-0.272 -0.41,-0.409 -0.134,-0.139 -0.273,-0.272 -0.409,-0.409 -0.135,-0.139 -0.274,-0.272 -0.41,-0.409 -0.134,-0.139 -0.272,-0.272 -0.409,-0.409 -0.135,-0.139 -0.273,-0.272 -0.41,-0.409 -0.232,-0.241 -0.475,-0.471 -0.712,-0.707 -0.036,-0.036 -0.07,-0.075 -0.105,-0.112 -0.134,-0.139 -0.273,-0.271 -0.409,-0.409 -0.135,-0.139 -0.274,-0.271 -0.41,-0.409 -0.134,-0.139 -0.273,-0.271 -0.409,-0.409 -0.135,-0.139 -0.274,-0.272 -0.41,-0.409 -0.134,-0.139 -0.273,-0.272 -0.409,-0.409 -0.135,-0.139 -0.274,-0.272 -0.41,-0.409 -0.134,-0.139 -0.272,-0.272 -0.409,-0.409 -0.135,-0.139 -0.273,-0.272 -0.41,-0.409 -0.134,-0.139 -0.272,-0.271 -0.409,-0.409 -0.135,-0.139 -0.273,-0.271 -0.409,-0.409 -0.134,-0.139 -0.273,-0.271 -0.409,-0.409 -0.135,-0.139 -0.274,-0.271 -0.41,-0.409 -0.134,-0.139 -0.273,-0.272 -0.409,-0.409 -0.135,-0.139 -0.274,-0.272 -0.41,-0.409 -0.134,-0.139 -0.273,-0.272 -0.409,-0.409 -0.135,-0.139 -0.274,-0.272 -0.41,-0.409 -0.134,-0.139 -0.272,-0.272 -0.409,-0.409 -0.135,-0.139 -0.273,-0.272 -0.41,-0.409 -0.134,-0.139 -0.272,-0.272 -0.408,-0.409 -0.135,-0.139 -0.274,-0.271 -0.41,-0.409 -0.134,-0.139 -0.273,-0.271 -0.409,-0.409 -0.135,-0.139 -0.274,-0.272 -0.41,-0.409 -0.134,-0.139 -0.273,-0.272 -0.409,-0.409 -0.135,-0.139 -0.274,-0.272 -0.41,-0.409 -0.134,-0.139 -0.273,-0.272 -0.409,-0.409 -0.135,-0.139 -0.273,-0.272 -0.41,-0.409 -0.134,-0.139 -0.272,-0.272 -0.409,-0.409 -0.135,-0.139 -0.273,-0.272 -0.41,-0.409 -0.134,-0.139 -0.272,-0.271 -0.408,-0.409 -0.135,-0.139 -0.274,-0.271 -0.41,-0.409 -0.134,-0.139 -0.273,-0.271 -0.409,-0.409 -0.135,-0.139 -0.274,-0.271 -0.41,-0.409 -0.134,-0.139 -0.273,-0.272 -0.409,-0.409 -0.135,-0.139 -0.274,-0.272 -0.41,-0.409 -0.134,-0.139 -0.273,-0.272 -0.409,-0.409 -0.135,-0.139 -0.273,-0.272 -0.41,-0.409 -0.134,-0.139 -0.272,-0.272 -0.409,-0.409 -0.135,-0.139 -0.273,-0.271 -0.41,-0.409 -0.134,-0.139 -0.272,-0.271 -0.408,-0.409 -0.135,-0.139 -0.274,-0.271 -0.41,-0.409 -0.134,-0.139 -0.273,-0.271 -0.409,-0.409 -0.135,-0.139 -0.274,-0.271 -0.41,-0.409 -0.134,-0.139 -0.273,-0.272 -0.409,-0.409 -0.135,-0.139 -0.274,-0.272 -0.41,-0.409 -0.134,-0.139 -0.273,-0.272 -0.409,-0.409 -0.135,-0.139 -0.273,-0.272 -0.41,-0.409 -0.134,-0.139 -0.272,-0.272 -0.409,-0.409 -0.135,-0.139 -0.273,-0.271 -0.409,-0.409 -0.134,-0.139 -0.273,-0.271 -0.409,-0.409 -0.135,-0.139 -0.274,-0.271 -0.41,-0.409 -0.134,-0.139 -0.273,-0.271 -0.409,-0.409 -0.135,-0.139 -0.274,-0.272 -0.41,-0.409 -0.134,-0.139 -0.273,-0.272 -0.409,-0.409 -0.135,-0.139 -0.274,-0.272 -0.41,-0.409 -0.134,-0.139 -0.272,-0.272 -0.409,-0.409 -0.135,-0.139 -0.273,-0.272 -0.41,-0.409 -0.134,-0.139 -0.273,-0.272 -0.409,-0.409 -7.035,-7.282 -16.21,-11.699 -26.257,-11.699 -18.136,0 -31.656,14.36 -35.957,34.06 h -12.953 v 11.181 h 0.409 v 0.409 h 0.409 v 0.409 h 0.41 v 0.409 h 0.409 v 0.409 h 0.41 v 0.409 h 0.409 v 0.409 h 0.41 v 0.409 h 0.409 v 0.409 h 0.41 v 0.409 h 0.408 v 0.409 h 0.41 v 0.409 h 0.409 v 0.409 h 0.41 v 0.208 h -5.319 v 11.181 h 0.409 v 0.409 h 0.409 v 0.409 h 0.41 v 0.409 h 0.409 v 0.409 h 0.41 v 0.409 h 0.409 v 0.409 h 0.41 v 0.409 h 0.409 v 0.409 h 0.41 v 0.409 h 0.408 v 0.409 h 0.41 v 0.409 h 0.409 v 0.409 h 0.41 v 0.409 h 0.409 v 0.409 h 0.41 v 0.409 h 0.409 v 0.409 h 0.41 v 0.409 h 0.409 v 0.409 h 0.41 v 0.409 h 0.408 v 0.409 h 0.41 v 0.409 h 0.409 v 0.409 h 0.41 v 0.409 h 0.409 v 0.409 h 0.41 v 0.409 h 0.409 v 0.409 h 0.41 v 0.409 h 0.409 v 0.409 h 0.41 v 0.409 h 0.408 v 0.409 h 0.41 v 0.409 h 0.409 v 0.409 h 0.41 v 0.409 h 0.409 v 0.409 h 0.41 v 0.409 h 0.409 v 0.409 h 0.41 v 0.409 h 0.409 v 0.409 h 0.409 v 0.409 h 0.409 v 0.409 h 0.41 v 0.409 h 0.409 v 0.409 h 0.41 v 0.409 h 0.409 v 0.409 h 0.41 v 0.409 h 0.409 v 0.409 h 0.41 v 0.409 h 0.409 v 0.409 h 0.41 v 0.409 h 0.408 v 0.409 h 0.41 v 0.409 h 0.409 v 0.409 h 0.41 v 0.409 h 0.409 v 0.409 h 0.41 v 0.409 h 0.409 v 0.409 h 0.41 v 0.409 h 0.409 v 0.409 h 0.409 v 0.409 h 0.409 v 0.409 h 0.41 v 0.409 h 0.409 v 0.409 h 0.41 v 0.409 h 0.409 v 0.409 h 0.41 v 0.409 h 0.409 v 0.409 h 0.41 v 0.409 h 0.408 v 0.409 h 0.41 v 0.409 h 0.409 v 0.409 h 0.41 v 0.409 h 0.409 v 0.409 h 0.41 v 0.409 h 0.409 v 0.409 h 0.41 v 0.409 h 0.409 v 0.409 h 0.41 v 0.409 h 0.409 v 0.409 h 0.409 v 0.409 h 0.409 v 0.409 h 0.41 v 0.409 h 0.409 v 0.409 h 0.41 v 0.409 h 0.409 v 0.409 h 0.41 v 0.409 h 0.409 v 0.409 h 0.41 v 0.409 h 0.408 v 0.409 h 0.41 v 0.409 h 0.409 v 0.409 h 0.41 v 0.409 h 0.409 v 0.409 h 0.41 v 0.409 h 0.409 v 0.409 h 0.41 v 0.409 h 0.409 v 0.409 h 0.41 v 0.409 h 0.408 v 0.409 h 0.41 v 0.409 h 0.409 v 0.409 h 0.41 v 0.409 h 0.409 v 0.409 h 0.41 v 0.409 h 0.409 v 0.409 h 0.41 v 0.409 h 0.409 v 0.409 h 0.41 v 0.409 h 0.408 v 0.409 h 0.41 v 0.409 h 0.409 v 0.409 h 0.41 v 0.409 h 0.409 v 0.409 h 0.41 v 0.409 h 0.409 v 0.409 h 0.41 v 0.409 h 0.409 v 0.409 h 0.409 v 0.409 h 0.409 v 0.409 h 0.41 v 0.409 h 0.409 v 0.409 h 0.41 v 0.409 h 0.409 v 0.409 h 0.41 v 0.409 h 0.409 v 0.409 h 0.41 v 0.409 h 0.409 v 0.409 h 0.41 v 0.409 h 0.408 v 0.409 h 0.41 v 0.409 h 0.409 v 0.409 h 0.41 v 0.409 h 0.409 v 0.409 h 0.41 v 0.409 h 0.409 v 0.409 h 0.41 v 0.409 h 0.409 v 0.409 h 0.409 v 0.409 h 0.409 v 0.409 h 0.41 v 0.409 h 0.409 v 0.409 h 0.41 v 0.409 h 0.409 v 0.409 h 0.41 v 0.409 h 0.409 v 0.409 h 0.41 v 0.409 h 0.408 v 0.409 h 0.41 v 0.409 h 0.409 v 0.409 h 0.41 v 0.409 h 0.409 v 0.409 h 0.41 v 0.409 h 0.409 v 0.409 h 0.41 v 0.409 h 0.409 v 0.409 h 0.41 v 0.409 h 0.409 v 0.409 h 0.409 v 0.409 h 0.409 v 0.409 h 0.41 v 0.409 h 0.409 v 0.409 h 0.41 v 0.409 h 0.409 v 0.409 h 0.41 v 0.409 h 0.409 v 0.409 h 0.41 v 0.409 h 0.408 v 0.409 h 0.41 v 0.409 h 0.409 v 0.409 h 0.41 v 0.409 h 0.409 v 0.409 h 0.41 v 0.409 h 0.409 v 0.409 h 0.41 v 0.409 h 0.409 v 0.409 h 0.41 v 0.409 h 0.408 v 0.409 h 0.41 v 0.409 h 0.409 v 0.409 h 0.41 v 0.409 h 0.409 v 0.409 h 0.41 v 0.409 h 0.409 v 0.409 h 0.41 v 0.409 h 0.409 v 0.409 h 0.41 v 0.409 h 0.408 v 0.409 h 0.41 v 0.409 h 0.409 v 0.409 h 0.41 v 0.409 h 0.409 v 0.409 h 0.41 v 0.409 h 0.409 v 0.409 h 0.41 v 0.409 h 0.409 v 0.409 h 0.409 v 0.409 h 0.409 v 0.409 h 0.41 v 0.409 h 0.409 v 0.409 h 0.41 v 0.409 h 0.409 v 0.409 h 0.41 v 0.409 h 0.409 v 0.409 h 0.41 v 0.409 h 0.409 v 0.409 h 0.41 v 0.409 h 0.408 v 0.409 h 0.41 v 0.409 h 0.409 v 0.409 h 0.41 v 0.409 h 0.409 v 0.409 h 0.41 v 0.409 h 0.409 v 0.409 h 0.41 v 0.409 h 0.409 v 0.409 h 0.409 v 0.409 h 0.409 v 0.409 h 0.41 v 0.409 h 0.409 v 0.409 h 0.41 v 0.409 h 0.409 v 0.409 h 0.41 v 0.409 h 0.409 v 0.409 h 0.41 v 0.409 h 0.408 v 0.409 h 0.41 v 0.409 h 0.409 v 0.409 h 0.41 v 0.409 h 0.409 v 0.409 h 0.41 v 0.409 h 0.409 v 0.409 h 0.41 v 0.409 h 0.409 v 0.409 h 0.41 v 0.409 h 0.409 v 0.409 h 0.409 v 0.409 h 0.409 v 0.409 h 0.41 v 0.409 h 0.409 v 0.409 h 0.41 v 0.409 h 0.409 v 0.409 h 0.41 v 0.409 h 0.409 v 0.409 h 0.41 v 0.409 h 0.408 v 0.409 h 0.41 v 0.409 h 0.409 v 0.409 h 0.41 v 0.409 h 0.409 v 0.409 h 0.41 v 0.409 h 0.409 v 0.409 h 0.41 v 0.409 h 0.409 v 0.409 h 0.41 v 0.409 h 0.408 v 0.409 h 0.41 v 0.409 h 0.409 v 0.409 h 0.41 v 0.409 h 0.409 v 0.409 h 0.41 v 0.409 h 0.409 v 0.409 h 0.41 v 0.409 h 0.409 v 0.409 h 0.41 v 0.409 h 0.408 v 0.409 h 0.41 v 0.409 h 0.409 v 0.409 h 0.41 v 0.409 h 0.409 v 0.409 h 0.41 v 0.409 h 0.409 v 0.409 h 0.41 v 0.409 h 0.409 v 0.409 h 0.409 v 0.409 h 0.409 v 0.409 h 0.41 v 0.409 h 0.409 v 0.409 h 0.41 v 0.409 h 0.409 v 0.409 h 0.41 v 0.409 h 0.409 v 0.409 h 0.41 v 0.409 h 0.409 v 0.409 h 0.41 v 0.409 h 0.408 v 0.409 h 0.41 v 0.409 h 0.409 v 0.409 h 0.41 v 0.409 h 0.409 v 0.409 h 0.41 v 0.409 h 0.409 v 0.409 h 0.41 v 0.409 h 0.409 v 0.409 h 0.409 v 0.409 h 0.409 v 0.409 h 0.41 v 0.409 h 0.409 v 0.409 h 0.41 v 0.409 h 0.409 v 0.409 h 0.41 v 0.409 h 0.409 v 0.409 h 0.41 v 0.409 h 0.408 v 0.409 h 0.41 v 0.409 h 0.409 v 0.409 h 0.41 v 0.409 h 0.409 v 0.409 h 0.41 v 0.409 h 0.409 v 0.409 h 0.41 v 0.409 h 0.409 v 0.409 h 0.41 v 0.409 h 0.409 v 0.409 h 0.409 v 0.409 h 0.409 v 0.409 h 0.41 v 0.409 h 0.409 v 0.409 h 0.41 v 0.409 h 0.409 v 0.409 h 0.41 v 0.409 h 0.409 v 0.409 h 0.41 v 0.409 h 0.408 v 0.409 h 0.41 v 0.409 h 0.408 v 0.409 h 0.41 v 0.409 h 0.408 v 0.409 h 0.409 v 0.409 h 0.409 v 0.409 h 0.409 v 0.409 h 0.409 v 0.409 h 0.409 v 0.409 h 0.409 v 0.409 h 0.409 v 0.409 h 0.409 v 0.409 h 0.409 v 0.409 h 0.408 v 0.409 h 0.41 v 0.409 h 0.408 v 0.409 h 0.41 v 0.409 h 0.408 v 0.409 h 0.41 v 0.409 h 0.408 v 0.409 h 0.41 v 0.409 h 0.408 v 0.409 h 0.41 v 0.409 h 0.408 v 0.409 h 0.409 v 0.409 h 0.41 v 0.409 h 0.409 v 0.409 H 413 v 0.409 h 0.409 v 0.409 h 0.41 v 0.409 h 0.409 v 0.409 h 0.41 v 0.409 h 0.409 v 0.409 h 0.41 v 0.409 h 0.409 v 0.409 h 0.41 v 0.409 h 0.409 v 0.409 h 0.409 v 0.409 h 0.41 v 0.409 h 0.409 v 0.409 h 0.41 v 0.409 h 0.409 v 0.409 h 0.41 v 0.409 h 0.409 v 0.409 h 0.41 v 0.409 h 0.409 v 0.409 h 0.41 v 0.409 h 0.409 v 0.409 h 0.409 v 0.409 h 0.41 v 0.409 h 0.409 v 0.409 h 0.41 v 0.409 h 0.409 v 0.409 h 0.41 v 0.409 h 0.409 v 0.409 h 0.41 v 0.409 h 0.409 v 0.409 h 0.41 v 0.409 h 0.409 v 0.409 h 0.41 v 0.409 h 0.409 v 0.409 h 0.409 v 0.409 h 0.41 v 0.409 h 0.409 v 0.409 h 0.41 v 0.409 h 0.409 v 0.409 h 0.41 v 0.409 h 0.409 v 0.409 h 0.41 v 0.409 h 0.409 v 0.409 h 0.41 v 0.409 h 0.409 v 0.409 h 0.41 v 0.409 h 0.409 v 0.409 h 0.409 v 0.409 h 0.41 v 0.409 h 0.409 v 0.409 h 0.41 v 0.409 h 0.409 v 0.409 h 0.41 v 0.409 h 0.409 v 0.409 h 0.41 v 0.409 h 0.409 v 0.409 h 0.41 v 0.409 h 0.409 v 0.409 h 0.41 v 0.409 h 0.409 v 0.409 h 0.409 v 0.409 h 0.41 v 0.409 h 0.409 v 0.409 h 0.41 v 0.409 h 0.409 v 0.409 h 0.41 v 0.409 h 0.409 v 0.409 h 0.41 v 0.409 h 0.409 v 0.409 h 0.41 v 0.409 h 0.409 v 0.409 h 0.41 v 0.409 h 0.409 v 0.409 h 0.409 v 0.409 h 0.41 v 0.409 h 0.409 v 0.409 h 0.41 v 0.409 h 0.409 v 0.409 h 0.41 v 0.409 h 0.409 v 0.409 h 0.41 v 0.409 h 0.409 v 0.409 h 0.41 v 0.409 h 0.409 v 0.409 h 0.409 v 0.409 h 0.41 v 0.409 h 0.409 v 0.409 h 0.41 v 0.409 h 0.409 v 0.409 h 0.41 v 0.409 h 0.409 v 0.409 h 0.41 v 0.409 h 0.409 v 0.409 h 0.41 v 0.409 h 0.409 v 0.409 h 0.41 v 0.409 h 0.409 v 0.409 h 0.409 v 0.409 h 0.41 v 0.409 h 0.409 v 0.409 h 0.41 v 0.409 h 0.409 v 0.409 h 0.41 v 0.409 h 0.409 v 0.409 h 0.41 v 0.409 h 0.409 v 0.409 h 0.41 v 0.409 h 0.409 v 0.409 h 0.41 v 0.409 h 0.409 v 0.409 h 0.409 v 0.409 h 0.41 v 0.409 h 0.409 v 0.409 h 0.41 v 0.409 h 0.409 v 0.409 h 0.41 v 0.409 h 0.409 v 0.409 h 0.41 v 0.409 h 0.409 v 0.409 h 0.41 v 0.409 h 0.409 v 0.409 h 0.41 v 0.409 h 0.409 v 0.409 h 0.409 v 0.409 h 0.41 v 0.409 h 0.409 v 0.409 h 0.41 v 0.409 h 0.409 v 0.409 h 0.41 v 0.409 h 0.409 v 0.409 h 0.41 v 0.409 h 0.409 v 0.409 h 0.41 v 0.409 h 0.409 v 0.409 h 0.41 v 0.409 h 0.409 v 0.409 h 0.409 v 0.409 h 0.41 v 0.409 h 0.409 v 0.409 h 0.41 v 0.409 h 0.409 v 0.409 h 0.41 v 0.409 h 0.409 v 0.409 h 0.41 v 0.409 h 0.409 v 0.409 h 0.41 v 0.409 h 0.409 v 0.409 h 0.409 v 0.409 h 0.41 v 0.409 h 0.409 v 0.409 h 0.41 v 0.409 h 1.333 c 0.126,0.126 0.25,0.253 0.377,0.376 0.138,0.137 0.272,0.275 0.41,0.409 0.137,0.137 0.271,0.275 0.409,0.409 0.137,0.137 0.272,0.275 0.41,0.409 0.137,0.137 0.271,0.275 0.409,0.409 0.137,0.137 0.271,0.275 0.41,0.409 0.137,0.137 0.271,0.275 0.409,0.409 0.137,0.137 0.272,0.275 0.41,0.409 0.137,0.137 0.271,0.275 0.409,0.409 0.137,0.137 0.272,0.275 0.41,0.409 0.137,0.137 0.271,0.275 0.409,0.409 0.137,0.137 0.271,0.275 0.409,0.409 0.138,0.137 0.272,0.275 0.41,0.409 0.137,0.137 0.272,0.275 0.409,0.409 0.138,0.137 0.273,0.275 0.41,0.409 0.137,0.137 0.272,0.275 0.409,0.409 0.137,0.137 0.272,0.275 0.41,0.409 0.137,0.137 0.271,0.275 0.409,0.409 0.137,0.137 0.271,0.275 0.41,0.409 0.137,0.137 0.271,0.275 0.409,0.409 0.137,0.137 0.272,0.275 0.41,0.409 0.137,0.137 0.271,0.275 0.409,0.409 0.137,0.137 0.272,0.275 0.409,0.409 0.138,0.137 0.272,0.275 0.41,0.409 0.137,0.137 0.271,0.275 0.409,0.409 0.138,0.137 0.272,0.275 0.41,0.409 0.137,0.137 0.272,0.275 0.409,0.409 0.137,0.137 0.272,0.275 0.41,0.409 0.137,0.137 0.272,0.275 0.409,0.409 0.137,0.137 0.272,0.275 0.41,0.409 0.137,0.137 0.272,0.275 0.409,0.409 0.137,0.137 0.271,0.275 0.41,0.409 0.137,0.137 0.272,0.275 0.409,0.409 0.137,0.137 0.271,0.275 0.41,0.409 0.137,0.137 0.271,0.275 0.409,0.409 0.137,0.137 0.271,0.275 0.409,0.409 0.138,0.137 0.273,0.275 0.41,0.409 0.137,0.137 0.271,0.275 0.409,0.409 0.138,0.137 0.273,0.275 0.41,0.409 0.137,0.137 0.272,0.275 0.409,0.409 0.137,0.137 0.272,0.275 0.41,0.409 0.137,0.137 0.271,0.275 0.409,0.409 0.137,0.137 0.271,0.275 0.41,0.409 0.137,0.137 0.272,0.275 0.409,0.409 0.137,0.137 0.271,0.275 0.41,0.409 0.137,0.137 0.272,0.275 0.409,0.409 0.137,0.137 0.271,0.275 0.41,0.409 0.137,0.137 0.272,0.275 0.409,0.409 0.137,0.137 0.271,0.275 0.409,0.409 0.138,0.137 0.273,0.275 0.41,0.409 0.137,0.137 0.271,0.275 0.409,0.409 0.138,0.137 0.272,0.275 0.41,0.409 0.137,0.137 0.271,0.275 0.409,0.409 0.137,0.137 0.272,0.275 0.41,0.409 0.137,0.137 0.272,0.275 0.409,0.409 0.137,0.137 0.272,0.275 0.41,0.409 0.136,0.136 0.27,0.273 0.406,0.406 0.137,0.137 0.271,0.275 0.41,0.41 0.137,0.137 0.271,0.275 0.41,0.409 6.236,6.24 14.27,9.958 23.503,9.958 11.45,0 21.774,-5.721 29.087,-14.88 z"
   clip-path="url(#SVGID_00000085231090515559592790000007795320277037197965_)"
   id="path10" />
			</g>
			<g
   id="g13">
				<path
   style="fill:#ffffff"
   d="m 339.188,161.189 c -5.171,6.068 -12.264,9.816 -20.093,9.816 -15.825,0 -25.886,-15.295 -25.886,-34.162 0,-18.867 10.061,-34.162 25.886,-34.162 7.829,0 14.922,3.748 20.093,9.815 l 8.576,-8.576 c -7.304,-9.159 -17.614,-14.879 -29.05,-14.879 -22.143,0 -37.415,21.401 -37.415,47.801 0,26.399 15.272,47.801 37.415,47.801 11.437,0 21.747,-5.72 29.05,-14.879 z"
   id="path11" />
				<g
   id="g12">
					<rect
   x="269.80301"
   y="123.103"
   style="fill:#ffffff"
   width="60.271999"
   height="11.181"
   id="rect11" />
					<rect
   x="269.80301"
   y="139.40199"
   style="fill:#ffffff"
   width="60.271999"
   height="11.181"
   id="rect12" />
				</g>
			</g>
		</g><g
   id="g413"
   transform="matrix(0.56551695,0,0,0.53269697,-55.035176,-82.810366)"
   style="stroke:#000000;stroke-width:0.180398;stroke-dasharray:none;stroke-opacity:1">
					<path
   style="fill:#898f9d;stroke:#000000;stroke-width:0.180398;stroke-dasharray:none;stroke-opacity:1"
   d="m 101.119,193.156 -1.167,6.049 c -0.038,0.197 -0.229,0.326 -0.426,0.288 -0.168,-0.032 -0.287,-0.177 -0.295,-0.341 l -0.259,-6.154 c -0.025,-0.598 0.439,-1.104 1.037,-1.129 0.599,-0.025 1.104,0.439 1.129,1.038 0.003,0.082 -0.004,0.17 -0.019,0.249 z"
   id="path408" />
					<path
   style="fill:#898f9d;stroke:#000000;stroke-width:0.180398;stroke-dasharray:none;stroke-opacity:1"
   d="m 104.679,192.072 c 0.3,0.735 -0.034,1.627 -0.744,1.982 l -3.725,1.864 c -0.71,0.355 -1.493,0.028 -1.739,-0.727 l -0.994,-3.044 c -0.247,-0.754 0.187,-1.507 0.964,-1.673 l 3.726,-0.793 c 0.777,-0.166 1.658,0.3 1.958,1.035 z"
   id="path409" />
					<g
   id="g410"
   style="stroke:#000000;stroke-width:0.180398;stroke-dasharray:none;stroke-opacity:1">
						<polygon
   style="fill:#7ad3ff;stroke:#000000;stroke-width:0.180398;stroke-dasharray:none;stroke-opacity:1"
   points="109.622,181.285 111.686,184.292 125.993,184.516 120.087,181.285 "
   id="polygon409" />
						<path
   style="fill:#ebffff;stroke:#000000;stroke-width:0.180398;stroke-dasharray:none;stroke-opacity:1"
   d="m 127.446,184.9 -15.953,-0.25 -2.557,-3.727 h 11.243 z m -15.568,-0.966 12.662,0.199 -4.545,-2.488 h -9.688 z"
   id="path410" />
					</g>
					<path
   style="fill:#ebffff;stroke:#000000;stroke-width:0.180398;stroke-dasharray:none;stroke-opacity:1"
   d="m 114.162,184.112 c -0.354,0.033 -0.749,0.173 -1.12,0.372 -0.391,-0.523 -0.832,-1.03 -1.245,-1.546 -0.482,-0.559 -0.988,-1.102 -1.481,-1.633 -0.532,-0.509 -1.026,-1.023 -1.553,-1.483 -0.545,-0.447 -1.033,-0.902 -1.559,-1.279 -0.113,-0.079 -0.223,-0.158 -0.331,-0.235 -0.182,-0.13 -0.698,-0.236 -1.15,-0.236 h -3.593 c -0.453,0 -0.662,0.113 -0.466,0.252 0.099,0.071 0.218,0.155 0.354,0.252 0.219,0.17 0.507,0.325 0.791,0.591 0.286,0.256 0.608,0.544 0.959,0.86 0.338,0.33 0.675,0.729 1.043,1.119 0.365,0.398 0.698,0.884 1.067,1.342 0.357,0.476 0.684,1.012 1.036,1.525 0.322,0.546 0.651,1.095 0.959,1.657 0.288,0.581 0.608,1.13 0.861,1.718 0.121,0.26 0.24,0.517 0.355,0.774 0.192,0.43 -0.273,1.004 -1.027,1.26 -2.897,0.983 -9.382,3.124 -9.382,3.124 -0.787,0.121 -1.145,0.801 -0.798,1.519 l 1.408,0.744 c 0.869,1.795 3.91,3.971 5.903,3.971 h 13.595 c 5.979,0 13.251,-3.609 16.241,-8.061 1.948,-2.9 3.655,-3.276 4.609,-4.696 0.445,-0.662 0.161,-1.139 -0.632,-1.065 z"
   id="path411" />
					<path
   style="fill:#ff5320;stroke:#000000;stroke-width:0.180398;stroke-dasharray:none;stroke-opacity:1"
   d="m 135.049,190.693 c 0.535,-0.792 1.05,-1.391 1.537,-1.878 -0.685,0.286 -1.4,0.568 -2.134,0.869 -0.674,0.262 -1.385,0.486 -2.1,0.739 -0.717,0.247 -1.444,0.512 -2.209,0.715 -1.516,0.437 -3.07,0.909 -4.692,1.255 -0.804,0.188 -1.616,0.376 -2.429,0.567 -0.824,0.151 -1.65,0.302 -2.477,0.453 -0.827,0.145 -1.647,0.314 -2.473,0.44 -0.83,0.112 -1.655,0.223 -2.475,0.333 -0.818,0.11 -1.628,0.219 -2.43,0.327 -0.807,0.072 -1.604,0.144 -2.388,0.214 -1.57,0.118 -3.073,0.314 -4.519,0.354 -1.439,0.063 -2.801,0.123 -4.057,0.178 -0.929,0.056 -1.803,0.063 -2.611,0.063 1.129,1.673 3.794,3.463 5.601,3.463 h 2.557 c 1.136,-0.185 2.307,-0.432 3.511,-0.637 0.793,-0.147 1.599,-0.296 2.416,-0.447 0.811,-0.186 1.631,-0.375 2.457,-0.565 0.825,-0.19 1.657,-0.382 2.493,-0.574 0.831,-0.207 1.658,-0.458 2.488,-0.685 0.828,-0.233 1.655,-0.465 2.48,-0.697 0.813,-0.271 1.623,-0.542 2.428,-0.81 1.614,-0.504 3.161,-1.136 4.659,-1.724 0.754,-0.278 1.473,-0.617 2.179,-0.936 0.704,-0.326 1.401,-0.62 2.061,-0.949 0.042,-0.025 0.084,-0.046 0.127,-0.068 z"
   id="path412" />
					<path
   style="fill:#767a82;stroke:#000000;stroke-width:0.180398;stroke-dasharray:none;stroke-opacity:1"
   d="m 98.313,198.37 c -0.224,-0.017 -0.232,-0.08 -0.021,-0.154 -0.234,-0.179 -0.462,-0.746 -0.526,-1.224 -0.079,-0.591 0.124,-0.821 0.406,-0.859 0.283,-0.037 0.538,0.132 0.618,0.723 0.058,0.438 0.003,0.983 -0.145,1.252 l 0.542,-0.164 c 0.003,0.073 0.01,0.145 0.02,0.218 0.012,0.081 0.029,0.16 0.05,0.238 l -0.576,-0.016 c 0.212,0.221 0.408,0.732 0.467,1.17 0.078,0.591 -0.124,0.821 -0.406,0.858 -0.283,0.038 -0.539,-0.132 -0.618,-0.722 -0.062,-0.479 0.01,-1.085 0.189,-1.32 z"
   id="path413" />
				</g>

</svg>
