<?xml version="1.0" encoding="UTF-8" standalone="no"?>
<!-- Uploaded to: SVG Repo, www.svgrepo.com, Generator: SVG Repo Mixer Tools -->

<svg
   version="1.1"
   id="_x35_"
   viewBox="0 0 23.999998 24"
   xml:space="preserve"
   sodipodi:docname="safe.svg"
   width="23.999998"
   height="24"
   inkscape:version="1.4 (86a8ad7, 2024-10-11)"
   xmlns:inkscape="http://www.inkscape.org/namespaces/inkscape"
   xmlns:sodipodi="http://sodipodi.sourceforge.net/DTD/sodipodi-0.dtd"
   xmlns="http://www.w3.org/2000/svg"
   xmlns:svg="http://www.w3.org/2000/svg"><defs
   id="defs12" /><sodipodi:namedview
   id="namedview12"
   pagecolor="#ffffff"
   bordercolor="#000000"
   borderopacity="0.25"
   inkscape:showpageshadow="2"
   inkscape:pageopacity="0.0"
   inkscape:pagecheckerboard="true"
   inkscape:deskcolor="#d1d1d1"
   inkscape:zoom="30.625"
   inkscape:cx="12"
   inkscape:cy="12"
   inkscape:window-width="1680"
   inkscape:window-height="979"
   inkscape:window-x="1912"
   inkscape:window-y="21"
   inkscape:window-maximized="1"
   inkscape:current-layer="_x35_" />
<g
   id="g13"
   transform="scale(0.04976104,0.046875)"><g
     id="g12">
	<g
   id="g11">
		<g
   id="g10">
			<g
   id="g2">
				<polygon
   style="fill:#4f4b4b"
   points="64.9,468.34 170.879,468.34 118.429,512 64.9,512 "
   id="polygon1" />
				<polygon
   style="fill:#4f4b4b"
   points="321.467,468.34 427.446,468.34 427.446,512 373.917,512 "
   id="polygon2" />
			</g>
			<rect
   x="0.5"
   style="fill:#a8ad75"
   width="481.80499"
   height="481.80499"
   id="rect2"
   y="0" />
			<rect
   x="48.203999"
   y="47.681"
   style="fill:#f1f5d3"
   width="386.39801"
   height="386.39801"
   id="rect3" />
			<path
   style="fill:#395051"
   d="m 482.305,114.466 v 69.17 h -84.674 c -19.034,0 -34.585,-15.551 -34.585,-34.585 0,-9.517 3.888,-18.175 10.161,-24.424 6.249,-6.273 14.907,-10.161 24.424,-10.161 z"
   id="path3" />
			<path
   style="fill:#395051"
   d="m 482.305,274.272 v 69.17 h -84.674 c -19.034,0 -34.585,-15.551 -34.585,-34.585 0,-9.517 3.888,-18.175 10.161,-24.424 6.249,-6.273 14.907,-10.161 24.424,-10.161 z"
   id="path4" />
			<g
   id="g8">
				<g
   id="g6">
					<circle
   style="fill:#a8ad75"
   cx="250.464"
   cy="260.75699"
   r="99.382004"
   id="circle4" />
					<g
   id="g5">
						<path
   style="fill:#ffffff"
   d="m 258.384,185.613 c -0.316,-0.079 -0.711,-0.079 -1.027,-0.079 -4.186,0 -7.74,3.081 -8.214,7.346 -0.553,4.581 2.764,8.767 7.345,9.32 h 0.948 c 4.186,0 7.819,-3.08 8.293,-7.345 0.079,-0.316 0.079,-0.632 0.079,-1.027 0.001,-4.107 -3.158,-7.741 -7.424,-8.215 z m -25.117,9.242 c -1.264,-3.318 -4.423,-5.371 -7.819,-5.371 -1.027,0 -2.054,0.158 -3.001,0.553 -4.266,1.659 -6.398,6.477 -4.818,10.821 1.343,3.318 4.502,5.371 7.82,5.371 1.027,0 1.975,-0.237 3.002,-0.553 3.317,-1.264 5.371,-4.423 5.371,-7.819 -0.002,-0.949 -0.16,-1.975 -0.555,-3.002 z m 62.082,7.187 c -0.553,-1.501 -1.58,-2.764 -3.001,-3.712 -1.501,-1.027 -3.16,-1.501 -4.739,-1.501 -2.686,0 -5.292,1.264 -6.872,3.633 -2.607,3.792 -1.659,9.004 2.132,11.611 0.474,0.395 1.027,0.632 1.58,0.869 1.027,0.395 2.054,0.632 3.081,0.632 2.685,0 5.371,-1.264 6.951,-3.633 1.027,-1.422 1.501,-3.081 1.501,-4.739 -0.001,-1.106 -0.238,-2.133 -0.633,-3.16 z m -90.832,7.978 c -1.58,-1.422 -3.554,-2.133 -5.529,-2.133 -2.37,0 -4.66,0.948 -6.24,2.843 -3.08,3.397 -2.765,8.689 0.711,11.769 1.58,1.422 3.554,2.053 5.529,2.053 2.369,0 4.66,-0.948 6.24,-2.764 1.422,-1.58 2.132,-3.554 2.132,-5.529 0,-2.369 -0.947,-4.659 -2.843,-6.239 z m 111.921,15.323 c -1.501,-2.843 -4.423,-4.423 -7.425,-4.423 -1.264,0 -2.606,0.316 -3.87,0.948 -4.107,2.133 -5.687,7.187 -3.475,11.295 1.501,2.843 4.423,4.423 7.425,4.423 1.264,0 2.607,-0.316 3.87,-0.948 2.844,-1.58 4.423,-4.423 4.423,-7.424 0,-1.265 -0.316,-2.608 -0.948,-3.871 z m -130.403,11.294 c -0.632,-0.158 -1.264,-0.237 -1.896,-0.237 -3.791,0 -7.266,2.528 -8.135,6.398 -1.106,4.502 1.658,9.004 6.081,10.11 0.711,0.158 1.343,0.237 1.975,0.237 3.792,0 7.188,-2.528 8.136,-6.398 0.158,-0.632 0.237,-1.343 0.237,-1.975 -0.001,-3.79 -2.528,-7.187 -6.398,-8.135 z m 130.798,15.482 c -4.581,0.079 -8.293,3.712 -8.293,8.214 0,0.079 0,0.079 0,0.158 0,0.158 0,0.237 0,0.237 0,4.66 3.712,8.372 8.293,8.372 4.66,0 8.373,-3.712 8.373,-8.372 0,0 0,0 0,-0.079 0,-0.079 0,-0.158 0,-0.158 0,-4.66 -3.792,-8.372 -8.373,-8.372 z m -124.558,22.905 c -0.948,-3.87 -4.423,-6.398 -8.215,-6.398 -0.632,0 -1.264,0.079 -1.896,0.237 -4.502,1.105 -7.187,5.687 -6.16,10.11 0.948,3.791 4.423,6.398 8.135,6.398 0.632,0 1.343,-0.079 1.975,-0.237 3.87,-0.948 6.398,-4.423 6.398,-8.136 -0.001,-0.632 -0.08,-1.342 -0.237,-1.974 z m 120.767,9.636 c -1.264,-0.632 -2.607,-0.948 -3.87,-0.948 -3.001,0 -5.845,1.579 -7.424,4.423 -2.133,4.107 -0.553,9.162 3.554,11.295 1.263,0.632 2.527,0.948 3.87,0.948 3.001,0 5.924,-1.58 7.346,-4.423 0.711,-1.264 1.027,-2.607 1.027,-3.949 -0.001,-3.002 -1.66,-5.845 -4.503,-7.346 z m -107.656,15.323 c -1.422,-1.58 -3.317,-2.528 -5.213,-2.765 -0.316,-0.079 -0.711,-0.079 -1.027,-0.079 -1.975,0 -3.949,0.711 -5.529,2.133 -1.816,1.659 -2.764,3.87 -2.764,6.161 0,0.316 0,0.711 0.079,1.027 0.158,1.579 0.869,3.238 2.053,4.581 1.659,1.896 3.871,2.843 6.161,2.843 1.975,0 3.949,-0.711 5.608,-2.132 1.816,-1.659 2.764,-3.949 2.764,-6.24 0,-1.975 -0.711,-3.949 -2.132,-5.529 z m 89.252,11.452 c -1.579,-2.369 -4.186,-3.633 -6.872,-3.633 -1.658,0 -3.317,0.474 -4.739,1.501 -3.791,2.606 -4.739,7.819 -2.054,11.61 1.58,2.369 4.186,3.633 6.793,3.633 1.659,0 3.318,-0.474 4.818,-1.501 2.29,-1.58 3.554,-4.186 3.554,-6.793 0.001,-1.657 -0.473,-3.316 -1.5,-4.817 z m -65.952,4.582 c -1.027,-0.395 -2.054,-0.553 -3.001,-0.553 -3.396,0 -6.556,2.054 -7.819,5.371 -1.58,4.266 0.553,9.083 4.897,10.742 0.948,0.395 1.975,0.553 2.922,0.553 3.396,0 6.556,-2.054 7.819,-5.371 0.395,-0.948 0.553,-1.975 0.553,-3.001 0,-3.397 -2.054,-6.556 -5.371,-7.741 z m 37.281,10.584 c -0.474,-4.266 -4.107,-7.345 -8.215,-7.345 -0.395,0 -0.711,0 -1.027,0.079 -4.581,0.553 -7.899,4.739 -7.346,9.321 0.553,4.186 4.186,7.345 8.293,7.345 0.316,0 0.711,-0.079 1.027,-0.079 4.265,-0.474 7.346,-4.107 7.346,-8.293 10e-4,-0.318 10e-4,-0.712 -0.078,-1.028 z"
   id="path5" />
					</g>
					<circle
   style="fill:#e0e0e0"
   cx="250.464"
   cy="260.75699"
   r="40.548"
   id="circle5" />
				</g>
				<polygon
   style="fill:#a8ad75"
   points="236.665,164.157 250.952,139.411 265.239,164.157 "
   id="polygon6" />
				<g
   id="g7">
					<polygon
   style="fill:#99414d"
   points="264.833,108.006 250.546,132.752 236.259,108.006 "
   id="polygon7" />
					<circle
   style="fill:#99414d"
   cx="250.54601"
   cy="98.565002"
   r="23.851999"
   id="circle7" />
				</g>
				<circle
   style="fill:#fbf2c0"
   cx="250.54601"
   cy="98.167"
   r="7.1550002"
   id="circle8" />
			</g>
			<path
   style="fill:#c2c1c1"
   d="m 109.423,375.245 v 0 c -10.057,0 -18.286,-8.229 -18.286,-18.286 V 143.883 c 0,-10.057 8.229,-18.286 18.286,-18.286 v 0 c 10.057,0 18.286,8.229 18.286,18.286 v 213.076 c 0,10.057 -8.229,18.286 -18.286,18.286 z"
   id="path8" />
			<path
   style="fill:#ababab"
   d="m 109.026,218.618 v 0 c -14.649,0 -26.634,-11.986 -26.634,-26.634 v -15.901 c 0,-14.649 11.986,-26.635 26.634,-26.635 v 0 c 14.649,0 26.634,11.986 26.634,26.635 v 15.901 c 0,14.649 -11.986,26.634 -26.634,26.634 z"
   id="path9" />
			<circle
   style="fill:#f1f5d3"
   cx="407.172"
   cy="149.647"
   r="11.33"
   id="circle9" />
			<circle
   style="fill:#f1f5d3"
   cx="407.172"
   cy="310.04999"
   r="11.33"
   id="circle10" />
		</g>
		<polygon
   style="opacity:0.09;fill:#040000"
   points="373.917,512 427.446,512 427.446,481.782 482.305,481.782 482.305,343.443 482.305,274.272 482.305,183.636 482.305,114.466 482.305,15.086 15.609,481.782 64.9,481.782 64.9,512 118.429,512 154.729,481.782 337.617,481.782 "
   id="polygon10" />
	</g>
	<rect
   y="0.69800001"
   style="opacity:0.09;fill:#ffffff"
   width="481.80499"
   height="12.796"
   id="rect11"
   x="0" />
</g></g>
</svg>
