<?xml version="1.0" encoding="UTF-8" standalone="no"?>
<!-- Created with Inkscape (http://www.inkscape.org/) -->

<svg
   width="22.115694mm"
   height="22.975626mm"
   viewBox="0 0 22.115694 22.975625"
   version="1.1"
   id="svg1"
   xml:space="preserve"
   inkscape:version="1.3.2 (091e20e, 2023-11-25, custom)"
   sodipodi:docname="login-logo.svg"
   inkscape:export-filename="..\..\..\..\..\API\Images\PdfLogo.png"
   inkscape:export-xdpi="96"
   inkscape:export-ydpi="96"
   xmlns:inkscape="http://www.inkscape.org/namespaces/inkscape"
   xmlns:sodipodi="http://sodipodi.sourceforge.net/DTD/sodipodi-0.dtd"
   xmlns:xlink="http://www.w3.org/1999/xlink"
   xmlns="http://www.w3.org/2000/svg"
   xmlns:svg="http://www.w3.org/2000/svg"><sodipodi:namedview
     id="namedview1"
     pagecolor="#000000"
     bordercolor="#000000"
     borderopacity="0.25"
     inkscape:showpageshadow="2"
     inkscape:pageopacity="0.0"
     inkscape:pagecheckerboard="true"
     inkscape:deskcolor="#d1d1d1"
     inkscape:document-units="mm"
     showgrid="false"
     inkscape:zoom="9.4544939"
     inkscape:cx="41.779074"
     inkscape:cy="43.418506"
     inkscape:window-width="1920"
     inkscape:window-height="1017"
     inkscape:window-x="-8"
     inkscape:window-y="-8"
     inkscape:window-maximized="1"
     inkscape:current-layer="layer1"
     inkscape:clip-to-page="false" /><defs
     id="defs1"><color-profile
       name="Agfa-:-Swop-Standard"
       xlink:href="file:///C:/Windows/system32/spool/drivers/color/RSWOP.icm"
       id="color-profile1" /></defs><g
     inkscape:label="Layer 1"
     inkscape:groupmode="layer"
     id="layer1"
     transform="translate(-11.142652,-99.583255)"><g
       id="g2"><path
         style="fill:#3d3d68;fill-opacity:1;stroke:#ffffff;stroke-width:0.079375;stroke-dasharray:none;stroke-opacity:1"
         d="m 13.248551,99.644764 c 1.960979,7.206166 1.315139,13.984986 -2.070904,20.314586 2.734683,-3.71012 5.829587,-6.77888 5.095082,-16.66585 1.302266,0.61 2.280156,1.4723 2.794077,2.69546 0.603289,-0.73707 0.693615,-1.62071 0.690302,-2.5311 -1.837434,-1.79288 -4.058428,-2.98302 -6.508557,-3.813096 z"
         id="path1"
         sodipodi:nodetypes="cccccc" /><path
         id="path2"
         style="fill:#009fe2;fill-opacity:1;stroke:#ffffff;stroke-width:0.079375;stroke-dasharray:none;stroke-opacity:1"
         d="m 21.367747,99.842238 c 0.729574,9.141942 -4.982476,14.552212 -9.82834,21.004402 8.796277,-3.98963 14.316256,1.07515 18.440735,-4.10879 -4.468823,2.91678 -8.332754,0.94451 -13.838949,1.61075 1.837365,-3.95499 3.692351,-4.4373 6.067704,-11.15036 0.269031,-1.00197 0.424688,-2.46902 0.764195,-3.44871 1.044451,0.749 1.732899,2.4875 2.339167,4.11287 0.326232,1.19991 0.305748,2.26106 0.197403,3.28714 -0.133541,0.96464 -0.409684,1.6736 -1.419794,2.81355 -0.444068,0.33585 -1.92948,1.42402 -3.330303,2.28174 1.199809,-0.26613 2.399971,-0.61426 3.59978,-1.31464 0.942307,-0.45021 1.685743,-1.26141 2.366781,-2.43293 0.59781,-1.71621 0.55056,-2.70666 0.45992,-3.64836 -0.105334,-2.13698 -0.708456,-3.58975 -1.512052,-4.76663 -0.836259,-1.59782 -2.331037,-2.99266 -4.306198,-4.240052 z"
         sodipodi:nodetypes="cccccccccccccccc" /><path
         style="fill:#3d3d68;fill-opacity:1;stroke:#ffffff;stroke-width:0.079375;stroke-dasharray:none;stroke-opacity:1"
         d="m 12.494191,121.38608 c 1.819641,-0.70142 3.530492,-1.23966 5.033767,-1.46653 2.237857,-0.20686 4.504872,0.13333 6.817384,0.47563 4.265118,-0.0515 6.585597,-2.62381 8.878455,-5.23194 -0.911322,1.612 -1.875715,3.20041 -3.448328,4.5185 -1.022185,0.89338 -4.12823,1.6244 -5.347343,1.44691 -5.810455,-0.48328 -2.9838,-1.15622 -11.933935,0.25743 z"
         id="path3"
         sodipodi:nodetypes="ccccccc" /><path
         style="fill:#009fe2;fill-opacity:1;stroke:#ffffff;stroke-width:0.079375;stroke-dasharray:none;stroke-opacity:1"
         d="m 17.356547,121.41622 c 4.109618,-0.54257 7.900672,2.171 12.629078,-0.25225 -2.938506,2.65866 -9.677829,0.62507 -13.388387,0.39512 z"
         id="path4"
         sodipodi:nodetypes="cccc" /></g></g></svg>
